<svg xmlns="http://www.w3.org/2000/svg" xmlns:xlink="http://www.w3.org/1999/xlink" width="1920" zoomAndPan="magnify" viewBox="0 0 1440 1439.999935" height="1920" preserveAspectRatio="xMidYMid meet" version="1.0"><defs><clipPath id="0127f1cbbf"><path d="M 616 533.199219 L 686 533.199219 L 686 600 L 616 600 Z M 616 533.199219 " clip-rule="nonzero"/></clipPath><clipPath id="d39723e653"><path d="M 512.847656 755.839844 L 926.804688 755.839844 L 926.804688 882 L 512.847656 882 Z M 512.847656 755.839844 " clip-rule="nonzero"/></clipPath><clipPath id="ff9773a7f7"><path d="M 689.566406 893.898438 L 759.992188 893.898438 L 759.992188 906.695312 L 689.566406 906.695312 Z M 689.566406 893.898438 " clip-rule="nonzero"/></clipPath></defs><rect x="-144" width="1728" fill="#ffffff" y="-143.999994" height="1727.999922" fill-opacity="1"/><rect x="-144" width="1728" fill="#ffffff" y="-143.999994" height="1727.999922" fill-opacity="1"/><rect x="-144" width="1728" fill="#000000" y="-143.999994" height="1727.999922" fill-opacity="1"/><g clip-path="url(#0127f1cbbf)"><path fill="#ffffff" d="M 649.960938 540.980469 C 657.695312 537.289062 665.96875 534.796875 674.378906 533.199219 C 677.925781 544.859375 681.484375 556.515625 685.03125 568.175781 C 660.15625 572.710938 636.488281 583.488281 616.582031 599.058594 C 616.144531 591.328125 616.761719 583.492188 618.851562 576.019531 C 620.367188 570.554688 622.714844 565.304688 625.929688 560.628906 C 628.738281 556.570312 632.117188 552.90625 635.90625 549.75 C 640.164062 546.199219 644.984375 543.382812 649.960938 540.980469 " fill-opacity="1" fill-rule="nonzero"/></g><path fill="#ffffff" d="M 763.652344 577.332031 C 767.574219 565.796875 771.621094 554.304688 775.617188 542.792969 C 782.226562 544.445312 788.746094 546.515625 794.972656 549.292969 C 800.289062 551.660156 805.386719 554.566406 810.007812 558.117188 C 814.253906 561.375 818.0625 565.21875 821.195312 569.566406 C 824.4375 574.046875 826.902344 579.082031 828.507812 584.375 C 831.128906 592.925781 831.558594 601.996094 830.894531 610.867188 C 821.769531 603.238281 811.867188 596.515625 801.300781 591.058594 C 789.394531 584.917969 776.714844 580.273438 763.652344 577.332031 " fill-opacity="1" fill-rule="nonzero"/><path fill="#ffffff" d="M 779.066406 619.800781 C 773.03125 621.316406 767.34375 624.03125 762.195312 627.5 C 757.539062 630.636719 753.308594 634.375 749.476562 638.46875 C 745.148438 643.074219 741.296875 648.144531 738.148438 653.628906 C 735.3125 658.5625 732.933594 663.769531 731.183594 669.1875 C 732.351562 674.632812 733.367188 680.113281 733.96875 685.652344 C 735.796875 701.808594 734.863281 718.339844 730.632812 734.066406 C 734.535156 744.402344 740.15625 754.234375 747.980469 762.105469 C 752.046875 766.238281 756.753906 769.761719 761.964844 772.3125 C 768.242188 775.394531 775.136719 777.203125 782.113281 777.597656 C 789.527344 778.070312 797.027344 776.765625 803.886719 773.929688 C 809.167969 771.796875 813.996094 768.683594 818.484375 765.207031 C 822.066406 762.457031 825.203125 759.199219 828.242188 755.878906 C 835.484375 747.824219 841.003906 738.277344 844.671875 728.101562 C 846.628906 722.71875 847.988281 717.140625 849.011719 711.511719 C 850.316406 704.273438 850.921875 696.902344 850.699219 689.546875 C 850.359375 675.835938 846.910156 662.144531 840.257812 650.121094 C 837.367188 644.957031 834.042969 640 830.015625 635.644531 C 828.34375 633.808594 826.476562 632.171875 824.644531 630.5 C 817.992188 624.707031 809.746094 620.785156 801.078125 619.207031 C 793.808594 617.878906 786.238281 617.960938 779.066406 619.800781 Z M 651.417969 605.128906 C 643.644531 605.859375 636.023438 608.375 629.425781 612.570312 C 624.214844 615.839844 619.582031 619.992188 615.558594 624.632812 C 607.820312 633.691406 601.832031 644.25 598.121094 655.578125 C 593.921875 668.289062 592.398438 681.796875 592.914062 695.152344 C 593.296875 710.164062 596.261719 725.183594 602.285156 738.972656 C 607.390625 750.667969 614.683594 761.445312 623.875 770.3125 C 628.160156 774.453125 632.996094 778.042969 638.257812 780.847656 C 649.902344 787.148438 663.953125 788.964844 676.769531 785.5625 C 683.085938 783.902344 689.101562 781.054688 694.332031 777.132812 C 698.921875 773.660156 703.132812 769.65625 706.683594 765.117188 C 708.445312 762.773438 710.25 760.460938 711.839844 758 C 715.425781 752.492188 718.382812 746.582031 720.761719 740.457031 C 726.066406 726.625 727.902344 711.65625 727.445312 696.910156 C 727.195312 688.585938 726.148438 680.277344 724.257812 672.167969 C 722.769531 665.832031 720.800781 659.59375 718.207031 653.621094 C 713.179688 642.011719 706.003906 631.316406 697.035156 622.390625 C 695.101562 620.441406 692.929688 618.75 690.839844 616.976562 C 685.5 612.824219 679.503906 609.445312 673.035156 607.414062 C 666.082031 605.210938 658.679688 604.429688 651.417969 605.128906 Z M 640.5625 599.507812 C 647.515625 597.519531 654.828125 597.234375 662.011719 597.667969 C 672.871094 598.4375 683.347656 602.554688 692.246094 608.761719 C 696.917969 612 701.109375 615.890625 704.996094 620.03125 C 715.285156 631.074219 723.066406 644.355469 728.078125 658.570312 C 732.996094 647.710938 740.105469 637.84375 748.902344 629.796875 C 753.015625 625.996094 757.453125 622.515625 762.324219 619.730469 C 768.132812 616.371094 774.492188 613.910156 781.101562 612.71875 C 787.933594 611.5625 794.960938 611.640625 801.789062 612.773438 C 808.175781 613.855469 814.410156 615.945312 820.070312 619.101562 C 829.589844 624.464844 837.308594 632.625 843.164062 641.777344 C 846.804688 647.492188 849.871094 653.585938 852.160156 659.964844 C 856.832031 672.917969 858.378906 686.898438 857.320312 700.59375 C 856.351562 712.71875 853.703125 724.769531 848.828125 735.9375 C 846.429688 741.421875 843.507812 746.675781 840.105469 751.59375 C 837.195312 755.695312 833.957031 759.566406 830.449219 763.167969 C 823.339844 770.46875 814.90625 776.644531 805.363281 780.34375 C 798.320312 783.089844 790.722656 784.382812 783.167969 784.117188 C 776.660156 783.855469 770.160156 782.710938 764.054688 780.410156 C 758.605469 778.371094 753.453125 775.527344 748.863281 771.941406 C 744.507812 768.550781 740.667969 764.53125 737.285156 760.179688 C 733.378906 755.136719 730.121094 749.621094 727.339844 743.890625 C 722.863281 754.953125 716.695312 765.410156 708.585938 774.203125 C 704.449219 778.707031 699.769531 782.734375 694.582031 785.984375 C 683.875 792.726562 670.898438 795.566406 658.335938 794.453125 C 651.511719 793.863281 644.78125 792.144531 638.535156 789.332031 C 633.449219 787.042969 628.679688 784.0625 624.34375 780.550781 C 615.464844 773.296875 608.023438 764.367188 602.09375 754.570312 C 595.648438 743.980469 591.121094 732.261719 588.484375 720.15625 C 586.445312 710.683594 585.554688 700.980469 585.441406 691.300781 C 585.347656 677.753906 587.214844 664.125 591.722656 651.324219 C 593.871094 645.214844 596.589844 639.296875 599.941406 633.753906 C 603.238281 628.304688 606.945312 623.085938 611.210938 618.355469 C 614.824219 614.355469 618.835938 610.699219 623.289062 607.648438 C 628.558594 604.027344 634.398438 601.222656 640.5625 599.507812 " fill-opacity="1" fill-rule="nonzero"/><path fill="#ffffff" d="M 746.25 698.792969 C 745.375 699.152344 744.816406 700.035156 744.535156 700.90625 C 743.859375 702.90625 744.167969 705.441406 745.875 706.839844 C 746.722656 707.40625 747.964844 707.105469 748.546875 706.296875 C 749.6875 704.757812 749.898438 702.648438 749.273438 700.863281 C 748.910156 699.605469 747.679688 698.257812 746.25 698.792969 Z M 746.945312 680 C 745.269531 680.375 744.203125 681.925781 743.601562 683.429688 C 742.554688 686.203125 742.605469 689.441406 743.964844 692.101562 C 744.46875 693.058594 745.183594 693.949219 746.140625 694.480469 C 747.214844 695.066406 748.632812 694.960938 749.617188 694.226562 C 750.71875 693.414062 751.445312 692.179688 751.890625 690.90625 C 752.710938 688.460938 752.667969 685.71875 751.6875 683.324219 C 751.246094 682.230469 750.585938 681.167969 749.582031 680.507812 C 748.820312 679.980469 747.847656 679.78125 746.945312 680 Z M 750.289062 670.898438 C 753.222656 670.324219 756.425781 670.867188 758.871094 672.636719 C 761.554688 674.515625 763.503906 677.257812 764.976562 680.144531 C 767.824219 685.773438 768.574219 692.25 768.109375 698.480469 C 767.640625 704.425781 765.664062 710.390625 761.777344 714.988281 C 759.554688 717.613281 756.347656 719.597656 752.835938 719.640625 C 749.703125 719.765625 746.671875 718.335938 744.464844 716.164062 C 742.574219 714.28125 741.082031 712.023438 739.925781 709.625 C 737.25 704.0625 736.617188 697.730469 737.089844 691.636719 C 737.507812 685.832031 739.457031 680.023438 743.183594 675.496094 C 745.003906 673.289062 747.417969 671.421875 750.289062 670.898438 " fill-opacity="1" fill-rule="nonzero"/><path fill="#ffffff" d="M 673.480469 703.691406 C 672.777344 703.960938 672.261719 704.570312 671.910156 705.214844 C 670.960938 707.15625 670.949219 709.5625 671.988281 711.46875 C 672.425781 712.238281 673.167969 712.957031 674.101562 712.996094 C 675.058594 713.074219 675.859375 712.371094 676.351562 711.621094 C 677.351562 709.875 677.460938 707.679688 676.757812 705.808594 C 676.496094 705.101562 676.082031 704.421875 675.464844 703.972656 C 674.90625 703.558594 674.132812 703.457031 673.480469 703.691406 Z M 673.996094 682.289062 C 672.835938 682.59375 671.980469 683.519531 671.339844 684.484375 C 670.167969 686.285156 669.730469 688.472656 669.738281 690.597656 C 669.753906 693.253906 670.558594 696.085938 672.601562 697.898438 C 673.851562 699.03125 675.882812 699.121094 677.230469 698.109375 C 678.296875 697.269531 679.066406 696.097656 679.582031 694.847656 C 680.542969 692.390625 680.625 689.601562 679.921875 687.066406 C 679.460938 685.546875 678.695312 684.054688 677.46875 683.015625 C 676.523438 682.214844 675.179688 681.9375 673.996094 682.289062 Z M 678.75 673.164062 C 681.738281 672.710938 684.929688 673.242188 687.46875 674.933594 C 690.203125 676.738281 692.265625 679.386719 693.878906 682.203125 C 696.960938 687.609375 698.195312 693.890625 698.238281 700.066406 C 698.246094 706.316406 697.042969 712.691406 693.96875 718.1875 C 692.460938 720.824219 690.589844 723.324219 688.117188 725.128906 C 685.714844 726.910156 682.679688 727.820312 679.695312 727.515625 C 676.546875 727.265625 673.664062 725.609375 671.488281 723.386719 C 667.988281 719.753906 665.726562 715.0625 664.519531 710.199219 C 663.414062 705.746094 663.199219 701.109375 663.523438 696.546875 C 663.984375 690.476562 665.871094 684.421875 669.5 679.488281 C 671.726562 676.421875 674.890625 673.730469 678.75 673.164062 " fill-opacity="1" fill-rule="nonzero"/><g clip-path="url(#d39723e653)"><path fill="#ffffff" d="M 880.296875 755.957031 C 886.402344 755.636719 892.527344 757.171875 897.953125 759.945312 C 908.832031 765.566406 917.6875 775.113281 922.269531 786.496094 C 924.75 792.761719 926.296875 799.402344 926.804688 806.125 C 921.703125 796.09375 915.75 786.289062 907.582031 778.441406 C 901.113281 789.394531 893.960938 799.976562 885.648438 809.625 C 877.304688 819.433594 867.980469 828.40625 857.847656 836.351562 C 846.453125 845.300781 834.085938 852.996094 821.082031 859.386719 C 804.105469 867.75 786.019531 873.871094 767.453125 877.546875 C 741.828125 882.59375 715.371094 883.253906 689.5 879.722656 C 676.785156 877.972656 664.179688 875.28125 651.941406 871.382812 C 626.402344 863.269531 602.199219 850.75 581.195312 834.066406 C 562.6875 819.382812 546.890625 801.308594 534.738281 781.050781 C 526.332031 788.804688 519.273438 797.894531 512.847656 807.320312 C 515.226562 795.511719 520.519531 784.261719 528.316406 775.0625 C 530.011719 773.027344 531.910156 771.171875 533.84375 769.363281 C 538.203125 765.316406 543.085938 761.746094 548.566406 759.367188 C 552.660156 757.578125 557.140625 756.6875 561.605469 756.71875 C 561.449219 760.390625 561.308594 764.066406 561.140625 767.738281 C 554.171875 768.027344 547.664062 771.144531 542.054688 775.109375 C 555.046875 797.179688 572.570312 816.570312 593.257812 831.664062 C 603.332031 839 614.078125 845.40625 625.292969 850.835938 C 636.597656 856.308594 648.347656 860.867188 660.4375 864.28125 C 686.722656 871.730469 714.363281 874.109375 741.566406 871.871094 C 748.109375 871.3125 754.617188 870.402344 761.089844 869.289062 C 771 867.636719 780.734375 865.042969 790.292969 861.96875 C 794.933594 860.457031 799.503906 858.757812 804.003906 856.882812 C 808.46875 855.046875 812.898438 853.117188 817.234375 851 C 821.203125 849.085938 825.054688 846.929688 828.867188 844.730469 C 844.359375 835.878906 858.601562 824.828125 871 811.992188 C 882.398438 800.242188 892.039062 786.859375 900.207031 772.683594 C 894.628906 769.066406 888.023438 766.90625 881.347656 767.023438 C 881 763.335938 880.640625 759.644531 880.296875 755.957031 " fill-opacity="1" fill-rule="nonzero"/></g><g clip-path="url(#ff9773a7f7)"><path fill="#ffffff" d="M 725.652344 900.132812 C 737.320312 899.929688 748.925781 897.746094 759.945312 893.933594 C 755.613281 897.699219 750.683594 900.796875 745.34375 902.925781 C 740.410156 904.898438 735.167969 906.03125 729.882812 906.464844 C 724.273438 906.957031 718.609375 906.652344 713.070312 905.644531 C 708.066406 904.726562 703.171875 903.132812 698.660156 900.769531 C 695.40625 899.074219 692.363281 896.984375 689.566406 894.609375 C 701.167969 898.476562 713.425781 900.355469 725.652344 900.132812 " fill-opacity="1" fill-rule="nonzero"/></g><path fill="#000000" d="M 678.75 673.164062 C 674.890625 673.730469 671.726562 676.417969 669.503906 679.492188 C 665.867188 684.421875 663.984375 690.476562 663.519531 696.546875 C 663.199219 701.109375 663.414062 705.746094 664.519531 710.199219 C 665.726562 715.0625 667.988281 719.753906 671.488281 723.386719 C 673.664062 725.609375 676.546875 727.269531 679.695312 727.515625 C 682.675781 727.820312 685.714844 726.910156 688.113281 725.128906 C 690.589844 723.324219 692.460938 720.824219 693.96875 718.1875 C 697.042969 712.695312 698.246094 706.316406 698.238281 700.066406 C 698.199219 693.890625 696.960938 687.609375 693.878906 682.207031 C 692.261719 679.386719 690.203125 676.742188 687.46875 674.933594 C 684.929688 673.242188 681.738281 672.714844 678.75 673.164062 Z M 651.417969 605.128906 C 658.679688 604.429688 666.082031 605.210938 673.035156 607.414062 C 679.503906 609.445312 685.5 612.824219 690.839844 616.976562 C 692.929688 618.753906 695.101562 620.441406 697.035156 622.390625 C 706.003906 631.316406 713.179688 642.011719 718.207031 653.621094 C 720.800781 659.59375 722.765625 665.828125 724.253906 672.167969 C 726.148438 680.277344 727.195312 688.585938 727.445312 696.910156 C 727.902344 711.65625 726.066406 726.625 720.761719 740.457031 C 718.382812 746.582031 715.425781 752.492188 711.839844 758 C 710.25 760.460938 708.441406 762.773438 706.683594 765.117188 C 703.132812 769.65625 698.925781 773.660156 694.332031 777.132812 C 689.101562 781.054688 683.085938 783.902344 676.769531 785.5625 C 663.953125 788.964844 649.902344 787.148438 638.257812 780.847656 C 632.996094 778.042969 628.160156 774.453125 623.875 770.3125 C 614.683594 761.445312 607.390625 750.667969 602.285156 738.972656 C 596.261719 725.183594 593.296875 710.164062 592.914062 695.152344 C 592.398438 681.796875 593.921875 668.292969 598.121094 655.578125 C 601.832031 644.253906 607.820312 633.6875 615.558594 624.632812 C 619.582031 619.992188 624.214844 615.84375 629.425781 612.570312 C 636.023438 608.375 643.644531 605.855469 651.417969 605.128906 " fill-opacity="1" fill-rule="nonzero"/><path fill="#000000" d="M 750.289062 670.894531 C 747.417969 671.421875 745.003906 673.289062 743.183594 675.496094 C 739.457031 680.023438 737.507812 685.832031 737.089844 691.636719 C 736.617188 697.734375 737.25 704.0625 739.925781 709.625 C 741.082031 712.023438 742.574219 714.28125 744.464844 716.164062 C 746.671875 718.335938 749.703125 719.765625 752.835938 719.640625 C 756.347656 719.597656 759.554688 717.609375 761.777344 714.988281 C 765.664062 710.390625 767.640625 704.425781 768.109375 698.480469 C 768.574219 692.253906 767.824219 685.773438 764.972656 680.144531 C 763.5 677.257812 761.554688 674.515625 758.871094 672.636719 C 756.425781 670.867188 753.21875 670.324219 750.289062 670.894531 Z M 779.0625 619.796875 C 786.238281 617.960938 793.808594 617.878906 801.078125 619.210938 C 809.746094 620.785156 817.992188 624.707031 824.644531 630.5 C 826.476562 632.171875 828.339844 633.8125 830.015625 635.648438 C 834.042969 640 837.367188 644.957031 840.257812 650.125 C 846.910156 662.144531 850.355469 675.835938 850.699219 689.546875 C 850.921875 696.902344 850.316406 704.273438 849.015625 711.511719 C 847.988281 717.140625 846.628906 722.71875 844.671875 728.101562 C 841.003906 738.277344 835.484375 747.824219 828.242188 755.878906 C 825.203125 759.199219 822.066406 762.457031 818.484375 765.207031 C 813.996094 768.683594 809.167969 771.796875 803.886719 773.929688 C 797.023438 776.765625 789.527344 778.070312 782.109375 777.597656 C 775.136719 777.203125 768.242188 775.394531 761.964844 772.3125 C 756.753906 769.761719 752.046875 766.238281 747.980469 762.105469 C 740.15625 754.234375 734.535156 744.402344 730.632812 734.066406 C 734.863281 718.339844 735.792969 701.808594 733.96875 685.652344 C 733.363281 680.113281 732.351562 674.632812 731.183594 669.1875 C 732.933594 663.769531 735.3125 658.5625 738.148438 653.628906 C 741.296875 648.140625 745.144531 643.074219 749.476562 638.46875 C 753.308594 634.371094 757.539062 630.636719 762.195312 627.5 C 767.34375 624.03125 773.03125 621.316406 779.0625 619.796875 " fill-opacity="1" fill-rule="nonzero"/><path fill="#000000" d="M 746.945312 680 C 747.84375 679.777344 748.824219 679.980469 749.582031 680.507812 C 750.585938 681.167969 751.246094 682.226562 751.6875 683.324219 C 752.667969 685.71875 752.714844 688.460938 751.890625 690.90625 C 751.445312 692.179688 750.71875 693.414062 749.617188 694.226562 C 748.632812 694.960938 747.214844 695.070312 746.140625 694.480469 C 745.183594 693.949219 744.46875 693.058594 743.964844 692.101562 C 742.605469 689.441406 742.554688 686.203125 743.601562 683.433594 C 744.203125 681.925781 745.269531 680.371094 746.945312 680 " fill-opacity="1" fill-rule="nonzero"/><path fill="#000000" d="M 673.996094 682.289062 C 675.179688 681.9375 676.523438 682.214844 677.46875 683.015625 C 678.695312 684.058594 679.460938 685.546875 679.921875 687.066406 C 680.625 689.605469 680.542969 692.390625 679.582031 694.847656 C 679.066406 696.097656 678.296875 697.269531 677.230469 698.109375 C 675.882812 699.121094 673.851562 699.03125 672.605469 697.902344 C 670.558594 696.085938 669.753906 693.253906 669.734375 690.597656 C 669.730469 688.472656 670.167969 686.285156 671.335938 684.484375 C 671.980469 683.519531 672.835938 682.59375 673.996094 682.289062 " fill-opacity="1" fill-rule="nonzero"/><path fill="#000000" d="M 746.253906 698.792969 C 747.679688 698.253906 748.910156 699.605469 749.273438 700.863281 C 749.898438 702.648438 749.6875 704.757812 748.546875 706.292969 C 747.964844 707.105469 746.722656 707.410156 745.875 706.839844 C 744.167969 705.441406 743.859375 702.90625 744.535156 700.90625 C 744.816406 700.035156 745.375 699.152344 746.253906 698.792969 " fill-opacity="1" fill-rule="nonzero"/><path fill="#000000" d="M 673.480469 703.691406 C 674.136719 703.457031 674.90625 703.558594 675.464844 703.972656 C 676.085938 704.421875 676.496094 705.097656 676.757812 705.808594 C 677.460938 707.679688 677.351562 709.875 676.351562 711.621094 C 675.859375 712.371094 675.058594 713.070312 674.101562 712.992188 C 673.167969 712.953125 672.425781 712.238281 671.988281 711.46875 C 670.949219 709.5625 670.960938 707.15625 671.910156 705.214844 C 672.261719 704.570312 672.777344 703.960938 673.480469 703.691406 " fill-opacity="1" fill-rule="nonzero"/></svg>