<svg xmlns="http://www.w3.org/2000/svg" xmlns:xlink="http://www.w3.org/1999/xlink" width="1920" zoomAndPan="magnify" viewBox="0 0 1440 1439.999935" height="1920" preserveAspectRatio="xMidYMid meet" version="1.0"><defs><linearGradient x1="0" gradientTransform="matrix(0.75, 0, 0, 0.75, 0.0000325, -0.00002)" y1="0.0000266667" x2="0" gradientUnits="userSpaceOnUse" y2="1919.99992" id="b37eff733d"><stop stop-opacity="1" stop-color="rgb(0%, 0%, 0%)" offset="0"/><stop stop-opacity="1" stop-color="rgb(0.305176%, 0.221252%, 0.0335693%)" offset="0.00390625"/><stop stop-opacity="1" stop-color="rgb(0.611877%, 0.444031%, 0.0671387%)" offset="0.0078125"/><stop stop-opacity="1" stop-color="rgb(0.917053%, 0.665283%, 0.100708%)" offset="0.0117187"/><stop stop-opacity="1" stop-color="rgb(1.223755%, 0.888062%, 0.134277%)" offset="0.015625"/><stop stop-opacity="1" stop-color="rgb(1.530457%, 1.109314%, 0.167847%)" offset="0.0195312"/><stop stop-opacity="1" stop-color="rgb(1.837158%, 1.332092%, 0.201416%)" offset="0.0234375"/><stop stop-opacity="1" stop-color="rgb(2.142334%, 1.554871%, 0.234985%)" offset="0.0273437"/><stop stop-opacity="1" stop-color="rgb(2.449036%, 1.777649%, 0.268555%)" offset="0.03125"/><stop stop-opacity="1" stop-color="rgb(2.755737%, 1.998901%, 0.302124%)" offset="0.0351562"/><stop stop-opacity="1" stop-color="rgb(3.062439%, 2.22168%, 0.335693%)" offset="0.0390625"/><stop stop-opacity="1" stop-color="rgb(3.367615%, 2.442932%, 0.369263%)" offset="0.0429688"/><stop stop-opacity="1" stop-color="rgb(3.674316%, 2.66571%, 0.402832%)" offset="0.046875"/><stop stop-opacity="1" stop-color="rgb(3.979492%, 2.888489%, 0.436401%)" offset="0.0507812"/><stop stop-opacity="1" stop-color="rgb(4.286194%, 3.111267%, 0.469971%)" offset="0.0546875"/><stop stop-opacity="1" stop-color="rgb(4.592896%, 3.33252%, 0.50354%)" offset="0.0585938"/><stop stop-opacity="1" stop-color="rgb(4.899597%, 3.555298%, 0.537109%)" offset="0.0625"/><stop stop-opacity="1" stop-color="rgb(5.204773%, 3.77655%, 0.570679%)" offset="0.0664062"/><stop stop-opacity="1" stop-color="rgb(5.511475%, 3.999329%, 0.604248%)" offset="0.0703125"/><stop stop-opacity="1" stop-color="rgb(5.818176%, 4.222107%, 0.637817%)" offset="0.0742187"/><stop stop-opacity="1" stop-color="rgb(6.124878%, 4.444885%, 0.671387%)" offset="0.078125"/><stop stop-opacity="1" stop-color="rgb(6.430054%, 4.666138%, 0.704956%)" offset="0.0820312"/><stop stop-opacity="1" stop-color="rgb(6.736755%, 4.888916%, 0.738525%)" offset="0.0859375"/><stop stop-opacity="1" stop-color="rgb(7.041931%, 5.110168%, 0.772095%)" offset="0.0898437"/><stop stop-opacity="1" stop-color="rgb(7.348633%, 5.332947%, 0.805664%)" offset="0.09375"/><stop stop-opacity="1" stop-color="rgb(7.655334%, 5.555725%, 0.839233%)" offset="0.0976562"/><stop stop-opacity="1" stop-color="rgb(7.962036%, 5.778503%, 0.872803%)" offset="0.101562"/><stop stop-opacity="1" stop-color="rgb(8.267212%, 5.999756%, 0.906372%)" offset="0.105469"/><stop stop-opacity="1" stop-color="rgb(8.573914%, 6.222534%, 0.939941%)" offset="0.109375"/><stop stop-opacity="1" stop-color="rgb(8.880615%, 6.443787%, 0.973511%)" offset="0.113281"/><stop stop-opacity="1" stop-color="rgb(9.187317%, 6.666565%, 1.00708%)" offset="0.117188"/><stop stop-opacity="1" stop-color="rgb(9.492493%, 6.889343%, 1.040649%)" offset="0.121094"/><stop stop-opacity="1" stop-color="rgb(9.799194%, 7.112122%, 1.074219%)" offset="0.125"/><stop stop-opacity="1" stop-color="rgb(10.10437%, 7.333374%, 1.107788%)" offset="0.128906"/><stop stop-opacity="1" stop-color="rgb(10.411072%, 7.556152%, 1.141357%)" offset="0.132812"/><stop stop-opacity="1" stop-color="rgb(10.717773%, 7.777405%, 1.174927%)" offset="0.136719"/><stop stop-opacity="1" stop-color="rgb(11.024475%, 8.000183%, 1.208496%)" offset="0.140625"/><stop stop-opacity="1" stop-color="rgb(11.329651%, 8.222961%, 1.242065%)" offset="0.144531"/><stop stop-opacity="1" stop-color="rgb(11.636353%, 8.44574%, 1.275635%)" offset="0.148438"/><stop stop-opacity="1" stop-color="rgb(11.943054%, 8.666992%, 1.309204%)" offset="0.152344"/><stop stop-opacity="1" stop-color="rgb(12.249756%, 8.889771%, 1.342773%)" offset="0.15625"/><stop stop-opacity="1" stop-color="rgb(12.554932%, 9.111023%, 1.376343%)" offset="0.160156"/><stop stop-opacity="1" stop-color="rgb(12.861633%, 9.333801%, 1.409912%)" offset="0.164062"/><stop stop-opacity="1" stop-color="rgb(13.166809%, 9.55658%, 1.443481%)" offset="0.167969"/><stop stop-opacity="1" stop-color="rgb(13.473511%, 9.779358%, 1.477051%)" offset="0.171875"/><stop stop-opacity="1" stop-color="rgb(13.780212%, 10.00061%, 1.51062%)" offset="0.175781"/><stop stop-opacity="1" stop-color="rgb(14.086914%, 10.223389%, 1.544189%)" offset="0.179688"/><stop stop-opacity="1" stop-color="rgb(14.39209%, 10.444641%, 1.577759%)" offset="0.183594"/><stop stop-opacity="1" stop-color="rgb(14.698792%, 10.667419%, 1.611328%)" offset="0.1875"/><stop stop-opacity="1" stop-color="rgb(15.005493%, 10.890198%, 1.644897%)" offset="0.191406"/><stop stop-opacity="1" stop-color="rgb(15.312195%, 11.112976%, 1.678467%)" offset="0.195312"/><stop stop-opacity="1" stop-color="rgb(15.617371%, 11.334229%, 1.712036%)" offset="0.199219"/><stop stop-opacity="1" stop-color="rgb(15.924072%, 11.557007%, 1.745605%)" offset="0.203125"/><stop stop-opacity="1" stop-color="rgb(16.230774%, 11.778259%, 1.779175%)" offset="0.207031"/><stop stop-opacity="1" stop-color="rgb(16.537476%, 12.001038%, 1.812744%)" offset="0.210938"/><stop stop-opacity="1" stop-color="rgb(16.842651%, 12.223816%, 1.846313%)" offset="0.214844"/><stop stop-opacity="1" stop-color="rgb(17.149353%, 12.446594%, 1.879883%)" offset="0.21875"/><stop stop-opacity="1" stop-color="rgb(17.454529%, 12.667847%, 1.913452%)" offset="0.222656"/><stop stop-opacity="1" stop-color="rgb(17.76123%, 12.890625%, 1.947021%)" offset="0.226562"/><stop stop-opacity="1" stop-color="rgb(18.067932%, 13.111877%, 1.980591%)" offset="0.230469"/><stop stop-opacity="1" stop-color="rgb(18.374634%, 13.334656%, 2.01416%)" offset="0.234375"/><stop stop-opacity="1" stop-color="rgb(18.67981%, 13.557434%, 2.047729%)" offset="0.238281"/><stop stop-opacity="1" stop-color="rgb(18.986511%, 13.780212%, 2.081299%)" offset="0.242188"/><stop stop-opacity="1" stop-color="rgb(19.293213%, 14.001465%, 2.114868%)" offset="0.246094"/><stop stop-opacity="1" stop-color="rgb(19.599915%, 14.224243%, 2.149963%)" offset="0.25"/><stop stop-opacity="1" stop-color="rgb(19.90509%, 14.445496%, 2.183533%)" offset="0.253906"/><stop stop-opacity="1" stop-color="rgb(20.211792%, 14.668274%, 2.217102%)" offset="0.257812"/><stop stop-opacity="1" stop-color="rgb(20.516968%, 14.891052%, 2.250671%)" offset="0.261719"/><stop stop-opacity="1" stop-color="rgb(20.823669%, 15.113831%, 2.284241%)" offset="0.265625"/><stop stop-opacity="1" stop-color="rgb(21.130371%, 15.335083%, 2.31781%)" offset="0.269531"/><stop stop-opacity="1" stop-color="rgb(21.437073%, 15.557861%, 2.351379%)" offset="0.273438"/><stop stop-opacity="1" stop-color="rgb(21.742249%, 15.779114%, 2.384949%)" offset="0.277344"/><stop stop-opacity="1" stop-color="rgb(22.04895%, 16.001892%, 2.418518%)" offset="0.28125"/><stop stop-opacity="1" stop-color="rgb(22.355652%, 16.22467%, 2.452087%)" offset="0.285156"/><stop stop-opacity="1" stop-color="rgb(22.662354%, 16.447449%, 2.485657%)" offset="0.289062"/><stop stop-opacity="1" stop-color="rgb(22.967529%, 16.668701%, 2.519226%)" offset="0.292969"/><stop stop-opacity="1" stop-color="rgb(23.274231%, 16.891479%, 2.552795%)" offset="0.296875"/><stop stop-opacity="1" stop-color="rgb(23.579407%, 17.112732%, 2.586365%)" offset="0.300781"/><stop stop-opacity="1" stop-color="rgb(23.886108%, 17.33551%, 2.619934%)" offset="0.304687"/><stop stop-opacity="1" stop-color="rgb(24.19281%, 17.558289%, 2.653503%)" offset="0.308594"/><stop stop-opacity="1" stop-color="rgb(24.499512%, 17.781067%, 2.687073%)" offset="0.3125"/><stop stop-opacity="1" stop-color="rgb(24.804688%, 18.002319%, 2.720642%)" offset="0.316406"/><stop stop-opacity="1" stop-color="rgb(25.111389%, 18.225098%, 2.754211%)" offset="0.320312"/><stop stop-opacity="1" stop-color="rgb(25.418091%, 18.44635%, 2.787781%)" offset="0.324219"/><stop stop-opacity="1" stop-color="rgb(25.724792%, 18.669128%, 2.82135%)" offset="0.328125"/><stop stop-opacity="1" stop-color="rgb(26.029968%, 18.891907%, 2.854919%)" offset="0.332031"/><stop stop-opacity="1" stop-color="rgb(26.33667%, 19.114685%, 2.888489%)" offset="0.335938"/><stop stop-opacity="1" stop-color="rgb(26.641846%, 19.335938%, 2.922058%)" offset="0.339844"/><stop stop-opacity="1" stop-color="rgb(26.948547%, 19.558716%, 2.955627%)" offset="0.34375"/><stop stop-opacity="1" stop-color="rgb(27.255249%, 19.779968%, 2.989197%)" offset="0.347656"/><stop stop-opacity="1" stop-color="rgb(27.561951%, 20.002747%, 3.022766%)" offset="0.351562"/><stop stop-opacity="1" stop-color="rgb(27.867126%, 20.225525%, 3.056335%)" offset="0.355469"/><stop stop-opacity="1" stop-color="rgb(28.173828%, 20.448303%, 3.089905%)" offset="0.359375"/><stop stop-opacity="1" stop-color="rgb(28.48053%, 20.669556%, 3.123474%)" offset="0.363281"/><stop stop-opacity="1" stop-color="rgb(28.787231%, 20.892334%, 3.157043%)" offset="0.367188"/><stop stop-opacity="1" stop-color="rgb(29.092407%, 21.113586%, 3.190613%)" offset="0.371094"/><stop stop-opacity="1" stop-color="rgb(29.399109%, 21.336365%, 3.224182%)" offset="0.375"/><stop stop-opacity="1" stop-color="rgb(29.704285%, 21.559143%, 3.257751%)" offset="0.378906"/><stop stop-opacity="1" stop-color="rgb(30.010986%, 21.781921%, 3.291321%)" offset="0.382812"/><stop stop-opacity="1" stop-color="rgb(30.317688%, 22.003174%, 3.32489%)" offset="0.386719"/><stop stop-opacity="1" stop-color="rgb(30.62439%, 22.225952%, 3.358459%)" offset="0.390625"/><stop stop-opacity="1" stop-color="rgb(30.929565%, 22.447205%, 3.392029%)" offset="0.394531"/><stop stop-opacity="1" stop-color="rgb(31.236267%, 22.669983%, 3.425598%)" offset="0.398438"/><stop stop-opacity="1" stop-color="rgb(31.542969%, 22.892761%, 3.459167%)" offset="0.402344"/><stop stop-opacity="1" stop-color="rgb(31.84967%, 23.11554%, 3.492737%)" offset="0.40625"/><stop stop-opacity="1" stop-color="rgb(32.154846%, 23.336792%, 3.526306%)" offset="0.410156"/><stop stop-opacity="1" stop-color="rgb(32.461548%, 23.55957%, 3.559875%)" offset="0.414062"/><stop stop-opacity="1" stop-color="rgb(32.76825%, 23.780823%, 3.593445%)" offset="0.417969"/><stop stop-opacity="1" stop-color="rgb(33.074951%, 24.003601%, 3.627014%)" offset="0.421875"/><stop stop-opacity="1" stop-color="rgb(33.380127%, 24.226379%, 3.660583%)" offset="0.425781"/><stop stop-opacity="1" stop-color="rgb(33.686829%, 24.449158%, 3.694153%)" offset="0.429687"/><stop stop-opacity="1" stop-color="rgb(33.992004%, 24.67041%, 3.727722%)" offset="0.433594"/><stop stop-opacity="1" stop-color="rgb(34.298706%, 24.893188%, 3.761292%)" offset="0.4375"/><stop stop-opacity="1" stop-color="rgb(34.605408%, 25.114441%, 3.794861%)" offset="0.441406"/><stop stop-opacity="1" stop-color="rgb(34.912109%, 25.337219%, 3.82843%)" offset="0.445312"/><stop stop-opacity="1" stop-color="rgb(35.217285%, 25.559998%, 3.862%)" offset="0.449219"/><stop stop-opacity="1" stop-color="rgb(35.523987%, 25.782776%, 3.895569%)" offset="0.453125"/><stop stop-opacity="1" stop-color="rgb(35.830688%, 26.004028%, 3.929138%)" offset="0.457031"/><stop stop-opacity="1" stop-color="rgb(36.13739%, 26.226807%, 3.962708%)" offset="0.460937"/><stop stop-opacity="1" stop-color="rgb(36.442566%, 26.448059%, 3.996277%)" offset="0.464844"/><stop stop-opacity="1" stop-color="rgb(36.749268%, 26.670837%, 4.029846%)" offset="0.46875"/><stop stop-opacity="1" stop-color="rgb(37.054443%, 26.893616%, 4.063416%)" offset="0.472656"/><stop stop-opacity="1" stop-color="rgb(37.361145%, 27.116394%, 4.096985%)" offset="0.476562"/><stop stop-opacity="1" stop-color="rgb(37.667847%, 27.337646%, 4.130554%)" offset="0.480469"/><stop stop-opacity="1" stop-color="rgb(37.974548%, 27.560425%, 4.164124%)" offset="0.484375"/><stop stop-opacity="1" stop-color="rgb(38.279724%, 27.781677%, 4.197693%)" offset="0.488281"/><stop stop-opacity="1" stop-color="rgb(38.586426%, 28.004456%, 4.232788%)" offset="0.492188"/><stop stop-opacity="1" stop-color="rgb(38.893127%, 28.225708%, 4.266357%)" offset="0.496094"/><stop stop-opacity="1" stop-color="rgb(39.199829%, 28.448486%, 4.299927%)" offset="0.5"/><stop stop-opacity="1" stop-color="rgb(39.505005%, 28.671265%, 4.333496%)" offset="0.503906"/><stop stop-opacity="1" stop-color="rgb(39.811707%, 28.894043%, 4.367065%)" offset="0.507812"/><stop stop-opacity="1" stop-color="rgb(40.116882%, 29.115295%, 4.400635%)" offset="0.511719"/><stop stop-opacity="1" stop-color="rgb(40.423584%, 29.338074%, 4.434204%)" offset="0.515625"/><stop stop-opacity="1" stop-color="rgb(40.730286%, 29.559326%, 4.467773%)" offset="0.519531"/><stop stop-opacity="1" stop-color="rgb(41.036987%, 29.782104%, 4.501343%)" offset="0.523438"/><stop stop-opacity="1" stop-color="rgb(41.342163%, 30.004883%, 4.534912%)" offset="0.527344"/><stop stop-opacity="1" stop-color="rgb(41.648865%, 30.227661%, 4.568481%)" offset="0.53125"/><stop stop-opacity="1" stop-color="rgb(41.955566%, 30.448914%, 4.602051%)" offset="0.535156"/><stop stop-opacity="1" stop-color="rgb(42.262268%, 30.671692%, 4.63562%)" offset="0.539062"/><stop stop-opacity="1" stop-color="rgb(42.567444%, 30.892944%, 4.669189%)" offset="0.542969"/><stop stop-opacity="1" stop-color="rgb(42.874146%, 31.115723%, 4.702759%)" offset="0.546875"/><stop stop-opacity="1" stop-color="rgb(43.179321%, 31.338501%, 4.736328%)" offset="0.550781"/><stop stop-opacity="1" stop-color="rgb(43.486023%, 31.561279%, 4.769897%)" offset="0.554688"/><stop stop-opacity="1" stop-color="rgb(43.792725%, 31.782532%, 4.803467%)" offset="0.558594"/><stop stop-opacity="1" stop-color="rgb(44.099426%, 32.00531%, 4.837036%)" offset="0.5625"/><stop stop-opacity="1" stop-color="rgb(44.404602%, 32.226562%, 4.870605%)" offset="0.566406"/><stop stop-opacity="1" stop-color="rgb(44.711304%, 32.449341%, 4.904175%)" offset="0.570312"/><stop stop-opacity="1" stop-color="rgb(45.018005%, 32.672119%, 4.937744%)" offset="0.574219"/><stop stop-opacity="1" stop-color="rgb(45.324707%, 32.894897%, 4.971313%)" offset="0.578125"/><stop stop-opacity="1" stop-color="rgb(45.629883%, 33.11615%, 5.004883%)" offset="0.582031"/><stop stop-opacity="1" stop-color="rgb(45.936584%, 33.338928%, 5.038452%)" offset="0.585937"/><stop stop-opacity="1" stop-color="rgb(46.243286%, 33.560181%, 5.072021%)" offset="0.589844"/><stop stop-opacity="1" stop-color="rgb(46.549988%, 33.782959%, 5.105591%)" offset="0.59375"/><stop stop-opacity="1" stop-color="rgb(46.855164%, 34.005737%, 5.13916%)" offset="0.597656"/><stop stop-opacity="1" stop-color="rgb(47.161865%, 34.228516%, 5.172729%)" offset="0.601562"/><stop stop-opacity="1" stop-color="rgb(47.467041%, 34.449768%, 5.206299%)" offset="0.605469"/><stop stop-opacity="1" stop-color="rgb(47.773743%, 34.672546%, 5.239868%)" offset="0.609375"/><stop stop-opacity="1" stop-color="rgb(48.080444%, 34.893799%, 5.273438%)" offset="0.613281"/><stop stop-opacity="1" stop-color="rgb(48.387146%, 35.116577%, 5.307007%)" offset="0.617188"/><stop stop-opacity="1" stop-color="rgb(48.692322%, 35.339355%, 5.340576%)" offset="0.621094"/><stop stop-opacity="1" stop-color="rgb(48.999023%, 35.562134%, 5.374146%)" offset="0.625"/><stop stop-opacity="1" stop-color="rgb(49.305725%, 35.783386%, 5.407715%)" offset="0.628906"/><stop stop-opacity="1" stop-color="rgb(49.612427%, 36.006165%, 5.441284%)" offset="0.632812"/><stop stop-opacity="1" stop-color="rgb(49.917603%, 36.227417%, 5.474854%)" offset="0.636719"/><stop stop-opacity="1" stop-color="rgb(50.224304%, 36.450195%, 5.508423%)" offset="0.640625"/><stop stop-opacity="1" stop-color="rgb(50.52948%, 36.672974%, 5.541992%)" offset="0.644531"/><stop stop-opacity="1" stop-color="rgb(50.836182%, 36.895752%, 5.575562%)" offset="0.648438"/><stop stop-opacity="1" stop-color="rgb(51.142883%, 37.117004%, 5.609131%)" offset="0.652344"/><stop stop-opacity="1" stop-color="rgb(51.449585%, 37.339783%, 5.6427%)" offset="0.65625"/><stop stop-opacity="1" stop-color="rgb(51.754761%, 37.561035%, 5.67627%)" offset="0.660156"/><stop stop-opacity="1" stop-color="rgb(52.061462%, 37.783813%, 5.709839%)" offset="0.664062"/><stop stop-opacity="1" stop-color="rgb(52.368164%, 38.006592%, 5.743408%)" offset="0.667969"/><stop stop-opacity="1" stop-color="rgb(52.674866%, 38.22937%, 5.776978%)" offset="0.671875"/><stop stop-opacity="1" stop-color="rgb(52.980042%, 38.450623%, 5.810547%)" offset="0.675781"/><stop stop-opacity="1" stop-color="rgb(53.286743%, 38.673401%, 5.844116%)" offset="0.679687"/><stop stop-opacity="1" stop-color="rgb(53.591919%, 38.894653%, 5.877686%)" offset="0.683594"/><stop stop-opacity="1" stop-color="rgb(53.898621%, 39.117432%, 5.911255%)" offset="0.6875"/><stop stop-opacity="1" stop-color="rgb(54.205322%, 39.34021%, 5.944824%)" offset="0.691406"/><stop stop-opacity="1" stop-color="rgb(54.512024%, 39.562988%, 5.978394%)" offset="0.695312"/><stop stop-opacity="1" stop-color="rgb(54.8172%, 39.784241%, 6.011963%)" offset="0.699219"/><stop stop-opacity="1" stop-color="rgb(55.123901%, 40.007019%, 6.045532%)" offset="0.703125"/><stop stop-opacity="1" stop-color="rgb(55.430603%, 40.228271%, 6.079102%)" offset="0.707031"/><stop stop-opacity="1" stop-color="rgb(55.737305%, 40.45105%, 6.112671%)" offset="0.710938"/><stop stop-opacity="1" stop-color="rgb(56.04248%, 40.673828%, 6.14624%)" offset="0.714844"/><stop stop-opacity="1" stop-color="rgb(56.349182%, 40.896606%, 6.17981%)" offset="0.71875"/><stop stop-opacity="1" stop-color="rgb(56.654358%, 41.117859%, 6.213379%)" offset="0.722656"/><stop stop-opacity="1" stop-color="rgb(56.96106%, 41.340637%, 6.246948%)" offset="0.726562"/><stop stop-opacity="1" stop-color="rgb(57.267761%, 41.56189%, 6.280518%)" offset="0.730469"/><stop stop-opacity="1" stop-color="rgb(57.574463%, 41.784668%, 6.315613%)" offset="0.734375"/><stop stop-opacity="1" stop-color="rgb(57.879639%, 42.007446%, 6.349182%)" offset="0.738281"/><stop stop-opacity="1" stop-color="rgb(58.18634%, 42.230225%, 6.382751%)" offset="0.742188"/><stop stop-opacity="1" stop-color="rgb(58.493042%, 42.451477%, 6.416321%)" offset="0.746094"/><stop stop-opacity="1" stop-color="rgb(58.799744%, 42.674255%, 6.44989%)" offset="0.75"/><stop stop-opacity="1" stop-color="rgb(59.104919%, 42.895508%, 6.483459%)" offset="0.753906"/><stop stop-opacity="1" stop-color="rgb(59.411621%, 43.118286%, 6.517029%)" offset="0.757812"/><stop stop-opacity="1" stop-color="rgb(59.716797%, 43.341064%, 6.550598%)" offset="0.761719"/><stop stop-opacity="1" stop-color="rgb(60.023499%, 43.563843%, 6.584167%)" offset="0.765625"/><stop stop-opacity="1" stop-color="rgb(60.3302%, 43.785095%, 6.617737%)" offset="0.769531"/><stop stop-opacity="1" stop-color="rgb(60.636902%, 44.007874%, 6.651306%)" offset="0.773438"/><stop stop-opacity="1" stop-color="rgb(60.942078%, 44.229126%, 6.684875%)" offset="0.777344"/><stop stop-opacity="1" stop-color="rgb(61.248779%, 44.451904%, 6.718445%)" offset="0.78125"/><stop stop-opacity="1" stop-color="rgb(61.555481%, 44.674683%, 6.752014%)" offset="0.785156"/><stop stop-opacity="1" stop-color="rgb(61.862183%, 44.897461%, 6.785583%)" offset="0.789062"/><stop stop-opacity="1" stop-color="rgb(62.167358%, 45.118713%, 6.819153%)" offset="0.792969"/><stop stop-opacity="1" stop-color="rgb(62.47406%, 45.341492%, 6.852722%)" offset="0.796875"/><stop stop-opacity="1" stop-color="rgb(62.780762%, 45.562744%, 6.886292%)" offset="0.800781"/><stop stop-opacity="1" stop-color="rgb(63.087463%, 45.785522%, 6.919861%)" offset="0.804688"/><stop stop-opacity="1" stop-color="rgb(63.392639%, 46.008301%, 6.95343%)" offset="0.808594"/><stop stop-opacity="1" stop-color="rgb(63.699341%, 46.231079%, 6.987%)" offset="0.8125"/><stop stop-opacity="1" stop-color="rgb(64.004517%, 46.452332%, 7.020569%)" offset="0.816406"/><stop stop-opacity="1" stop-color="rgb(64.311218%, 46.67511%, 7.054138%)" offset="0.820312"/><stop stop-opacity="1" stop-color="rgb(64.61792%, 46.896362%, 7.087708%)" offset="0.824219"/><stop stop-opacity="1" stop-color="rgb(64.924622%, 47.119141%, 7.121277%)" offset="0.828125"/><stop stop-opacity="1" stop-color="rgb(65.229797%, 47.341919%, 7.154846%)" offset="0.832031"/><stop stop-opacity="1" stop-color="rgb(65.536499%, 47.564697%, 7.188416%)" offset="0.835938"/><stop stop-opacity="1" stop-color="rgb(65.843201%, 47.78595%, 7.221985%)" offset="0.839844"/><stop stop-opacity="1" stop-color="rgb(66.149902%, 48.008728%, 7.255554%)" offset="0.84375"/><stop stop-opacity="1" stop-color="rgb(66.455078%, 48.22998%, 7.289124%)" offset="0.847656"/><stop stop-opacity="1" stop-color="rgb(66.76178%, 48.452759%, 7.322693%)" offset="0.851562"/><stop stop-opacity="1" stop-color="rgb(67.066956%, 48.675537%, 7.356262%)" offset="0.855469"/><stop stop-opacity="1" stop-color="rgb(67.373657%, 48.898315%, 7.389832%)" offset="0.859375"/><stop stop-opacity="1" stop-color="rgb(67.680359%, 49.119568%, 7.423401%)" offset="0.863281"/><stop stop-opacity="1" stop-color="rgb(67.987061%, 49.342346%, 7.45697%)" offset="0.867188"/><stop stop-opacity="1" stop-color="rgb(68.292236%, 49.563599%, 7.49054%)" offset="0.871094"/><stop stop-opacity="1" stop-color="rgb(68.598938%, 49.786377%, 7.524109%)" offset="0.875"/><stop stop-opacity="1" stop-color="rgb(68.90564%, 50.009155%, 7.557678%)" offset="0.878906"/><stop stop-opacity="1" stop-color="rgb(69.212341%, 50.231934%, 7.591248%)" offset="0.882812"/><stop stop-opacity="1" stop-color="rgb(69.517517%, 50.453186%, 7.624817%)" offset="0.886719"/><stop stop-opacity="1" stop-color="rgb(69.824219%, 50.675964%, 7.658386%)" offset="0.890625"/><stop stop-opacity="1" stop-color="rgb(70.129395%, 50.897217%, 7.691956%)" offset="0.894531"/><stop stop-opacity="1" stop-color="rgb(70.436096%, 51.119995%, 7.725525%)" offset="0.898438"/><stop stop-opacity="1" stop-color="rgb(70.742798%, 51.342773%, 7.759094%)" offset="0.902344"/><stop stop-opacity="1" stop-color="rgb(71.0495%, 51.565552%, 7.792664%)" offset="0.90625"/><stop stop-opacity="1" stop-color="rgb(71.354675%, 51.786804%, 7.826233%)" offset="0.910156"/><stop stop-opacity="1" stop-color="rgb(71.661377%, 52.009583%, 7.859802%)" offset="0.914062"/><stop stop-opacity="1" stop-color="rgb(71.968079%, 52.230835%, 7.893372%)" offset="0.917969"/><stop stop-opacity="1" stop-color="rgb(72.27478%, 52.453613%, 7.926941%)" offset="0.921875"/><stop stop-opacity="1" stop-color="rgb(72.579956%, 52.676392%, 7.96051%)" offset="0.925781"/><stop stop-opacity="1" stop-color="rgb(72.886658%, 52.89917%, 7.99408%)" offset="0.929688"/><stop stop-opacity="1" stop-color="rgb(73.191833%, 53.120422%, 8.027649%)" offset="0.933594"/><stop stop-opacity="1" stop-color="rgb(73.498535%, 53.343201%, 8.061218%)" offset="0.9375"/><stop stop-opacity="1" stop-color="rgb(73.805237%, 53.564453%, 8.094788%)" offset="0.941406"/><stop stop-opacity="1" stop-color="rgb(74.111938%, 53.787231%, 8.128357%)" offset="0.945312"/><stop stop-opacity="1" stop-color="rgb(74.417114%, 54.01001%, 8.161926%)" offset="0.949219"/><stop stop-opacity="1" stop-color="rgb(74.723816%, 54.232788%, 8.195496%)" offset="0.953125"/><stop stop-opacity="1" stop-color="rgb(75.030518%, 54.454041%, 8.229065%)" offset="0.957031"/><stop stop-opacity="1" stop-color="rgb(75.337219%, 54.676819%, 8.262634%)" offset="0.960938"/><stop stop-opacity="1" stop-color="rgb(75.642395%, 54.898071%, 8.296204%)" offset="0.964844"/><stop stop-opacity="1" stop-color="rgb(75.949097%, 55.12085%, 8.329773%)" offset="0.96875"/><stop stop-opacity="1" stop-color="rgb(76.254272%, 55.342102%, 8.363342%)" offset="0.972656"/><stop stop-opacity="1" stop-color="rgb(76.560974%, 55.56488%, 8.396912%)" offset="0.976562"/><stop stop-opacity="1" stop-color="rgb(76.867676%, 55.787659%, 8.430481%)" offset="0.980469"/><stop stop-opacity="1" stop-color="rgb(77.174377%, 56.010437%, 8.465576%)" offset="0.984375"/><stop stop-opacity="1" stop-color="rgb(77.479553%, 56.231689%, 8.499146%)" offset="0.988281"/><stop stop-opacity="1" stop-color="rgb(77.786255%, 56.454468%, 8.532715%)" offset="0.992188"/><stop stop-opacity="1" stop-color="rgb(78.092957%, 56.67572%, 8.566284%)" offset="0.996094"/><stop stop-opacity="1" stop-color="rgb(78.399658%, 56.898499%, 8.599854%)" offset="1"/></linearGradient><clipPath id="5a72832b81"><path d="M 616 533.199219 L 686 533.199219 L 686 600 L 616 600 Z M 616 533.199219 " clip-rule="nonzero"/></clipPath><clipPath id="985892b296"><path d="M 512.847656 755.839844 L 926.804688 755.839844 L 926.804688 882 L 512.847656 882 Z M 512.847656 755.839844 " clip-rule="nonzero"/></clipPath><clipPath id="253352e23f"><path d="M 689.566406 893.898438 L 759.992188 893.898438 L 759.992188 906.695312 L 689.566406 906.695312 Z M 689.566406 893.898438 " clip-rule="nonzero"/></clipPath></defs><rect x="-144" width="1728" fill="#ffffff" y="-143.999994" height="1727.999922" fill-opacity="1"/><rect x="-144" width="1728" fill="#ffffff" y="-143.999994" height="1727.999922" fill-opacity="1"/><rect x="-144" fill="url(#b37eff733d)" width="1728" y="-143.999994" height="1727.999922"/><g clip-path="url(#5a72832b81)"><path fill="#000000" d="M 649.960938 540.980469 C 657.695312 537.289062 665.96875 534.796875 674.378906 533.199219 C 677.925781 544.859375 681.484375 556.515625 685.03125 568.175781 C 660.15625 572.710938 636.488281 583.488281 616.582031 599.058594 C 616.144531 591.328125 616.761719 583.492188 618.851562 576.019531 C 620.367188 570.554688 622.714844 565.304688 625.929688 560.628906 C 628.738281 556.570312 632.117188 552.90625 635.90625 549.75 C 640.164062 546.199219 644.984375 543.382812 649.960938 540.980469 " fill-opacity="1" fill-rule="nonzero"/></g><path fill="#000000" d="M 763.652344 577.332031 C 767.574219 565.796875 771.621094 554.304688 775.617188 542.792969 C 782.226562 544.445312 788.746094 546.515625 794.972656 549.292969 C 800.289062 551.660156 805.386719 554.566406 810.007812 558.117188 C 814.253906 561.375 818.0625 565.21875 821.195312 569.566406 C 824.4375 574.046875 826.902344 579.082031 828.507812 584.375 C 831.128906 592.925781 831.558594 601.996094 830.894531 610.867188 C 821.769531 603.238281 811.867188 596.515625 801.300781 591.058594 C 789.394531 584.917969 776.714844 580.273438 763.652344 577.332031 " fill-opacity="1" fill-rule="nonzero"/><path fill="#000000" d="M 779.066406 619.800781 C 773.03125 621.316406 767.34375 624.03125 762.195312 627.5 C 757.539062 630.636719 753.308594 634.375 749.476562 638.46875 C 745.148438 643.074219 741.296875 648.144531 738.148438 653.628906 C 735.3125 658.5625 732.933594 663.769531 731.183594 669.1875 C 732.351562 674.632812 733.367188 680.113281 733.96875 685.652344 C 735.796875 701.808594 734.863281 718.339844 730.632812 734.066406 C 734.535156 744.402344 740.15625 754.234375 747.980469 762.105469 C 752.046875 766.238281 756.753906 769.761719 761.964844 772.3125 C 768.242188 775.394531 775.136719 777.203125 782.113281 777.597656 C 789.527344 778.070312 797.027344 776.765625 803.886719 773.929688 C 809.167969 771.796875 813.996094 768.683594 818.484375 765.207031 C 822.066406 762.457031 825.203125 759.199219 828.242188 755.878906 C 835.484375 747.824219 841.003906 738.277344 844.671875 728.101562 C 846.628906 722.71875 847.988281 717.140625 849.011719 711.511719 C 850.316406 704.273438 850.921875 696.902344 850.699219 689.546875 C 850.359375 675.835938 846.910156 662.144531 840.257812 650.121094 C 837.367188 644.957031 834.042969 640 830.015625 635.644531 C 828.34375 633.808594 826.476562 632.171875 824.644531 630.5 C 817.992188 624.707031 809.746094 620.785156 801.078125 619.207031 C 793.808594 617.878906 786.238281 617.960938 779.066406 619.800781 Z M 651.417969 605.128906 C 643.644531 605.859375 636.023438 608.375 629.425781 612.570312 C 624.214844 615.839844 619.582031 619.992188 615.558594 624.632812 C 607.820312 633.691406 601.832031 644.25 598.121094 655.578125 C 593.921875 668.289062 592.398438 681.796875 592.914062 695.152344 C 593.296875 710.164062 596.261719 725.183594 602.285156 738.972656 C 607.390625 750.667969 614.683594 761.445312 623.875 770.3125 C 628.160156 774.453125 632.996094 778.042969 638.257812 780.847656 C 649.902344 787.148438 663.953125 788.964844 676.769531 785.5625 C 683.085938 783.902344 689.101562 781.054688 694.332031 777.132812 C 698.921875 773.660156 703.132812 769.65625 706.683594 765.117188 C 708.445312 762.773438 710.25 760.460938 711.839844 758 C 715.425781 752.492188 718.382812 746.582031 720.761719 740.457031 C 726.066406 726.625 727.902344 711.65625 727.445312 696.910156 C 727.195312 688.585938 726.148438 680.277344 724.257812 672.167969 C 722.769531 665.832031 720.800781 659.59375 718.207031 653.621094 C 713.179688 642.011719 706.003906 631.316406 697.035156 622.390625 C 695.101562 620.441406 692.929688 618.75 690.839844 616.976562 C 685.5 612.824219 679.503906 609.445312 673.035156 607.414062 C 666.082031 605.210938 658.679688 604.429688 651.417969 605.128906 Z M 640.5625 599.507812 C 647.515625 597.519531 654.828125 597.234375 662.011719 597.667969 C 672.871094 598.4375 683.347656 602.554688 692.246094 608.761719 C 696.917969 612 701.109375 615.890625 704.996094 620.03125 C 715.285156 631.074219 723.066406 644.355469 728.078125 658.570312 C 732.996094 647.710938 740.105469 637.84375 748.902344 629.796875 C 753.015625 625.996094 757.453125 622.515625 762.324219 619.730469 C 768.132812 616.371094 774.492188 613.910156 781.101562 612.71875 C 787.933594 611.5625 794.960938 611.640625 801.789062 612.773438 C 808.175781 613.855469 814.410156 615.945312 820.070312 619.101562 C 829.589844 624.464844 837.308594 632.625 843.164062 641.777344 C 846.804688 647.492188 849.871094 653.585938 852.160156 659.964844 C 856.832031 672.917969 858.378906 686.898438 857.320312 700.59375 C 856.351562 712.71875 853.703125 724.769531 848.828125 735.9375 C 846.429688 741.421875 843.507812 746.675781 840.105469 751.59375 C 837.195312 755.695312 833.957031 759.566406 830.449219 763.167969 C 823.339844 770.46875 814.90625 776.644531 805.363281 780.34375 C 798.320312 783.089844 790.722656 784.382812 783.167969 784.117188 C 776.660156 783.855469 770.160156 782.710938 764.054688 780.410156 C 758.605469 778.371094 753.453125 775.527344 748.863281 771.941406 C 744.507812 768.550781 740.667969 764.53125 737.285156 760.179688 C 733.378906 755.136719 730.121094 749.621094 727.339844 743.890625 C 722.863281 754.953125 716.695312 765.410156 708.585938 774.203125 C 704.449219 778.707031 699.769531 782.734375 694.582031 785.984375 C 683.875 792.726562 670.898438 795.566406 658.335938 794.453125 C 651.511719 793.863281 644.78125 792.144531 638.535156 789.332031 C 633.449219 787.042969 628.679688 784.0625 624.34375 780.550781 C 615.464844 773.296875 608.023438 764.367188 602.09375 754.570312 C 595.648438 743.980469 591.121094 732.261719 588.484375 720.15625 C 586.445312 710.683594 585.554688 700.980469 585.441406 691.300781 C 585.347656 677.753906 587.214844 664.125 591.722656 651.324219 C 593.871094 645.214844 596.589844 639.296875 599.941406 633.753906 C 603.238281 628.304688 606.945312 623.085938 611.210938 618.355469 C 614.824219 614.355469 618.835938 610.699219 623.289062 607.648438 C 628.558594 604.027344 634.398438 601.222656 640.5625 599.507812 " fill-opacity="1" fill-rule="nonzero"/><path fill="#000000" d="M 746.25 698.792969 C 745.375 699.152344 744.816406 700.035156 744.535156 700.90625 C 743.859375 702.90625 744.167969 705.441406 745.875 706.839844 C 746.722656 707.40625 747.964844 707.105469 748.546875 706.296875 C 749.6875 704.757812 749.898438 702.648438 749.273438 700.863281 C 748.910156 699.605469 747.679688 698.257812 746.25 698.792969 Z M 746.945312 680 C 745.269531 680.375 744.203125 681.925781 743.601562 683.429688 C 742.554688 686.203125 742.605469 689.441406 743.964844 692.101562 C 744.46875 693.058594 745.183594 693.949219 746.140625 694.480469 C 747.214844 695.066406 748.632812 694.960938 749.617188 694.226562 C 750.71875 693.414062 751.445312 692.179688 751.890625 690.90625 C 752.710938 688.460938 752.667969 685.71875 751.6875 683.324219 C 751.246094 682.230469 750.585938 681.167969 749.582031 680.507812 C 748.820312 679.980469 747.847656 679.78125 746.945312 680 Z M 750.289062 670.898438 C 753.222656 670.324219 756.425781 670.867188 758.871094 672.636719 C 761.554688 674.515625 763.503906 677.257812 764.976562 680.144531 C 767.824219 685.773438 768.574219 692.25 768.109375 698.480469 C 767.640625 704.425781 765.664062 710.390625 761.777344 714.988281 C 759.554688 717.613281 756.347656 719.597656 752.835938 719.640625 C 749.703125 719.765625 746.671875 718.335938 744.464844 716.164062 C 742.574219 714.28125 741.082031 712.023438 739.925781 709.625 C 737.25 704.0625 736.617188 697.730469 737.089844 691.636719 C 737.507812 685.832031 739.457031 680.023438 743.183594 675.496094 C 745.003906 673.289062 747.417969 671.421875 750.289062 670.898438 " fill-opacity="1" fill-rule="nonzero"/><path fill="#000000" d="M 673.480469 703.691406 C 672.777344 703.960938 672.261719 704.570312 671.910156 705.214844 C 670.960938 707.15625 670.949219 709.5625 671.988281 711.46875 C 672.425781 712.238281 673.167969 712.957031 674.101562 712.996094 C 675.058594 713.074219 675.859375 712.371094 676.351562 711.621094 C 677.351562 709.875 677.460938 707.679688 676.757812 705.808594 C 676.496094 705.101562 676.082031 704.421875 675.464844 703.972656 C 674.90625 703.558594 674.132812 703.457031 673.480469 703.691406 Z M 673.996094 682.289062 C 672.835938 682.59375 671.980469 683.519531 671.339844 684.484375 C 670.167969 686.285156 669.730469 688.472656 669.738281 690.597656 C 669.753906 693.253906 670.558594 696.085938 672.601562 697.898438 C 673.851562 699.03125 675.882812 699.121094 677.230469 698.109375 C 678.296875 697.269531 679.066406 696.097656 679.582031 694.847656 C 680.542969 692.390625 680.625 689.601562 679.921875 687.066406 C 679.460938 685.546875 678.695312 684.054688 677.46875 683.015625 C 676.523438 682.214844 675.179688 681.9375 673.996094 682.289062 Z M 678.75 673.164062 C 681.738281 672.710938 684.929688 673.242188 687.46875 674.933594 C 690.203125 676.738281 692.265625 679.386719 693.878906 682.203125 C 696.960938 687.609375 698.195312 693.890625 698.238281 700.066406 C 698.246094 706.316406 697.042969 712.691406 693.96875 718.1875 C 692.460938 720.824219 690.589844 723.324219 688.117188 725.128906 C 685.714844 726.910156 682.679688 727.820312 679.695312 727.515625 C 676.546875 727.265625 673.664062 725.609375 671.488281 723.386719 C 667.988281 719.753906 665.726562 715.0625 664.519531 710.199219 C 663.414062 705.746094 663.199219 701.109375 663.523438 696.546875 C 663.984375 690.476562 665.871094 684.421875 669.5 679.488281 C 671.726562 676.421875 674.890625 673.730469 678.75 673.164062 " fill-opacity="1" fill-rule="nonzero"/><g clip-path="url(#985892b296)"><path fill="#000000" d="M 880.296875 755.957031 C 886.402344 755.636719 892.527344 757.171875 897.953125 759.945312 C 908.832031 765.566406 917.6875 775.113281 922.269531 786.496094 C 924.75 792.761719 926.296875 799.402344 926.804688 806.125 C 921.703125 796.09375 915.75 786.289062 907.582031 778.441406 C 901.113281 789.394531 893.960938 799.976562 885.648438 809.625 C 877.304688 819.433594 867.980469 828.40625 857.847656 836.351562 C 846.453125 845.300781 834.085938 852.996094 821.082031 859.386719 C 804.105469 867.75 786.019531 873.871094 767.453125 877.546875 C 741.828125 882.59375 715.371094 883.253906 689.5 879.722656 C 676.785156 877.972656 664.179688 875.28125 651.941406 871.382812 C 626.402344 863.269531 602.199219 850.75 581.195312 834.066406 C 562.6875 819.382812 546.890625 801.308594 534.738281 781.050781 C 526.332031 788.804688 519.273438 797.894531 512.847656 807.320312 C 515.226562 795.511719 520.519531 784.261719 528.316406 775.0625 C 530.011719 773.027344 531.910156 771.171875 533.84375 769.363281 C 538.203125 765.316406 543.085938 761.746094 548.566406 759.367188 C 552.660156 757.578125 557.140625 756.6875 561.605469 756.71875 C 561.449219 760.390625 561.308594 764.066406 561.140625 767.738281 C 554.171875 768.027344 547.664062 771.144531 542.054688 775.109375 C 555.046875 797.179688 572.570312 816.570312 593.257812 831.664062 C 603.332031 839 614.078125 845.40625 625.292969 850.835938 C 636.597656 856.308594 648.347656 860.867188 660.4375 864.28125 C 686.722656 871.730469 714.363281 874.109375 741.566406 871.871094 C 748.109375 871.3125 754.617188 870.402344 761.089844 869.289062 C 771 867.636719 780.734375 865.042969 790.292969 861.96875 C 794.933594 860.457031 799.503906 858.757812 804.003906 856.882812 C 808.46875 855.046875 812.898438 853.117188 817.234375 851 C 821.203125 849.085938 825.054688 846.929688 828.867188 844.730469 C 844.359375 835.878906 858.601562 824.828125 871 811.992188 C 882.398438 800.242188 892.039062 786.859375 900.207031 772.683594 C 894.628906 769.066406 888.023438 766.90625 881.347656 767.023438 C 881 763.335938 880.640625 759.644531 880.296875 755.957031 " fill-opacity="1" fill-rule="nonzero"/></g><g clip-path="url(#253352e23f)"><path fill="#000000" d="M 725.652344 900.132812 C 737.320312 899.929688 748.925781 897.746094 759.945312 893.933594 C 755.613281 897.699219 750.683594 900.796875 745.34375 902.925781 C 740.410156 904.898438 735.167969 906.03125 729.882812 906.464844 C 724.273438 906.957031 718.609375 906.652344 713.070312 905.644531 C 708.066406 904.726562 703.171875 903.132812 698.660156 900.769531 C 695.40625 899.074219 692.363281 896.984375 689.566406 894.609375 C 701.167969 898.476562 713.425781 900.355469 725.652344 900.132812 " fill-opacity="1" fill-rule="nonzero"/></g><path fill="#ffffff" d="M 678.75 673.164062 C 674.890625 673.730469 671.726562 676.417969 669.503906 679.492188 C 665.867188 684.421875 663.984375 690.476562 663.519531 696.546875 C 663.199219 701.109375 663.414062 705.746094 664.519531 710.199219 C 665.726562 715.0625 667.988281 719.753906 671.488281 723.386719 C 673.664062 725.609375 676.546875 727.269531 679.695312 727.515625 C 682.675781 727.820312 685.714844 726.910156 688.113281 725.128906 C 690.589844 723.324219 692.460938 720.824219 693.96875 718.1875 C 697.042969 712.695312 698.246094 706.316406 698.238281 700.066406 C 698.199219 693.890625 696.960938 687.609375 693.878906 682.207031 C 692.261719 679.386719 690.203125 676.742188 687.46875 674.933594 C 684.929688 673.242188 681.738281 672.714844 678.75 673.164062 Z M 651.417969 605.128906 C 658.679688 604.429688 666.082031 605.210938 673.035156 607.414062 C 679.503906 609.445312 685.5 612.824219 690.839844 616.976562 C 692.929688 618.753906 695.101562 620.441406 697.035156 622.390625 C 706.003906 631.316406 713.179688 642.011719 718.207031 653.621094 C 720.800781 659.59375 722.765625 665.828125 724.253906 672.167969 C 726.148438 680.277344 727.195312 688.585938 727.445312 696.910156 C 727.902344 711.65625 726.066406 726.625 720.761719 740.457031 C 718.382812 746.582031 715.425781 752.492188 711.839844 758 C 710.25 760.460938 708.441406 762.773438 706.683594 765.117188 C 703.132812 769.65625 698.925781 773.660156 694.332031 777.132812 C 689.101562 781.054688 683.085938 783.902344 676.769531 785.5625 C 663.953125 788.964844 649.902344 787.148438 638.257812 780.847656 C 632.996094 778.042969 628.160156 774.453125 623.875 770.3125 C 614.683594 761.445312 607.390625 750.667969 602.285156 738.972656 C 596.261719 725.183594 593.296875 710.164062 592.914062 695.152344 C 592.398438 681.796875 593.921875 668.292969 598.121094 655.578125 C 601.832031 644.253906 607.820312 633.6875 615.558594 624.632812 C 619.582031 619.992188 624.214844 615.84375 629.425781 612.570312 C 636.023438 608.375 643.644531 605.855469 651.417969 605.128906 " fill-opacity="1" fill-rule="nonzero"/><path fill="#ffffff" d="M 750.289062 670.894531 C 747.417969 671.421875 745.003906 673.289062 743.183594 675.496094 C 739.457031 680.023438 737.507812 685.832031 737.089844 691.636719 C 736.617188 697.734375 737.25 704.0625 739.925781 709.625 C 741.082031 712.023438 742.574219 714.28125 744.464844 716.164062 C 746.671875 718.335938 749.703125 719.765625 752.835938 719.640625 C 756.347656 719.597656 759.554688 717.609375 761.777344 714.988281 C 765.664062 710.390625 767.640625 704.425781 768.109375 698.480469 C 768.574219 692.253906 767.824219 685.773438 764.972656 680.144531 C 763.5 677.257812 761.554688 674.515625 758.871094 672.636719 C 756.425781 670.867188 753.21875 670.324219 750.289062 670.894531 Z M 779.0625 619.796875 C 786.238281 617.960938 793.808594 617.878906 801.078125 619.210938 C 809.746094 620.785156 817.992188 624.707031 824.644531 630.5 C 826.476562 632.171875 828.339844 633.8125 830.015625 635.648438 C 834.042969 640 837.367188 644.957031 840.257812 650.125 C 846.910156 662.144531 850.355469 675.835938 850.699219 689.546875 C 850.921875 696.902344 850.316406 704.273438 849.015625 711.511719 C 847.988281 717.140625 846.628906 722.71875 844.671875 728.101562 C 841.003906 738.277344 835.484375 747.824219 828.242188 755.878906 C 825.203125 759.199219 822.066406 762.457031 818.484375 765.207031 C 813.996094 768.683594 809.167969 771.796875 803.886719 773.929688 C 797.023438 776.765625 789.527344 778.070312 782.109375 777.597656 C 775.136719 777.203125 768.242188 775.394531 761.964844 772.3125 C 756.753906 769.761719 752.046875 766.238281 747.980469 762.105469 C 740.15625 754.234375 734.535156 744.402344 730.632812 734.066406 C 734.863281 718.339844 735.792969 701.808594 733.96875 685.652344 C 733.363281 680.113281 732.351562 674.632812 731.183594 669.1875 C 732.933594 663.769531 735.3125 658.5625 738.148438 653.628906 C 741.296875 648.140625 745.144531 643.074219 749.476562 638.46875 C 753.308594 634.371094 757.539062 630.636719 762.195312 627.5 C 767.34375 624.03125 773.03125 621.316406 779.0625 619.796875 " fill-opacity="1" fill-rule="nonzero"/><path fill="#ffffff" d="M 746.945312 680 C 747.84375 679.777344 748.824219 679.980469 749.582031 680.507812 C 750.585938 681.167969 751.246094 682.226562 751.6875 683.324219 C 752.667969 685.71875 752.714844 688.460938 751.890625 690.90625 C 751.445312 692.179688 750.71875 693.414062 749.617188 694.226562 C 748.632812 694.960938 747.214844 695.070312 746.140625 694.480469 C 745.183594 693.949219 744.46875 693.058594 743.964844 692.101562 C 742.605469 689.441406 742.554688 686.203125 743.601562 683.433594 C 744.203125 681.925781 745.269531 680.371094 746.945312 680 " fill-opacity="1" fill-rule="nonzero"/><path fill="#ffffff" d="M 673.996094 682.289062 C 675.179688 681.9375 676.523438 682.214844 677.46875 683.015625 C 678.695312 684.058594 679.460938 685.546875 679.921875 687.066406 C 680.625 689.605469 680.542969 692.390625 679.582031 694.847656 C 679.066406 696.097656 678.296875 697.269531 677.230469 698.109375 C 675.882812 699.121094 673.851562 699.03125 672.605469 697.902344 C 670.558594 696.085938 669.753906 693.253906 669.734375 690.597656 C 669.730469 688.472656 670.167969 686.285156 671.335938 684.484375 C 671.980469 683.519531 672.835938 682.59375 673.996094 682.289062 " fill-opacity="1" fill-rule="nonzero"/><path fill="#ffffff" d="M 746.253906 698.792969 C 747.679688 698.253906 748.910156 699.605469 749.273438 700.863281 C 749.898438 702.648438 749.6875 704.757812 748.546875 706.292969 C 747.964844 707.105469 746.722656 707.410156 745.875 706.839844 C 744.167969 705.441406 743.859375 702.90625 744.535156 700.90625 C 744.816406 700.035156 745.375 699.152344 746.253906 698.792969 " fill-opacity="1" fill-rule="nonzero"/><path fill="#ffffff" d="M 673.480469 703.691406 C 674.136719 703.457031 674.90625 703.558594 675.464844 703.972656 C 676.085938 704.421875 676.496094 705.097656 676.757812 705.808594 C 677.460938 707.679688 677.351562 709.875 676.351562 711.621094 C 675.859375 712.371094 675.058594 713.070312 674.101562 712.992188 C 673.167969 712.953125 672.425781 712.238281 671.988281 711.46875 C 670.949219 709.5625 670.960938 707.15625 671.910156 705.214844 C 672.261719 704.570312 672.777344 703.960938 673.480469 703.691406 " fill-opacity="1" fill-rule="nonzero"/></svg>