<svg xmlns="http://www.w3.org/2000/svg" xmlns:xlink="http://www.w3.org/1999/xlink" width="1920" zoomAndPan="magnify" viewBox="0 0 1440 1439.999935" height="1920" preserveAspectRatio="xMidYMid meet" version="1.0"><defs><clipPath id="29fc0992c6"><path d="M 496.90625 559.761719 L 942.949219 559.761719 L 942.949219 725.519531 L 496.90625 725.519531 Z M 496.90625 559.761719 " clip-rule="nonzero"/></clipPath><clipPath id="df0a923ee0"><path d="M 568 801.90625 L 872 801.90625 L 872 880.007812 L 568 880.007812 Z M 568 801.90625 " clip-rule="nonzero"/></clipPath></defs><rect x="-144" width="1728" fill="#ffffff" y="-143.999994" height="1727.999922" fill-opacity="1"/><rect x="-144" width="1728" fill="#ffffff" y="-143.999994" height="1727.999922" fill-opacity="1"/><rect x="-144" width="1728" fill="#ff3131" y="-143.999994" height="1727.999922" fill-opacity="1"/><g clip-path="url(#29fc0992c6)"><path fill="#000000" d="M 636.515625 628.742188 C 635.519531 629.214844 634.75 630.125 634.394531 631.164062 C 633.539062 633.449219 633.558594 636.152344 634.828125 638.285156 C 635.386719 639.203125 636.289062 640.066406 637.421875 640.097656 C 638.582031 640.164062 639.492188 639.277344 640.140625 638.417969 C 641.636719 635.789062 641.617188 632.246094 639.808594 629.769531 C 639.085938 628.761719 637.691406 628.226562 636.515625 628.742188 Z M 777.28125 627.898438 C 776.085938 628.34375 775.300781 629.539062 775.042969 630.75 C 774.464844 632.929688 774.699219 635.523438 776.304688 637.222656 C 777 637.992188 778.230469 638.238281 779.109375 637.625 C 780.140625 637.140625 780.601562 636.035156 780.929688 635.015625 C 781.550781 633.007812 781.316406 630.683594 780.085938 628.949219 C 779.476562 628.070312 778.324219 627.550781 777.28125 627.898438 Z M 773 613.484375 C 773.0625 616.613281 773.710938 620.113281 776.265625 622.207031 C 777.71875 623.484375 780.085938 623.425781 781.496094 622.113281 C 783.964844 619.976562 784.65625 616.546875 784.65625 613.425781 C 780.769531 613.402344 776.882812 613.476562 773 613.484375 Z M 863.214844 612.945312 C 842.730469 613.050781 822.238281 613.207031 801.753906 613.289062 C 803.046875 619.859375 803.066406 626.71875 801.511719 633.242188 C 800.253906 638.421875 797.933594 643.433594 794.289062 647.367188 C 791.769531 650.082031 788.316406 652.121094 784.554688 652.28125 C 780.640625 652.550781 776.804688 650.8125 774.0625 648.089844 C 770.375 644.347656 767.875 639.542969 766.480469 634.503906 C 764.644531 627.6875 764.609375 620.449219 765.878906 613.527344 C 756.273438 613.582031 746.664062 613.628906 737.058594 613.714844 C 736.050781 620.625 734.585938 627.46875 732.71875 634.199219 C 735.679688 642.460938 739.480469 650.421875 744.128906 657.867188 C 749.335938 666.246094 755.574219 674.046875 763 680.574219 C 778.855469 694.773438 800.820312 701.710938 821.96875 699.515625 C 834.023438 698.328125 845.632812 693.941406 855.8125 687.445312 C 864.113281 682.128906 871.652344 675.628906 878.246094 668.3125 C 884.917969 661.246094 890.574219 653.253906 895.339844 644.800781 C 900.9375 634.730469 905.054688 623.878906 908.042969 612.769531 C 893.101562 612.703125 878.15625 612.871094 863.214844 612.945312 Z M 631.941406 612.300781 C 632.109375 614.839844 632.527344 617.472656 633.949219 619.644531 C 634.714844 620.78125 635.671875 621.886719 636.988281 622.382812 C 638.714844 623.042969 640.792969 622.496094 642.015625 621.125 C 644.277344 618.78125 645.09375 615.429688 645.179688 612.261719 C 640.765625 612.265625 636.351562 612.328125 631.941406 612.300781 Z M 530.230469 612.019531 C 534.753906 633.082031 543.664062 653.210938 556.410156 670.59375 C 564.054688 681.015625 573.011719 690.582031 583.492188 698.191406 C 593.257812 705.238281 604.4375 710.472656 616.296875 712.742188 C 629.125 715.300781 642.574219 714.714844 655.089844 710.878906 C 664.488281 708.03125 673.230469 703.203125 680.859375 697.039062 C 688.609375 690.847656 695.34375 683.441406 701.039062 675.335938 C 707.257812 666.734375 712.34375 657.339844 716.457031 647.566406 C 721.207031 636.199219 724.277344 624.183594 726.171875 612.027344 C 705.347656 611.957031 684.519531 612.113281 663.691406 612.21875 C 665.722656 621.667969 665.40625 631.761719 662.003906 640.863281 C 660.277344 645.332031 657.765625 649.578125 654.277344 652.894531 C 651.453125 655.523438 647.722656 657.339844 643.808594 657.34375 C 639.21875 657.488281 634.796875 655.222656 631.746094 651.871094 C 628.105469 647.898438 625.535156 643.007812 624.015625 637.855469 C 621.628906 629.558594 621.570312 620.671875 623.335938 612.25 C 592.296875 612.195312 561.261719 611.9375 530.230469 612.019531 Z M 731.078125 585.890625 C 732.578125 576.925781 735.117188 568.128906 738.679688 559.761719 C 740.046875 568.304688 740.191406 576.972656 740.75 585.589844 C 752.847656 582.234375 765.105469 579.449219 777.414062 576.988281 C 794.757812 573.78125 812.292969 571.359375 829.9375 570.777344 C 839.347656 570.640625 848.785156 570.605469 858.15625 571.53125 C 870.074219 572.703125 881.957031 574.816406 893.304688 578.707031 C 902.988281 582 912.320312 586.402344 920.773438 592.179688 C 929.097656 597.832031 936.613281 604.675781 942.949219 612.492188 C 934.820312 612.5 926.6875 612.558594 918.5625 612.636719 C 917.742188 615.335938 917.21875 618.113281 916.351562 620.800781 C 912.953125 631.863281 908.4375 642.628906 902.476562 652.570312 C 892.730469 668.863281 879.601562 683.210938 863.914062 693.949219 C 855.222656 699.828125 845.605469 704.433594 835.417969 707.035156 C 825.519531 709.589844 815.15625 710.222656 805 709.113281 C 795.136719 708.085938 785.390625 705.585938 776.40625 701.355469 C 767.460938 697.222656 759.367188 691.382812 752.363281 684.480469 C 742.042969 674.355469 734.046875 662.082031 727.789062 649.105469 C 723.890625 659.039062 718.917969 668.550781 713.058594 677.464844 C 707.136719 686.445312 700.195312 694.773438 692.230469 702.019531 C 684.859375 708.621094 676.570312 714.28125 667.46875 718.226562 C 655.734375 723.378906 642.839844 725.683594 630.050781 725.382812 C 618.6875 725.160156 607.359375 722.859375 596.875 718.457031 C 586.539062 714.148438 577.023438 707.972656 568.65625 700.554688 C 557.855469 690.992188 548.730469 679.644531 541.015625 667.484375 C 530.203125 650.460938 522.824219 631.351562 518.808594 611.613281 C 511.507812 611.546875 504.207031 611.417969 496.90625 611.460938 C 504.113281 603.558594 512.632812 596.90625 521.875 591.546875 C 536.253906 583.230469 552.296875 578.101562 568.582031 575.101562 C 582.515625 572.601562 596.699219 571.582031 610.847656 571.652344 C 628.847656 571.511719 646.8125 573.277344 664.625 575.738281 C 676.34375 577.328125 687.964844 579.539062 699.546875 581.910156 C 706.273438 583.292969 712.972656 584.792969 719.640625 586.4375 C 722.765625 577.613281 725.957031 568.808594 729.269531 560.054688 C 729.886719 568.664062 730.558594 577.273438 731.078125 585.890625 " fill-opacity="1" fill-rule="nonzero"/></g><path fill="#000000" d="M 888.371094 702.113281 C 892.558594 698.476562 896.183594 694.261719 900.234375 690.488281 C 898.746094 693.476562 896.507812 695.988281 894.578125 698.6875 C 892.582031 701.285156 890.859375 704.109375 888.523438 706.429688 C 886.855469 708.070312 885.222656 709.738281 883.597656 711.417969 C 880.570312 714.609375 877.019531 717.234375 873.597656 719.972656 C 869.15625 723.363281 864.300781 726.171875 859.324219 728.691406 C 853.667969 731.578125 847.53125 733.308594 841.515625 735.257812 C 837.914062 736.113281 834.246094 736.65625 830.613281 737.335938 C 827.550781 737.980469 824.417969 738.070312 821.308594 738.300781 C 817.582031 738.5 813.835938 738.511719 810.125 738.066406 C 813.597656 737.332031 817.113281 736.875 820.601562 736.214844 C 832.238281 733.914062 843.722656 730.554688 854.460938 725.472656 C 859.617188 723.136719 864.328125 719.984375 869.214844 717.160156 C 871.472656 715.84375 873.5 714.191406 875.632812 712.691406 C 880.195312 709.566406 884.179688 705.699219 888.371094 702.113281 " fill-opacity="1" fill-rule="nonzero"/><path fill="#000000" d="M 545.601562 702.269531 C 547.074219 703.546875 548.332031 705.046875 549.679688 706.449219 C 553.453125 710.140625 557.453125 713.589844 561.308594 717.195312 C 563.507812 719.332031 566.1875 720.855469 568.675781 722.621094 C 571.605469 724.597656 574.453125 726.714844 577.472656 728.554688 C 582.566406 731.152344 587.726562 733.628906 592.847656 736.183594 C 597.839844 738.382812 603.078125 739.976562 608.316406 741.488281 C 614.917969 743.273438 621.601562 744.867188 628.410156 745.605469 C 636.238281 746.574219 644.078125 747.460938 651.898438 748.511719 C 645.320312 749.597656 638.632812 749.46875 631.996094 749.402344 C 624.414062 749.058594 616.808594 748.351562 609.4375 746.476562 C 603.066406 745.167969 596.773438 743.375 590.808594 740.78125 C 585.832031 738.328125 580.664062 736.203125 575.984375 733.195312 C 566.394531 727.105469 557.816406 719.367188 551.019531 710.246094 C 549.261719 707.554688 547.21875 705.054688 545.601562 702.269531 " fill-opacity="1" fill-rule="nonzero"/><g clip-path="url(#df0a923ee0)"><path fill="#000000" d="M 637.691406 824.367188 C 684.148438 810.460938 732.496094 802.746094 781 801.992188 C 787.695312 801.9375 794.394531 801.808594 801.078125 802.203125 C 814.757812 803.125 828.445312 804.695312 841.757812 808.074219 C 852.28125 810.757812 862.699219 814.394531 871.921875 820.230469 C 811.070312 810.964844 748.585938 811.691406 688.15625 823.636719 C 652.042969 830.75 616.648438 841.554688 582.761719 855.933594 C 589.429688 866.21875 599.421875 873.792969 609.828125 880.007812 C 599.664062 879.332031 589.304688 876.652344 581.078125 870.421875 C 575.785156 866.492188 571.585938 861.03125 569.472656 854.769531 C 568.046875 850.652344 567.6875 846.195312 568.324219 841.890625 C 569.332031 834.960938 572.675781 828.488281 577.320312 823.289062 C 575.339844 830.65625 575.476562 838.597656 577.878906 845.847656 C 597.386719 837.550781 617.378906 830.414062 637.691406 824.367188 " fill-opacity="1" fill-rule="nonzero"/></g><path fill="#ffffff" d="M 530.230469 612.023438 C 561.261719 611.9375 592.296875 612.195312 623.335938 612.25 C 621.570312 620.671875 621.628906 629.5625 624.015625 637.855469 C 625.535156 643.007812 628.105469 647.898438 631.746094 651.871094 C 634.792969 655.222656 639.21875 657.488281 643.808594 657.34375 C 647.722656 657.339844 651.453125 655.523438 654.273438 652.894531 C 657.765625 649.578125 660.277344 645.332031 662.003906 640.863281 C 665.40625 631.761719 665.722656 621.671875 663.691406 612.21875 C 684.519531 612.113281 705.347656 611.957031 726.171875 612.03125 C 724.273438 624.1875 721.207031 636.199219 716.457031 647.566406 C 712.34375 657.339844 707.257812 666.738281 701.035156 675.335938 C 695.34375 683.441406 688.605469 690.851562 680.859375 697.039062 C 673.230469 703.203125 664.488281 708.03125 655.089844 710.882812 C 642.574219 714.714844 629.125 715.300781 616.296875 712.746094 C 604.433594 710.476562 593.257812 705.238281 583.492188 698.195312 C 573.011719 690.582031 564.050781 681.015625 556.410156 670.59375 C 543.664062 653.214844 534.753906 633.082031 530.230469 612.023438 " fill-opacity="1" fill-rule="nonzero"/><path fill="#ffffff" d="M 631.941406 612.300781 C 636.351562 612.328125 640.765625 612.265625 645.179688 612.261719 C 645.09375 615.429688 644.277344 618.78125 642.015625 621.125 C 640.792969 622.496094 638.714844 623.042969 636.988281 622.382812 C 635.671875 621.886719 634.714844 620.78125 633.949219 619.644531 C 632.527344 617.472656 632.109375 614.839844 631.941406 612.300781 " fill-opacity="1" fill-rule="nonzero"/><path fill="#ffffff" d="M 863.210938 612.941406 C 878.15625 612.871094 893.101562 612.703125 908.042969 612.769531 C 905.054688 623.878906 900.9375 634.730469 895.339844 644.800781 C 890.574219 653.253906 884.914062 661.246094 878.242188 668.3125 C 871.652344 675.632812 864.113281 682.132812 855.8125 687.445312 C 845.636719 693.941406 834.023438 698.328125 821.96875 699.515625 C 800.820312 701.714844 778.855469 694.773438 763 680.574219 C 755.574219 674.046875 749.335938 666.246094 744.128906 657.867188 C 739.480469 650.421875 735.679688 642.460938 732.71875 634.199219 C 734.585938 627.46875 736.050781 620.628906 737.058594 613.714844 C 746.664062 613.628906 756.273438 613.582031 765.878906 613.527344 C 764.609375 620.453125 764.644531 627.683594 766.480469 634.507812 C 767.871094 639.542969 770.375 644.347656 774.0625 648.089844 C 776.804688 650.816406 780.640625 652.550781 784.550781 652.28125 C 788.316406 652.121094 791.769531 650.082031 794.285156 647.367188 C 797.933594 643.4375 800.253906 638.421875 801.507812 633.242188 C 803.0625 626.71875 803.046875 619.859375 801.753906 613.289062 C 822.238281 613.203125 842.726562 613.054688 863.210938 612.941406 " fill-opacity="1" fill-rule="nonzero"/><path fill="#ffffff" d="M 773 613.484375 C 776.882812 613.480469 780.769531 613.402344 784.652344 613.425781 C 784.65625 616.546875 783.960938 619.976562 781.496094 622.113281 C 780.082031 623.425781 777.71875 623.484375 776.265625 622.207031 C 773.707031 620.113281 773.0625 616.613281 773 613.484375 " fill-opacity="1" fill-rule="nonzero"/><path fill="#ffffff" d="M 777.277344 627.898438 C 778.320312 627.554688 779.476562 628.070312 780.082031 628.949219 C 781.316406 630.683594 781.550781 633.007812 780.929688 635.015625 C 780.597656 636.035156 780.136719 637.140625 779.105469 637.628906 C 778.230469 638.238281 776.996094 637.992188 776.300781 637.222656 C 774.699219 635.523438 774.464844 632.929688 775.042969 630.75 C 775.296875 629.542969 776.085938 628.347656 777.277344 627.898438 " fill-opacity="1" fill-rule="nonzero"/><path fill="#ffffff" d="M 636.515625 628.742188 C 637.691406 628.226562 639.085938 628.765625 639.808594 629.769531 C 641.617188 632.246094 641.636719 635.789062 640.144531 638.417969 C 639.492188 639.273438 638.582031 640.164062 637.421875 640.097656 C 636.289062 640.066406 635.386719 639.203125 634.828125 638.285156 C 633.558594 636.152344 633.539062 633.449219 634.394531 631.164062 C 634.75 630.125 635.519531 629.214844 636.515625 628.742188 " fill-opacity="1" fill-rule="nonzero"/></svg>