<svg xmlns="http://www.w3.org/2000/svg" xmlns:xlink="http://www.w3.org/1999/xlink" width="1920" zoomAndPan="magnify" viewBox="0 0 1440 1439.999935" height="1920" preserveAspectRatio="xMidYMid meet" version="1.0"><rect x="-144" width="1728" fill="#ffffff" y="-143.999994" height="1727.999922" fill-opacity="1"/><rect x="-144" width="1728" fill="#ffffff" y="-143.999994" height="1727.999922" fill-opacity="1"/><rect x="-144" width="1728" fill="#2e91f7" y="-143.999994" height="1727.999922" fill-opacity="1"/><path fill="#000000" d="M 587.40625 681.300781 C 587.40625 723.695312 620.582031 758.070312 661.511719 758.070312 C 702.445312 758.070312 735.617188 723.695312 735.617188 681.300781 C 735.617188 638.898438 702.445312 604.527344 661.511719 604.527344 C 620.582031 604.527344 587.40625 638.898438 587.40625 681.300781 Z M 598.269531 682.078125 C 598.269531 644.382812 627.761719 613.828125 664.148438 613.828125 C 700.527344 613.828125 730.007812 644.382812 730.007812 682.078125 C 730.007812 719.753906 700.527344 750.316406 664.148438 750.316406 C 627.761719 750.316406 598.269531 719.753906 598.269531 682.078125 Z M 598.269531 682.078125 " fill-opacity="1" fill-rule="nonzero"/><path fill="#ffffff" d="M 730.007812 682.078125 C 730.007812 719.753906 700.527344 750.316406 664.148438 750.316406 C 627.761719 750.316406 598.269531 719.753906 598.269531 682.078125 C 598.269531 644.382812 627.761719 613.828125 664.148438 613.828125 C 700.527344 613.828125 730.007812 644.382812 730.007812 682.078125 Z M 730.007812 682.078125 " fill-opacity="1" fill-rule="nonzero"/><path fill="#d8d8d6" d="M 613.746094 680.882812 C 613.746094 656.957031 626.277344 636.085938 644.882812 624.851562 C 621.453125 632.351562 604.425781 654.964844 604.425781 681.703125 C 604.425781 710.652344 624.40625 734.761719 650.855469 740.078125 C 628.996094 729.984375 613.746094 707.292969 613.746094 680.882812 Z M 613.746094 680.882812 " fill-opacity="1" fill-rule="nonzero"/><path fill="#000000" d="M 671.515625 686.589844 C 667.230469 686.589844 663.746094 683.117188 663.746094 678.839844 C 663.746094 674.546875 667.230469 671.078125 671.515625 671.078125 C 672.011719 671.078125 672.503906 671.128906 672.980469 671.230469 C 670.453125 669.195312 667.25 667.980469 663.746094 667.980469 C 655.613281 667.980469 649.015625 674.570312 649.015625 682.707031 C 649.015625 690.851562 655.613281 697.449219 663.746094 697.449219 C 671.894531 697.449219 678.5 690.851562 678.5 682.707031 C 678.5 682.546875 678.480469 682.371094 678.46875 682.207031 C 677.214844 684.792969 674.578125 686.589844 671.515625 686.589844 Z M 671.515625 686.589844 " fill-opacity="1" fill-rule="nonzero"/><path fill="#000000" d="M 795.492188 616.351562 C 760.824219 616.351562 732.753906 645.445312 732.753906 681.34375 C 732.753906 717.238281 760.824219 746.34375 795.492188 746.34375 C 830.140625 746.34375 858.230469 717.234375 858.230469 681.34375 C 858.230469 645.445312 830.140625 616.351562 795.492188 616.351562 Z M 793.265625 739.773438 C 762.46875 739.773438 737.492188 713.90625 737.492188 681.996094 C 737.492188 650.089844 762.46875 624.222656 793.265625 624.222656 C 824.058594 624.222656 849.03125 650.089844 849.03125 681.996094 C 849.03125 713.90625 824.058594 739.773438 793.265625 739.773438 Z M 793.265625 739.773438 " fill-opacity="1" fill-rule="nonzero"/><path fill="#ffffff" d="M 737.492188 681.996094 C 737.492188 713.90625 762.46875 739.773438 793.265625 739.773438 C 824.058594 739.773438 849.03125 713.90625 849.03125 681.996094 C 849.03125 650.089844 824.058594 624.222656 793.265625 624.222656 C 762.46875 624.222656 737.492188 650.089844 737.492188 681.996094 Z M 737.492188 681.996094 " fill-opacity="1" fill-rule="nonzero"/><path fill="#d8d8d6" d="M 835.929688 680.992188 C 835.929688 660.738281 825.332031 643.058594 809.570312 633.554688 C 829.402344 639.902344 843.816406 659.042969 843.816406 681.679688 C 843.816406 706.199219 826.90625 726.609375 804.511719 731.121094 C 823.019531 722.5625 835.929688 703.339844 835.929688 680.992188 Z M 835.929688 680.992188 " fill-opacity="1" fill-rule="nonzero"/><path fill="#000000" d="M 801.808594 684.910156 C 798.171875 684.910156 795.21875 681.960938 795.21875 678.328125 C 795.21875 674.6875 798.171875 671.746094 801.808594 671.746094 C 802.203125 671.746094 802.59375 671.789062 802.964844 671.859375 C 800.832031 670.167969 798.15625 669.109375 795.21875 669.109375 C 788.308594 669.109375 782.710938 674.707031 782.710938 681.617188 C 782.710938 688.515625 788.308594 694.125 795.21875 694.125 C 802.136719 694.125 807.742188 688.515625 807.742188 681.617188 C 807.742188 681.484375 807.707031 681.359375 807.699219 681.21875 C 806.621094 683.394531 804.402344 684.910156 801.808594 684.910156 Z M 801.808594 684.910156 " fill-opacity="1" fill-rule="nonzero"/><path fill="#000000" d="M 609.554688 587.101562 C 609.554688 587.101562 630.929688 578.363281 640.144531 575.273438 C 663.210938 567.523438 689.015625 537.28125 715.375 561.652344 C 715.550781 561.8125 717.996094 549.589844 717.957031 548.667969 C 717.601562 541 713.929688 533.742188 705.886719 530.542969 C 694.609375 526.058594 681.960938 529.910156 672.035156 535.367188 C 648.589844 548.265625 632.121094 572.496094 609.554688 587.101562 Z M 609.554688 587.101562 " fill-opacity="1" fill-rule="nonzero"/><path fill="#000000" d="M 854.40625 541.878906 C 854.367188 541.921875 836.648438 591.339844 759.910156 579.9375 C 748.667969 578.257812 745.171875 559 753.203125 552.335938 C 762.46875 544.652344 777.960938 554.6875 787.164062 557.800781 C 801.753906 562.722656 817.085938 559.308594 831.421875 554.613281 C 837.4375 552.648438 851.378906 548.066406 854.40625 541.878906 Z M 854.40625 541.878906 " fill-opacity="1" fill-rule="nonzero"/><path fill="#000000" d="M 891.90625 745.046875 C 891.90625 745.046875 947.8125 722.179688 924.226562 781.238281 C 924.226562 781.238281 950.59375 747.820312 930.027344 735.359375 C 930.027344 735.359375 915.582031 727.023438 891.90625 745.046875 Z M 891.90625 745.046875 " fill-opacity="1" fill-rule="nonzero"/><path fill="#000000" d="M 556.464844 757.324219 C 556.464844 757.324219 524.261719 743.25 514.570312 761.46875 C 514.570312 761.46875 498.65625 779.984375 532.410156 811.101562 C 532.410156 811.101562 489.34375 786.902344 505.253906 757.324219 C 505.253906 757.324219 519.996094 731.613281 556.464844 757.324219 Z M 556.464844 757.324219 " fill-opacity="1" fill-rule="nonzero"/><path fill="#000000" d="M 895.378906 767.847656 C 893.453125 765.972656 891.261719 764.546875 889.824219 764.222656 C 886.160156 763.382812 883.707031 764.136719 884.4375 767.960938 C 884.703125 769.320312 885.875 771.296875 887.464844 773.1875 C 871.53125 787.835938 852.8125 798.59375 834.761719 806.414062 C 827.152344 806.941406 818.984375 810.148438 810.601562 817.691406 C 810.601562 817.691406 789.496094 811.386719 761.644531 826.5625 C 761.640625 826.5625 761.625 826.5625 761.625 826.5625 C 660.234375 838.878906 589.984375 807.035156 563.699219 792.230469 C 564.0625 791.753906 564.316406 791.4375 564.316406 791.425781 C 566.425781 788.707031 565.753906 781.351562 563.800781 780.335938 C 556.511719 776.542969 544.03125 804.742188 559.851562 797.207031 C 559.851562 797.207031 559.992188 797.023438 560.222656 796.734375 C 630.78125 849.980469 743.101562 839.414062 743.101562 839.414062 C 744.59375 839.316406 746.027344 839.179688 747.503906 839.0625 C 754.882812 840.472656 768.042969 847.632812 770.558594 849.066406 C 788.160156 859.164062 793.003906 877.171875 806.738281 890.757812 C 823.582031 907.433594 846.835938 913.625 869.578125 906.867188 C 888.742188 901.191406 898.132812 876.71875 892.976562 859.515625 C 890.308594 850.597656 885.523438 842.519531 880.457031 834.753906 C 880.457031 834.753906 868.527344 816.550781 850.996094 809.269531 C 871.070312 797.898438 884.597656 785.6875 891.90625 777.214844 C 893.980469 778.550781 896.089844 779.121094 897.695312 778.125 C 901.429688 775.800781 898.816406 771.144531 895.378906 767.847656 Z M 895.378906 767.847656 " fill-opacity="1" fill-rule="nonzero"/><path fill="#e15c6c" d="M 881.382812 852.828125 C 889.617188 870.449219 885.15625 894.972656 863.519531 900.066406 C 845.097656 904.402344 825.953125 898.636719 813.34375 884.5625 C 802.753906 872.742188 797.832031 856.355469 783.976562 847.324219 C 781.414062 845.660156 764.976562 833.128906 761.625 835.65625 C 778.164062 823.316406 797.382812 823.390625 807.796875 824.632812 C 814.785156 826.824219 825.632812 833.117188 835.828125 851.042969 C 835.828125 851.042969 832.832031 831.679688 820.351562 822.210938 C 821.925781 820.796875 823.398438 819.484375 823.902344 819.179688 C 826.578125 817.515625 829.511719 816.359375 832.648438 815.949219 C 853.335938 813.246094 873.566406 836.109375 881.382812 852.828125 Z M 881.382812 852.828125 " fill-opacity="1" fill-rule="nonzero"/><path fill="#000000" d="M 692.578125 866.167969 C 718.113281 890.582031 734.941406 866.167969 734.941406 866.167969 C 713.203125 871.394531 692.578125 866.167969 692.578125 866.167969 Z M 692.578125 866.167969 " fill-opacity="1" fill-rule="nonzero"/></svg>