<svg xmlns="http://www.w3.org/2000/svg" xmlns:xlink="http://www.w3.org/1999/xlink" width="1920" zoomAndPan="magnify" viewBox="0 0 1440 1439.999935" height="1920" preserveAspectRatio="xMidYMid meet" version="1.0"><defs><clipPath id="2b67c0b592"><path d="M 613 528.433594 L 685 528.433594 L 685 597 L 613 597 Z M 613 528.433594 " clip-rule="nonzero"/></clipPath><clipPath id="e0244ead32"><path d="M 507.5625 756.886719 L 932.765625 756.886719 L 932.765625 886.394531 L 507.5625 886.394531 Z M 507.5625 756.886719 " clip-rule="nonzero"/></clipPath><clipPath id="7ffd778043"><path d="M 689.082031 898.550781 L 761.421875 898.550781 L 761.421875 911.679688 L 689.082031 911.679688 Z M 689.082031 898.550781 " clip-rule="nonzero"/></clipPath></defs><rect x="-144" width="1728" fill="#ffffff" y="-143.999994" height="1727.999922" fill-opacity="1"/><rect x="-144" width="1728" fill="#ffffff" y="-143.999994" height="1727.999922" fill-opacity="1"/><rect x="-144" width="1728" fill="#fef536" y="-143.999994" height="1727.999922" fill-opacity="1"/><g clip-path="url(#2b67c0b592)"><path fill="#000000" d="M 648.40625 536.417969 C 656.347656 532.632812 664.84375 530.074219 673.480469 528.433594 C 677.128906 540.398438 680.78125 552.359375 684.425781 564.324219 C 658.875 568.976562 634.5625 580.035156 614.117188 596.011719 C 613.667969 588.078125 614.300781 580.039062 616.449219 572.375 C 618.003906 566.765625 620.414062 561.378906 623.71875 556.582031 C 626.605469 552.417969 630.074219 548.65625 633.96875 545.417969 C 638.339844 541.773438 643.289062 538.882812 648.40625 536.417969 " fill-opacity="1" fill-rule="nonzero"/></g><path fill="#000000" d="M 765.179688 573.71875 C 769.210938 561.882812 773.367188 550.089844 777.472656 538.277344 C 784.261719 539.972656 790.957031 542.097656 797.355469 544.945312 C 802.816406 547.378906 808.050781 550.359375 812.796875 554.003906 C 817.160156 557.34375 821.074219 561.289062 824.289062 565.75 C 827.617188 570.347656 830.152344 575.515625 831.796875 580.945312 C 834.492188 589.722656 834.933594 599.027344 834.253906 608.128906 C 824.878906 600.300781 814.707031 593.40625 803.851562 587.804688 C 791.625 581.503906 778.601562 576.738281 765.179688 573.71875 " fill-opacity="1" fill-rule="nonzero"/><path fill="#000000" d="M 781.015625 617.296875 C 774.816406 618.851562 768.972656 621.636719 763.6875 625.199219 C 758.90625 628.414062 754.554688 632.25 750.621094 636.449219 C 746.175781 641.175781 742.21875 646.378906 738.988281 652.007812 C 736.070312 657.070312 733.628906 662.414062 731.832031 667.972656 C 733.03125 673.558594 734.074219 679.183594 734.695312 684.867188 C 736.570312 701.445312 735.613281 718.410156 731.265625 734.542969 C 735.273438 745.148438 741.046875 755.242188 749.085938 763.316406 C 753.261719 767.554688 758.097656 771.171875 763.449219 773.789062 C 769.894531 776.953125 776.976562 778.804688 784.144531 779.210938 C 791.757812 779.699219 799.464844 778.359375 806.511719 775.449219 C 811.9375 773.257812 816.894531 770.066406 821.503906 766.496094 C 825.183594 763.675781 828.40625 760.332031 831.527344 756.925781 C 838.964844 748.660156 844.632812 738.867188 848.402344 728.421875 C 850.414062 722.898438 851.8125 717.175781 852.863281 711.398438 C 854.203125 703.972656 854.824219 696.410156 854.59375 688.863281 C 854.242188 674.796875 850.703125 660.746094 843.871094 648.410156 C 840.898438 643.109375 837.484375 638.019531 833.347656 633.554688 C 831.628906 631.671875 829.714844 629.988281 827.832031 628.273438 C 821 622.332031 812.53125 618.308594 803.625 616.6875 C 796.15625 615.324219 788.382812 615.40625 781.015625 617.296875 Z M 649.898438 602.242188 C 641.914062 602.988281 634.085938 605.570312 627.3125 609.878906 C 621.957031 613.234375 617.199219 617.492188 613.066406 622.253906 C 605.117188 631.546875 598.964844 642.382812 595.15625 654.007812 C 590.839844 667.050781 589.277344 680.910156 589.808594 694.613281 C 590.199219 710.019531 593.242188 725.429688 599.433594 739.582031 C 604.675781 751.582031 612.167969 762.636719 621.609375 771.734375 C 626.007812 775.988281 630.976562 779.667969 636.382812 782.546875 C 648.339844 789.011719 662.773438 790.875 675.9375 787.382812 C 682.429688 785.683594 688.605469 782.757812 693.976562 778.734375 C 698.695312 775.171875 703.019531 771.0625 706.667969 766.40625 C 708.472656 764 710.328125 761.628906 711.960938 759.101562 C 715.648438 753.449219 718.683594 747.386719 721.128906 741.101562 C 726.574219 726.910156 728.460938 711.546875 727.992188 696.417969 C 727.738281 687.875 726.660156 679.351562 724.714844 671.027344 C 723.1875 664.527344 721.167969 658.128906 718.503906 652 C 713.339844 640.089844 705.96875 629.113281 696.753906 619.953125 C 694.769531 617.953125 692.539062 616.21875 690.390625 614.398438 C 684.910156 610.136719 678.75 606.667969 672.105469 604.585938 C 664.960938 602.324219 657.359375 601.523438 649.898438 602.242188 Z M 638.75 596.476562 C 645.890625 594.433594 653.402344 594.140625 660.777344 594.585938 C 671.933594 595.375 682.695312 599.601562 691.835938 605.964844 C 696.636719 609.292969 700.941406 613.285156 704.933594 617.535156 C 715.5 628.863281 723.496094 642.492188 728.644531 657.078125 C 733.695312 645.933594 740.996094 635.808594 750.03125 627.554688 C 754.257812 623.65625 758.816406 620.082031 763.816406 617.222656 C 769.785156 613.777344 776.316406 611.25 783.105469 610.03125 C 790.121094 608.839844 797.339844 608.925781 804.355469 610.085938 C 810.914062 611.195312 817.316406 613.339844 823.132812 616.578125 C 832.914062 622.082031 840.839844 630.453125 846.855469 639.847656 C 850.59375 645.710938 853.742188 651.964844 856.09375 658.507812 C 860.894531 671.800781 862.480469 686.144531 861.394531 700.199219 C 860.398438 712.636719 857.679688 725.007812 852.671875 736.464844 C 850.210938 742.089844 847.207031 747.480469 843.710938 752.527344 C 840.722656 756.738281 837.398438 760.710938 833.792969 764.40625 C 826.488281 771.894531 817.828125 778.234375 808.027344 782.03125 C 800.792969 784.847656 792.988281 786.175781 785.230469 785.902344 C 778.546875 785.632812 771.867188 784.457031 765.59375 782.097656 C 759.996094 780.007812 754.703125 777.085938 749.988281 773.410156 C 745.519531 769.925781 741.574219 765.804688 738.097656 761.339844 C 734.089844 756.164062 730.738281 750.503906 727.886719 744.625 C 723.285156 755.972656 716.949219 766.707031 708.617188 775.730469 C 704.371094 780.351562 699.5625 784.480469 694.234375 787.816406 C 683.238281 794.734375 669.910156 797.648438 657.003906 796.507812 C 649.996094 795.902344 643.082031 794.140625 636.664062 791.253906 C 631.441406 788.902344 626.542969 785.84375 622.089844 782.242188 C 612.972656 774.796875 605.324219 765.636719 599.234375 755.585938 C 592.617188 744.714844 587.964844 732.691406 585.253906 720.273438 C 583.160156 710.550781 582.246094 700.597656 582.132812 690.660156 C 582.035156 676.761719 583.953125 662.777344 588.582031 649.644531 C 590.789062 643.371094 593.582031 637.300781 597.023438 631.613281 C 600.410156 626.023438 604.214844 620.667969 608.601562 615.8125 C 612.308594 611.707031 616.433594 607.957031 621.003906 604.824219 C 626.417969 601.109375 632.417969 598.234375 638.75 596.476562 " fill-opacity="1" fill-rule="nonzero"/><path fill="#000000" d="M 747.308594 698.351562 C 746.410156 698.722656 745.835938 699.625 745.542969 700.519531 C 744.851562 702.574219 745.167969 705.171875 746.921875 706.609375 C 747.792969 707.191406 749.070312 706.882812 749.667969 706.046875 C 750.835938 704.472656 751.054688 702.308594 750.414062 700.472656 C 750.039062 699.183594 748.777344 697.800781 747.308594 698.351562 Z M 748.023438 679.066406 C 746.300781 679.449219 745.203125 681.042969 744.585938 682.585938 C 743.511719 685.433594 743.5625 688.753906 744.960938 691.484375 C 745.476562 692.46875 746.210938 693.378906 747.195312 693.925781 C 748.300781 694.527344 749.753906 694.421875 750.765625 693.664062 C 751.894531 692.832031 752.644531 691.566406 753.101562 690.257812 C 753.945312 687.746094 753.898438 684.933594 752.894531 682.480469 C 752.441406 681.351562 751.761719 680.265625 750.730469 679.585938 C 749.949219 679.046875 748.945312 678.839844 748.023438 679.066406 Z M 751.457031 669.726562 C 754.46875 669.136719 757.757812 669.695312 760.269531 671.511719 C 763.027344 673.441406 765.027344 676.25 766.542969 679.214844 C 769.46875 684.992188 770.238281 691.636719 769.761719 698.03125 C 769.277344 704.128906 767.246094 710.253906 763.253906 714.96875 C 760.976562 717.660156 757.679688 719.699219 754.070312 719.742188 C 750.851562 719.871094 747.742188 718.402344 745.472656 716.175781 C 743.535156 714.242188 742 711.925781 740.808594 709.464844 C 738.0625 703.757812 737.414062 697.261719 737.898438 691.007812 C 738.328125 685.050781 740.332031 679.09375 744.160156 674.445312 C 746.027344 672.183594 748.507812 670.265625 751.457031 669.726562 " fill-opacity="1" fill-rule="nonzero"/><path fill="#000000" d="M 672.5625 703.375 C 671.839844 703.652344 671.308594 704.277344 670.945312 704.941406 C 669.972656 706.933594 669.960938 709.402344 671.027344 711.355469 C 671.480469 712.148438 672.242188 712.882812 673.199219 712.921875 C 674.179688 713.003906 675.003906 712.285156 675.511719 711.515625 C 676.539062 709.722656 676.648438 707.46875 675.929688 705.550781 C 675.65625 704.824219 675.234375 704.125 674.601562 703.664062 C 674.023438 703.238281 673.234375 703.136719 672.5625 703.375 Z M 673.089844 681.414062 C 671.898438 681.726562 671.019531 682.675781 670.359375 683.667969 C 669.15625 685.515625 668.707031 687.761719 668.714844 689.941406 C 668.734375 692.667969 669.558594 695.570312 671.660156 697.433594 C 672.941406 698.59375 675.03125 698.6875 676.410156 697.648438 C 677.507812 696.785156 678.300781 695.582031 678.828125 694.300781 C 679.816406 691.78125 679.902344 688.921875 679.179688 686.320312 C 678.703125 684.757812 677.917969 683.226562 676.65625 682.164062 C 675.6875 681.335938 674.308594 681.054688 673.089844 681.414062 Z M 677.972656 672.050781 C 681.042969 671.589844 684.320312 672.132812 686.929688 673.867188 C 689.738281 675.722656 691.855469 678.4375 693.515625 681.328125 C 696.679688 686.875 697.949219 693.320312 697.988281 699.65625 C 698 706.070312 696.765625 712.613281 693.605469 718.25 C 692.058594 720.957031 690.136719 723.523438 687.59375 725.371094 C 685.128906 727.203125 682.007812 728.132812 678.941406 727.820312 C 675.710938 727.566406 672.75 725.867188 670.511719 723.585938 C 666.917969 719.855469 664.597656 715.042969 663.355469 710.054688 C 662.21875 705.484375 662 700.726562 662.332031 696.042969 C 662.808594 689.816406 664.742188 683.605469 668.472656 678.542969 C 670.757812 675.394531 674.011719 672.632812 677.972656 672.050781 " fill-opacity="1" fill-rule="nonzero"/><g clip-path="url(#e0244ead32)"><path fill="#000000" d="M 884.996094 757.007812 C 891.269531 756.675781 897.558594 758.25 903.128906 761.097656 C 914.308594 766.867188 923.402344 776.660156 928.105469 788.34375 C 930.65625 794.773438 932.246094 801.585938 932.765625 808.484375 C 927.527344 798.191406 921.410156 788.132812 913.023438 780.078125 C 906.378906 791.316406 899.027344 802.175781 890.492188 812.078125 C 881.921875 822.140625 872.34375 831.347656 861.9375 839.5 C 850.230469 848.683594 837.527344 856.578125 824.171875 863.136719 C 806.734375 871.71875 788.15625 878 769.085938 881.773438 C 742.765625 886.949219 715.589844 887.628906 689.015625 884.003906 C 675.953125 882.207031 663.007812 879.445312 650.4375 875.445312 C 624.207031 867.121094 599.34375 854.273438 577.769531 837.152344 C 558.757812 822.085938 542.53125 803.542969 530.050781 782.753906 C 521.414062 790.710938 514.167969 800.039062 507.5625 809.710938 C 510.007812 797.59375 515.445312 786.050781 523.453125 776.613281 C 525.195312 774.523438 527.144531 772.617188 529.128906 770.761719 C 533.609375 766.613281 538.625 762.945312 544.253906 760.507812 C 548.460938 758.667969 553.058594 757.757812 557.648438 757.789062 C 557.488281 761.554688 557.339844 765.328125 557.167969 769.097656 C 550.011719 769.394531 543.328125 772.589844 537.5625 776.65625 C 550.910156 799.304688 568.910156 819.203125 590.160156 834.6875 C 600.507812 842.21875 611.546875 848.789062 623.066406 854.363281 C 634.675781 859.976562 646.746094 864.65625 659.164062 868.15625 C 686.160156 875.800781 714.554688 878.242188 742.5 875.945312 C 749.21875 875.375 755.902344 874.4375 762.550781 873.296875 C 772.730469 871.601562 782.726562 868.941406 792.546875 865.789062 C 797.3125 864.234375 802.007812 862.492188 806.632812 860.566406 C 811.21875 858.679688 815.765625 856.703125 820.21875 854.53125 C 824.296875 852.566406 828.253906 850.355469 832.171875 848.097656 C 848.082031 839.015625 862.710938 827.675781 875.445312 814.503906 C 887.15625 802.445312 897.058594 788.714844 905.445312 774.171875 C 899.71875 770.457031 892.933594 768.242188 886.074219 768.363281 C 885.71875 764.574219 885.347656 760.792969 884.996094 757.007812 " fill-opacity="1" fill-rule="nonzero"/></g><g clip-path="url(#7ffd778043)"><path fill="#000000" d="M 726.152344 904.945312 C 738.136719 904.734375 750.054688 902.5 761.375 898.585938 C 756.925781 902.449219 751.859375 905.628906 746.375 907.8125 C 741.308594 909.835938 735.921875 911 730.496094 911.445312 C 724.734375 911.949219 718.914062 911.636719 713.226562 910.601562 C 708.085938 909.660156 703.0625 908.023438 698.421875 905.601562 C 695.082031 903.859375 691.957031 901.71875 689.085938 899.28125 C 701.003906 903.246094 713.59375 905.175781 726.152344 904.945312 " fill-opacity="1" fill-rule="nonzero"/></g><path fill="#ffffff" d="M 677.972656 672.050781 C 674.011719 672.632812 670.757812 675.394531 668.476562 678.542969 C 664.742188 683.605469 662.808594 689.816406 662.332031 696.042969 C 662 700.726562 662.21875 705.484375 663.355469 710.054688 C 664.597656 715.046875 666.917969 719.859375 670.511719 723.585938 C 672.75 725.867188 675.710938 727.570312 678.941406 727.820312 C 682.007812 728.132812 685.128906 727.203125 687.59375 725.371094 C 690.136719 723.523438 692.058594 720.957031 693.605469 718.25 C 696.765625 712.613281 698 706.066406 697.988281 699.65625 C 697.949219 693.320312 696.679688 686.875 693.515625 681.328125 C 691.855469 678.4375 689.738281 675.722656 686.929688 673.867188 C 684.320312 672.132812 681.042969 671.589844 677.972656 672.050781 Z M 649.898438 602.242188 C 657.359375 601.523438 664.960938 602.324219 672.105469 604.585938 C 678.75 606.667969 684.910156 610.136719 690.390625 614.398438 C 692.539062 616.21875 694.769531 617.953125 696.753906 619.957031 C 705.96875 629.113281 713.339844 640.089844 718.503906 652 C 721.167969 658.128906 723.1875 664.527344 724.714844 671.027344 C 726.660156 679.351562 727.738281 687.875 727.992188 696.417969 C 728.460938 711.546875 726.574219 726.910156 721.128906 741.101562 C 718.683594 747.386719 715.644531 753.449219 711.960938 759.101562 C 710.328125 761.628906 708.472656 764 706.667969 766.40625 C 703.019531 771.0625 698.695312 775.171875 693.976562 778.734375 C 688.605469 782.757812 682.429688 785.683594 675.9375 787.382812 C 662.773438 790.875 648.339844 789.011719 636.382812 782.546875 C 630.976562 779.667969 626.007812 775.988281 621.605469 771.734375 C 612.167969 762.636719 604.675781 751.582031 599.433594 739.582031 C 593.242188 725.429688 590.199219 710.019531 589.808594 694.613281 C 589.277344 680.910156 590.839844 667.054688 595.15625 654.003906 C 598.964844 642.386719 605.117188 631.546875 613.066406 622.253906 C 617.199219 617.492188 621.957031 613.234375 627.3125 609.878906 C 634.085938 605.570312 641.914062 602.988281 649.898438 602.242188 " fill-opacity="1" fill-rule="nonzero"/><path fill="#ffffff" d="M 751.453125 669.722656 C 748.507812 670.265625 746.027344 672.183594 744.15625 674.445312 C 740.332031 679.09375 738.328125 685.050781 737.898438 691.007812 C 737.414062 697.261719 738.0625 703.757812 740.8125 709.464844 C 742 711.925781 743.535156 714.242188 745.472656 716.175781 C 747.742188 718.402344 750.855469 719.871094 754.070312 719.742188 C 757.679688 719.699219 760.976562 717.660156 763.253906 714.96875 C 767.246094 710.253906 769.28125 704.128906 769.761719 698.03125 C 770.238281 691.640625 769.46875 684.992188 766.539062 679.214844 C 765.027344 676.25 763.027344 673.441406 760.269531 671.511719 C 757.757812 669.695312 754.46875 669.136719 751.453125 669.722656 Z M 781.011719 617.292969 C 788.382812 615.410156 796.15625 615.324219 803.625 616.6875 C 812.53125 618.308594 821 622.332031 827.832031 628.273438 C 829.714844 629.988281 831.628906 631.671875 833.347656 633.554688 C 837.484375 638.019531 840.898438 643.109375 843.867188 648.410156 C 850.699219 660.746094 854.242188 674.792969 854.59375 688.863281 C 854.824219 696.410156 854.199219 703.972656 852.863281 711.398438 C 851.808594 717.175781 850.414062 722.898438 848.402344 728.421875 C 844.636719 738.867188 838.964844 748.664062 831.527344 756.925781 C 828.40625 760.332031 825.183594 763.679688 821.503906 766.496094 C 816.894531 770.066406 811.933594 773.257812 806.511719 775.449219 C 799.460938 778.359375 791.761719 779.699219 784.140625 779.214844 C 776.976562 778.804688 769.894531 776.953125 763.449219 773.789062 C 758.097656 771.171875 753.261719 767.554688 749.085938 763.316406 C 741.046875 755.242188 735.273438 745.148438 731.265625 734.542969 C 735.613281 718.410156 736.566406 701.445312 734.691406 684.867188 C 734.074219 679.183594 733.03125 673.558594 731.832031 667.972656 C 733.628906 662.414062 736.074219 657.070312 738.988281 652.007812 C 742.21875 646.378906 746.171875 641.175781 750.621094 636.449219 C 754.554688 632.25 758.90625 628.414062 763.683594 625.199219 C 768.972656 621.636719 774.816406 618.851562 781.011719 617.292969 " fill-opacity="1" fill-rule="nonzero"/><path fill="#ffffff" d="M 748.023438 679.066406 C 748.945312 678.839844 749.949219 679.046875 750.730469 679.585938 C 751.761719 680.265625 752.441406 681.351562 752.894531 682.480469 C 753.898438 684.933594 753.945312 687.746094 753.101562 690.253906 C 752.644531 691.5625 751.898438 692.832031 750.765625 693.664062 C 749.753906 694.417969 748.300781 694.527344 747.195312 693.925781 C 746.210938 693.378906 745.480469 692.46875 744.960938 691.484375 C 743.566406 688.753906 743.511719 685.429688 744.589844 682.589844 C 745.203125 681.042969 746.300781 679.449219 748.023438 679.066406 " fill-opacity="1" fill-rule="nonzero"/><path fill="#ffffff" d="M 673.089844 681.414062 C 674.308594 681.054688 675.6875 681.335938 676.65625 682.164062 C 677.917969 683.230469 678.703125 684.757812 679.175781 686.320312 C 679.898438 688.921875 679.816406 691.78125 678.828125 694.304688 C 678.296875 695.582031 677.507812 696.785156 676.410156 697.648438 C 675.03125 698.6875 672.941406 698.59375 671.660156 697.433594 C 669.558594 695.570312 668.734375 692.667969 668.714844 689.941406 C 668.707031 687.761719 669.15625 685.515625 670.359375 683.667969 C 671.019531 682.675781 671.898438 681.726562 673.089844 681.414062 " fill-opacity="1" fill-rule="nonzero"/><path fill="#ffffff" d="M 747.3125 698.351562 C 748.777344 697.796875 750.039062 699.183594 750.414062 700.472656 C 751.054688 702.304688 750.835938 704.46875 749.667969 706.046875 C 749.070312 706.878906 747.792969 707.191406 746.921875 706.609375 C 745.167969 705.171875 744.851562 702.574219 745.546875 700.519531 C 745.835938 699.625 746.410156 698.71875 747.3125 698.351562 " fill-opacity="1" fill-rule="nonzero"/><path fill="#ffffff" d="M 672.5625 703.375 C 673.234375 703.136719 674.023438 703.238281 674.601562 703.664062 C 675.238281 704.125 675.65625 704.820312 675.929688 705.550781 C 676.648438 707.46875 676.539062 709.722656 675.511719 711.511719 C 675.003906 712.285156 674.179688 713.003906 673.199219 712.921875 C 672.238281 712.882812 671.480469 712.148438 671.027344 711.355469 C 669.960938 709.398438 669.976562 706.933594 670.949219 704.941406 C 671.308594 704.277344 671.839844 703.652344 672.5625 703.375 " fill-opacity="1" fill-rule="nonzero"/></svg>