<svg xmlns="http://www.w3.org/2000/svg" xmlns:xlink="http://www.w3.org/1999/xlink" width="1920" zoomAndPan="magnify" viewBox="0 0 1440 1439.999935" height="1920" preserveAspectRatio="xMidYMid meet" version="1.0"><defs><clipPath id="83bc928cd9"><path d="M 612 546.324219 L 713 546.324219 L 713 581 L 612 581 Z M 612 546.324219 " clip-rule="nonzero"/></clipPath><clipPath id="0f89cd535e"><path d="M 536.582031 707.679688 L 903.246094 707.679688 L 903.246094 874.550781 L 536.582031 874.550781 Z M 536.582031 707.679688 " clip-rule="nonzero"/></clipPath><clipPath id="791002f23c"><path d="M 691.308594 877.84375 L 744.65625 877.84375 L 744.65625 893.566406 L 691.308594 893.566406 Z M 691.308594 877.84375 " clip-rule="nonzero"/></clipPath></defs><rect x="-144" width="1728" fill="#ffffff" y="-143.999994" height="1727.999922" fill-opacity="1"/><rect x="-144" width="1728" fill="#ffffff" y="-143.999994" height="1727.999922" fill-opacity="1"/><rect x="-144" width="1728" fill="#5ce1e6" y="-143.999994" height="1727.999922" fill-opacity="1"/><g clip-path="url(#83bc928cd9)"><path fill="#000000" d="M 656.296875 547.910156 C 663.8125 546.320312 671.722656 546.527344 679.109375 548.648438 C 685.28125 550.390625 691.085938 553.269531 696.441406 556.773438 C 700.894531 559.667969 705.011719 563.042969 708.980469 566.570312 C 710.171875 567.648438 711.332031 568.765625 712.425781 569.945312 C 698.9375 565.25 684.765625 562.117188 670.433594 562.078125 C 666.082031 562.039062 661.722656 562.207031 657.402344 562.726562 C 649.828125 563.695312 642.355469 565.515625 635.214844 568.226562 C 626.980469 571.34375 619.253906 575.695312 612.09375 580.796875 C 615.40625 576.183594 619.246094 571.972656 623.207031 567.910156 C 628.257812 562.835938 633.816406 558.21875 639.984375 554.558594 C 645.054688 551.570312 650.515625 549.125 656.296875 547.910156 " fill-opacity="1" fill-rule="nonzero"/></g><path fill="#000000" d="M 648.179688 591.203125 C 645.152344 592.117188 642.230469 593.390625 639.539062 595.046875 C 634.332031 598.230469 629.925781 602.566406 626.097656 607.28125 C 618.082031 617.183594 612.503906 628.785156 607.886719 640.585938 C 605.300781 647.414062 603.886719 654.628906 603.105469 661.871094 C 602.121094 670.773438 602.066406 679.847656 603.738281 688.675781 C 604.769531 694.742188 606.703125 700.648438 609.410156 706.175781 C 611.839844 706.246094 614.261719 706.460938 616.695312 706.476562 C 617.066406 706.484375 617.425781 706.582031 617.796875 706.632812 C 621.585938 706.890625 625.367188 707.265625 629.136719 707.742188 C 638.238281 708.902344 647.296875 710.523438 656.136719 713.007812 C 662.882812 714.890625 669.5 717.25 675.863281 720.1875 C 678.554688 717.96875 680.949219 715.417969 683.195312 712.753906 C 692.128906 702.265625 698.503906 689.625 701.695312 676.226562 C 703.765625 667.761719 704.769531 659.035156 704.601562 650.320312 C 704.46875 643.859375 703.773438 637.378906 702.085938 631.125 C 699.21875 620.351562 693.675781 610.164062 685.546875 602.457031 C 680.601562 597.742188 674.804688 593.726562 668.222656 591.695312 C 665.253906 590.8125 662.1875 590.226562 659.085938 590.105469 C 655.425781 589.96875 651.710938 590.1875 648.179688 591.203125 Z M 641.65625 589.742188 C 647.984375 586.027344 655.65625 584.839844 662.859375 586.089844 C 668.589844 587.011719 673.898438 589.609375 678.730469 592.742188 C 681.144531 594.316406 683.488281 596.011719 685.691406 597.867188 C 687.238281 599.167969 688.484375 600.773438 689.910156 602.199219 C 697.90625 610.363281 703.445312 620.765625 706.457031 631.746094 C 707.242188 634.96875 707.511719 638.28125 707.9375 641.566406 C 708.851562 650.1875 709.699219 658.878906 708.976562 667.550781 C 708.667969 671.066406 708.160156 674.578125 707.175781 677.972656 C 706.121094 681.875 705.140625 685.800781 703.820312 689.625 C 701.71875 695.570312 699.273438 701.425781 696.070312 706.867188 C 692.339844 713.292969 687.652344 719.101562 682.824219 724.722656 C 686.464844 727.378906 690.050781 730.179688 693.03125 733.589844 C 680.441406 728.003906 667.5625 723.011719 654.292969 719.289062 C 646.308594 717.089844 638.234375 715.179688 630.054688 713.894531 C 624.453125 712.996094 618.804688 712.453125 613.152344 711.984375 C 609.246094 711.644531 605.324219 711.832031 601.410156 711.78125 C 597.691406 711.777344 593.957031 711.710938 590.25 712.089844 C 587.695312 712.316406 585.144531 712.605469 582.582031 712.695312 C 589.074219 709.589844 596.050781 707.628906 603.101562 706.269531 C 602.308594 702.511719 601.542969 698.75 600.949219 694.953125 C 599.796875 687.277344 599.238281 679.496094 599.546875 671.730469 C 599.820312 664.742188 600.679688 657.777344 602.179688 650.949219 C 603.035156 647.132812 604.125 643.367188 605.5 639.707031 C 606.378906 637.359375 607.410156 635.070312 608.441406 632.789062 C 611.074219 627.023438 614 621.390625 617.300781 615.976562 C 620.589844 610.589844 624.230469 605.398438 628.4375 600.6875 C 632.265625 596.414062 636.636719 592.558594 641.65625 589.742188 " fill-opacity="1" fill-rule="nonzero"/><path fill="#000000" d="M 761.078125 596.78125 C 764.714844 598.160156 768.285156 599.703125 771.894531 601.15625 C 784.402344 606.160156 797.21875 610.402344 810.261719 613.78125 C 818.023438 615.757812 825.894531 617.261719 833.804688 618.492188 C 841.519531 619.738281 849.316406 620.425781 857.121094 620.835938 C 853.730469 622.289062 850.175781 623.285156 846.636719 624.296875 C 842.996094 625.359375 839.289062 626.210938 835.546875 626.839844 C 832.316406 627.359375 829.0625 627.808594 825.785156 627.886719 C 821.070312 628.050781 816.328125 627.980469 811.652344 627.300781 C 799.585938 625.582031 788.070312 620.605469 778.328125 613.320312 C 771.917969 608.554688 766.179688 602.921875 761.078125 596.78125 " fill-opacity="1" fill-rule="nonzero"/><path fill="#000000" d="M 805.328125 644.667969 C 807.753906 644.402344 810.207031 644.316406 812.644531 644.542969 C 808.882812 645.703125 805.082031 646.734375 801.375 648.066406 C 798.65625 649.03125 796.019531 650.21875 793.417969 651.449219 C 790.335938 652.925781 787.332031 654.574219 784.480469 656.453125 C 779.175781 659.710938 774.195312 663.46875 769.394531 667.425781 C 766.605469 669.59375 764.054688 672.054688 761.199219 674.140625 C 767.21875 664.210938 776.148438 656.238281 786.230469 650.578125 C 789.398438 648.839844 792.785156 647.53125 796.234375 646.480469 C 799.183594 645.519531 802.257812 645.042969 805.328125 644.667969 " fill-opacity="1" fill-rule="nonzero"/><path fill="#000000" d="M 658.238281 678.730469 C 656.820312 679.09375 656.046875 680.476562 655.523438 681.730469 C 654.828125 683.464844 654.832031 685.585938 655.960938 687.140625 C 656.507812 687.957031 657.617188 688.195312 658.527344 687.941406 C 659.523438 687.695312 660.230469 686.871094 660.785156 686.054688 C 662.03125 684.148438 662.277344 681.457031 660.933594 679.535156 C 660.367188 678.667969 659.183594 678.425781 658.238281 678.730469 Z M 663.609375 657.628906 C 661.554688 658.261719 660.074219 660.03125 659.144531 661.90625 C 657.824219 664.542969 657.351562 667.699219 658.265625 670.542969 C 658.757812 671.878906 659.542969 673.238281 660.878906 673.875 C 662.316406 674.589844 664.097656 674.289062 665.375 673.375 C 668.8125 670.980469 670.308594 666.441406 669.625 662.394531 C 669.40625 660.984375 668.796875 659.597656 667.75 658.609375 C 666.667969 657.582031 665.035156 657.226562 663.609375 657.628906 Z M 667.730469 647.859375 C 673.003906 646.960938 678.6875 649.34375 681.660156 653.804688 C 683.738281 656.738281 684.960938 660.195312 685.636719 663.703125 C 686.816406 669.914062 686.160156 676.390625 684.238281 682.382812 C 682.265625 688.40625 678.917969 694.105469 674.015625 698.199219 C 671.59375 700.179688 668.808594 701.855469 665.710938 702.472656 C 661.898438 703.1875 657.796875 702.253906 654.707031 699.902344 C 652.585938 698.273438 650.980469 696.050781 649.820312 693.660156 C 646.925781 687.734375 646.359375 680.886719 647.414062 674.429688 C 648.414062 668.441406 650.496094 662.542969 654.066406 657.589844 C 655.894531 655.050781 658.109375 652.785156 660.65625 650.964844 C 662.765625 649.457031 665.164062 648.289062 667.730469 647.859375 " fill-opacity="1" fill-rule="nonzero"/><path fill="#000000" d="M 812.238281 654.738281 C 816.238281 654.34375 820.277344 653.832031 824.300781 654.253906 C 827.867188 654.648438 831.492188 654.800781 834.945312 655.859375 C 837.195312 656.570312 839.558594 656.976562 841.675781 658.066406 C 844.910156 659.726562 848.4375 660.960938 851.210938 663.386719 C 846.59375 662.835938 841.984375 662.070312 837.324219 662.050781 C 833.171875 662.082031 829.003906 661.820312 824.871094 662.335938 C 817.3125 663.199219 809.820312 664.703125 802.542969 666.917969 C 799.488281 667.816406 796.4375 668.742188 793.402344 669.710938 C 786.339844 672.058594 779.488281 674.96875 772.554688 677.664062 C 768.199219 679.371094 763.835938 681.070312 759.5 682.832031 C 758.644531 683.183594 757.761719 683.460938 756.875 683.730469 C 760.824219 679.332031 765.363281 675.488281 770.261719 672.199219 C 772.679688 670.523438 774.988281 668.683594 777.546875 667.21875 C 782.941406 663.96875 788.578125 661.03125 794.617188 659.167969 C 797.96875 658.023438 801.269531 656.683594 804.757812 656.023438 C 807.242188 655.546875 809.71875 654.984375 812.238281 654.738281 " fill-opacity="1" fill-rule="nonzero"/><path fill="#000000" d="M 815.742188 672.472656 C 819.570312 672.027344 823.433594 672.101562 827.277344 672.21875 C 829.636719 672.304688 831.953125 672.792969 834.257812 673.257812 C 835.613281 673.539062 836.988281 673.738281 838.328125 674.09375 C 841.589844 674.929688 844.707031 676.265625 847.617188 677.953125 C 842.9375 677.527344 838.296875 676.691406 833.601562 676.40625 C 829.203125 676.101562 824.796875 676.417969 820.390625 676.347656 C 816.523438 676.277344 812.671875 676.71875 808.816406 676.976562 C 806.039062 677.175781 803.261719 677.367188 800.488281 677.578125 C 798.074219 677.746094 795.664062 678.0625 793.242188 677.902344 C 796.140625 676.597656 799.222656 675.796875 802.234375 674.824219 C 806.621094 673.488281 811.195312 672.921875 815.742188 672.472656 " fill-opacity="1" fill-rule="nonzero"/><g clip-path="url(#0f89cd535e)"><path fill="#000000" d="M 873.011719 708.570312 C 879.875 706.683594 887.578125 707.890625 893.410156 712.011719 C 898.710938 715.753906 902.359375 721.746094 903.246094 728.179688 C 896.917969 723.929688 890.644531 719.46875 883.585938 716.496094 C 883.894531 721.058594 883.667969 725.636719 883.191406 730.179688 C 882.890625 733.722656 882.621094 737.273438 881.960938 740.773438 C 879.789062 753.542969 876.207031 766.097656 870.964844 777.953125 C 862.21875 797.824219 849.246094 815.804688 833.226562 830.449219 C 816.851562 845.402344 797.421875 856.984375 776.515625 864.371094 C 763.175781 869.082031 749.265625 872.179688 735.1875 873.582031 C 731.59375 873.976562 727.976562 874.082031 724.382812 874.433594 C 721.351562 874.628906 718.316406 874.507812 715.289062 874.539062 C 713.179688 874.570312 711.066406 874.523438 708.976562 874.234375 C 694.667969 873.375 680.4375 870.953125 666.726562 866.761719 C 643.15625 859.605469 621.175781 847.191406 602.960938 830.59375 C 585.769531 814.976562 572.117188 795.480469 563.378906 773.957031 C 560.753906 767.5 558.5625 760.871094 556.835938 754.121094 C 554.660156 745.699219 553.316406 737.085938 552.527344 728.429688 C 546.871094 731.160156 541.828125 734.941406 536.582031 738.347656 C 536.789062 735.644531 537.878906 733.117188 539.050781 730.707031 C 541.804688 725.25 546.800781 720.945312 552.640625 719.113281 C 559.355469 716.976562 566.957031 717.78125 573.058594 721.3125 C 575.996094 723.007812 578.53125 725.367188 580.523438 728.105469 C 573.695312 727.363281 566.90625 726.21875 560.039062 725.902344 C 560.425781 728.367188 560.441406 730.863281 560.730469 733.339844 C 561.457031 738.710938 562.367188 744.0625 563.519531 749.359375 C 564.167969 752.46875 565.121094 755.503906 565.996094 758.550781 C 567.152344 762.414062 568.4375 766.238281 570.003906 769.957031 C 572.164062 775.726562 574.941406 781.242188 577.867188 786.664062 C 583.25 796.582031 589.878906 805.796875 597.363281 814.238281 C 605.730469 823.652344 615.242188 832.046875 625.628906 839.171875 C 646.253906 853.339844 670.195312 862.621094 694.96875 866.109375 C 699.472656 866.773438 704.019531 867.074219 708.558594 867.363281 C 717.050781 868.09375 725.582031 867.65625 734.0625 866.972656 C 747.746094 865.800781 761.261719 862.753906 774.191406 858.136719 C 795.101562 850.648438 814.515625 838.878906 830.597656 823.53125 C 838.25 816.246094 845.09375 808.132812 851.253906 799.554688 C 857.867188 790.246094 863.832031 780.417969 868.320312 769.898438 C 874.386719 755.828125 878.257812 740.800781 879.652344 725.539062 C 879.996094 722.304688 879.820312 719.039062 880.148438 715.800781 C 877.527344 715.945312 874.882812 715.832031 872.277344 716.25 C 867.984375 716.921875 863.671875 717.449219 859.347656 717.875 C 862.613281 713.285156 867.574219 709.984375 873.011719 708.570312 " fill-opacity="1" fill-rule="nonzero"/></g><g clip-path="url(#791002f23c)"><path fill="#000000" d="M 691.378906 877.945312 C 693.332031 878.65625 695.15625 879.660156 697.042969 880.519531 C 706.535156 884.714844 717.300781 886.285156 727.53125 884.289062 C 730.769531 883.613281 733.835938 882.332031 736.890625 881.101562 C 739.453125 880.015625 741.921875 878.675781 744.625 877.957031 C 743.703125 880.535156 741.84375 882.609375 739.984375 884.558594 C 735.417969 889.132812 729.355469 892.246094 722.933594 893.082031 C 721.367188 893.210938 719.828125 893.59375 718.253906 893.5625 C 717.070312 893.589844 715.910156 893.382812 714.746094 893.21875 C 706.976562 892.628906 699.59375 888.722656 694.519531 882.839844 C 693.21875 881.394531 692.011719 879.808594 691.378906 877.945312 " fill-opacity="1" fill-rule="nonzero"/></g><path fill="#ffffff" d="M 667.730469 647.859375 C 665.164062 648.289062 662.761719 649.457031 660.65625 650.964844 C 658.109375 652.785156 655.894531 655.050781 654.066406 657.589844 C 650.496094 662.546875 648.414062 668.445312 647.414062 674.433594 C 646.359375 680.886719 646.921875 687.734375 649.820312 693.660156 C 650.980469 696.050781 652.585938 698.273438 654.707031 699.902344 C 657.796875 702.253906 661.898438 703.191406 665.707031 702.476562 C 668.804688 701.855469 671.59375 700.179688 674.015625 698.199219 C 678.917969 694.105469 682.261719 688.40625 684.238281 682.386719 C 686.160156 676.390625 686.816406 669.917969 685.636719 663.707031 C 684.960938 660.199219 683.738281 656.738281 681.660156 653.804688 C 678.6875 649.34375 673.003906 646.964844 667.730469 647.859375 Z M 648.175781 591.203125 C 651.710938 590.1875 655.425781 589.96875 659.082031 590.109375 C 662.1875 590.230469 665.253906 590.816406 668.222656 591.695312 C 674.804688 593.726562 680.597656 597.742188 685.546875 602.457031 C 693.675781 610.167969 699.214844 620.351562 702.085938 631.128906 C 703.773438 637.378906 704.46875 643.859375 704.601562 650.320312 C 704.765625 659.035156 703.761719 667.765625 701.695312 676.226562 C 698.503906 689.625 692.128906 702.269531 683.195312 712.757812 C 680.949219 715.417969 678.554688 717.96875 675.863281 720.1875 C 669.5 717.25 662.878906 714.890625 656.132812 713.007812 C 647.296875 710.523438 638.238281 708.90625 629.136719 707.742188 C 625.367188 707.265625 621.585938 706.894531 617.796875 706.632812 C 617.425781 706.582031 617.066406 706.484375 616.691406 706.476562 C 614.261719 706.460938 611.839844 706.25 609.410156 706.175781 C 606.703125 700.648438 604.769531 694.746094 603.738281 688.675781 C 602.066406 679.851562 602.121094 670.777344 603.105469 661.871094 C 603.886719 654.628906 605.300781 647.414062 607.886719 640.589844 C 612.503906 628.785156 618.082031 617.1875 626.097656 607.285156 C 629.925781 602.566406 634.332031 598.230469 639.539062 595.050781 C 642.230469 593.390625 645.152344 592.117188 648.175781 591.203125 " fill-opacity="1" fill-rule="nonzero"/><path fill="#ffffff" d="M 663.609375 657.628906 C 665.035156 657.226562 666.667969 657.585938 667.746094 658.609375 C 668.796875 659.601562 669.40625 660.988281 669.625 662.398438 C 670.308594 666.441406 668.8125 670.980469 665.375 673.375 C 664.097656 674.289062 662.316406 674.589844 660.878906 673.875 C 659.542969 673.238281 658.757812 671.878906 658.265625 670.542969 C 657.351562 667.699219 657.824219 664.542969 659.144531 661.902344 C 660.074219 660.035156 661.550781 658.261719 663.609375 657.628906 " fill-opacity="1" fill-rule="nonzero"/><path fill="#ffffff" d="M 658.238281 678.730469 C 659.183594 678.429688 660.367188 678.667969 660.933594 679.535156 C 662.277344 681.460938 662.03125 684.148438 660.785156 686.054688 C 660.230469 686.871094 659.523438 687.699219 658.527344 687.945312 C 657.617188 688.195312 656.507812 687.957031 655.960938 687.140625 C 654.832031 685.585938 654.824219 683.464844 655.523438 681.734375 C 656.046875 680.476562 656.816406 679.09375 658.238281 678.730469 " fill-opacity="1" fill-rule="nonzero"/></svg>