<svg xmlns="http://www.w3.org/2000/svg" xmlns:xlink="http://www.w3.org/1999/xlink" width="500" zoomAndPan="magnify" viewBox="0 0 375 374.999991" height="500" preserveAspectRatio="xMidYMid meet" version="1.0"><defs><g/><clipPath id="2f887fb0a4"><path d="M 119 89.84375 L 259 89.84375 L 259 221 L 119 221 Z M 119 89.84375 " clip-rule="nonzero"/></clipPath></defs><rect x="-37.5" width="450" fill="#ffffff" y="-37.499999" height="449.999989" fill-opacity="1"/><rect x="-37.5" width="450" fill="#ffc26f" y="-37.499999" height="449.999989" fill-opacity="1"/><g clip-path="url(#2f887fb0a4)"><path fill="#18202b" d="M 218.0625 174.140625 C 222.378906 179.070312 226.078125 186.121094 227.949219 192.613281 C 228.378906 193.117188 228.738281 193.664062 229.023438 194.261719 C 229.308594 194.859375 229.511719 195.480469 229.632812 196.132812 C 229.753906 196.78125 229.789062 197.433594 229.738281 198.09375 C 229.683594 198.753906 229.550781 199.394531 229.328125 200.015625 C 229.910156 207.894531 227.304688 214.824219 219.667969 218.273438 C 212.28125 221.617188 202.5 219.523438 194.507812 214.761719 C 160.152344 232.308594 130.378906 206.273438 161.894531 175.191406 C 159.867188 174.023438 157.980469 172.65625 156.242188 171.089844 C 153.859375 172.496094 155.339844 174.875 153.75 174.855469 C 153.464844 174.851562 153.238281 174.738281 153.066406 174.507812 C 150.332031 170.851562 150.808594 165.539062 151.273438 162.878906 C 147.855469 164.796875 148.417969 167.722656 146.886719 167.128906 C 146.585938 167.007812 146.40625 166.789062 146.351562 166.472656 C 145.730469 162.863281 146.511719 160.160156 147.3125 158.488281 C 143.117188 159.167969 140.941406 156.824219 140.9375 156.816406 C 140.847656 156.722656 140.78125 156.609375 140.742188 156.484375 C 140.703125 156.355469 140.695312 156.226562 140.714844 156.097656 C 140.734375 155.964844 140.785156 155.84375 140.863281 155.738281 C 140.9375 155.628906 141.035156 155.542969 141.152344 155.480469 C 141.828125 155.09375 142.429688 154.613281 142.953125 154.039062 C 137.457031 154.761719 133.941406 153.195312 132.21875 152.113281 C 132.167969 153.03125 132.175781 153.949219 132.246094 154.867188 C 132.273438 155.222656 132.132812 155.496094 131.820312 155.675781 C 131.507812 155.859375 131.203125 155.851562 130.902344 155.648438 C 125.574219 152.078125 124.789062 145.984375 124.886719 142.1875 C 124.480469 143.058594 124.152344 143.957031 123.894531 144.886719 C 123.859375 145.074219 123.769531 145.234375 123.625 145.363281 C 123.476562 145.492188 123.308594 145.5625 123.117188 145.578125 C 122.921875 145.59375 122.742188 145.550781 122.578125 145.445312 C 122.417969 145.339844 122.300781 145.195312 122.234375 145.015625 C 118.636719 135.261719 121.953125 128.664062 124.210938 125.636719 C 123.175781 126.082031 122.21875 126.65625 121.335938 127.359375 C 121.046875 127.589844 120.738281 127.625 120.40625 127.460938 C 120.074219 127.296875 119.914062 127.03125 119.925781 126.660156 C 120.539062 112.875 130.183594 107.617188 134.164062 106.023438 C 133.140625 105.625 132.078125 105.40625 130.980469 105.371094 C 130.777344 105.363281 130.597656 105.296875 130.445312 105.167969 C 130.289062 105.035156 130.191406 104.871094 130.15625 104.675781 C 130.117188 104.476562 130.144531 104.289062 130.238281 104.109375 C 130.332031 103.933594 130.472656 103.804688 130.660156 103.722656 C 146.792969 96.914062 157.921875 108.042969 160.578125 111.097656 C 163.78125 108.171875 167.441406 106.011719 171.558594 104.625 C 178.339844 102.34375 188.050781 98.882812 189.332031 90.664062 C 189.359375 90.492188 189.433594 90.339844 189.550781 90.210938 C 189.671875 90.085938 189.816406 90 189.988281 89.960938 C 190.160156 89.921875 190.332031 89.933594 190.496094 89.996094 C 190.660156 90.058594 190.792969 90.160156 190.894531 90.304688 C 192.285156 92.476562 193.152344 94.839844 193.496094 97.390625 C 195.664062 95.925781 200.214844 93.808594 205.191406 97.15625 C 205.347656 97.261719 205.457031 97.402344 205.519531 97.574219 C 205.585938 97.75 205.59375 97.929688 205.539062 98.109375 C 205.488281 98.289062 205.390625 98.4375 205.242188 98.550781 C 205.09375 98.664062 204.925781 98.726562 204.738281 98.734375 C 203.703125 98.878906 202.746094 99.230469 201.859375 99.78125 C 200.972656 100.335938 200.238281 101.042969 199.652344 101.90625 C 201.066406 102.003906 203.175781 102.445312 204.757812 104.054688 C 207.382812 104.664062 212.867188 106.640625 217.6875 111.113281 C 220.332031 108.070312 231.46875 96.90625 247.617188 103.722656 C 247.804688 103.804688 247.949219 103.933594 248.042969 104.113281 C 248.140625 104.292969 248.167969 104.480469 248.128906 104.679688 C 248.089844 104.878906 247.992188 105.042969 247.835938 105.175781 C 247.679688 105.304688 247.496094 105.371094 247.292969 105.371094 C 246.195312 105.410156 245.132812 105.625 244.109375 106.027344 C 248.089844 107.617188 257.734375 112.875 258.347656 126.664062 C 258.363281 127.035156 258.203125 127.304688 257.867188 127.46875 C 257.535156 127.632812 257.222656 127.597656 256.933594 127.363281 C 256.054688 126.664062 255.101562 126.089844 254.066406 125.644531 C 256.328125 128.671875 259.640625 135.269531 256.046875 145.023438 C 255.980469 145.203125 255.863281 145.347656 255.699219 145.453125 C 255.539062 145.558594 255.359375 145.601562 255.164062 145.585938 C 254.972656 145.574219 254.800781 145.5 254.65625 145.371094 C 254.511719 145.242188 254.421875 145.082031 254.382812 144.894531 C 254.128906 143.96875 253.800781 143.066406 253.394531 142.195312 C 253.496094 145.992188 252.710938 152.085938 247.382812 155.648438 C 247.082031 155.851562 246.777344 155.859375 246.464844 155.675781 C 246.152344 155.496094 246.011719 155.222656 246.042969 154.867188 C 246.113281 153.949219 246.121094 153.03125 246.066406 152.113281 C 244.355469 153.207031 240.835938 154.761719 235.332031 154.039062 C 235.859375 154.613281 236.460938 155.09375 237.140625 155.480469 C 237.261719 155.546875 237.363281 155.640625 237.441406 155.757812 C 237.519531 155.875 237.5625 156.007812 237.578125 156.144531 C 237.59375 156.285156 237.574219 156.421875 237.519531 156.550781 C 237.464844 156.683594 237.386719 156.792969 237.277344 156.886719 C 236.867188 157.28125 234.734375 159.089844 230.976562 158.484375 C 231.777344 160.15625 232.558594 162.855469 231.9375 166.464844 C 231.902344 166.65625 231.816406 166.820312 231.671875 166.949219 C 231.527344 167.082031 231.355469 167.15625 231.160156 167.171875 C 230.96875 167.191406 230.785156 167.148438 230.621094 167.042969 C 230.457031 166.9375 230.339844 166.796875 230.273438 166.613281 C 230.171875 166.363281 229.21875 164.109375 227.019531 162.871094 C 227.488281 165.53125 227.957031 170.851562 225.222656 174.5 C 225.105469 174.652344 224.957031 174.757812 224.773438 174.8125 C 224.59375 174.863281 224.410156 174.859375 224.230469 174.796875 C 224.054688 174.730469 223.910156 174.617188 223.804688 174.460938 C 223.699219 174.300781 223.652344 174.128906 223.660156 173.9375 C 223.660156 173.617188 223.507812 171.9375 222.042969 171.078125 C 220.800781 172.207031 219.476562 173.226562 218.066406 174.136719 " fill-opacity="1" fill-rule="nonzero"/></g><path fill="#878e98" d="M 226.570312 193.675781 C 226.53125 193.636719 226.492188 193.59375 226.460938 193.550781 C 225.347656 192.339844 224.011719 191.472656 222.445312 190.949219 C 219.25 189.824219 214.992188 189.824219 210.371094 191.652344 C 213.472656 193.414062 216.164062 195.667969 218.449219 198.402344 C 222.894531 197.039062 226.289062 198.003906 227.890625 198.683594 C 228.078125 197.792969 228.054688 196.910156 227.820312 196.027344 C 227.585938 195.148438 227.171875 194.367188 226.570312 193.683594 " fill-opacity="1" fill-rule="nonzero"/><path fill="#878e98" d="M 194.84375 212.949219 C 194.941406 212.988281 195.03125 213.042969 195.109375 213.117188 C 196.058594 213.679688 197.027344 214.222656 198 214.710938 C 205.277344 218.328125 213.082031 219.355469 218.949219 216.703125 C 225.792969 213.609375 228.066406 207.480469 227.613281 200.4375 C 226.628906 199.941406 223.730469 198.789062 219.609375 199.859375 C 220.160156 200.609375 220.695312 201.394531 221.210938 202.21875 C 221.609375 202.902344 220.785156 203.363281 220.363281 202.78125 C 216.730469 197.648438 212.472656 194.398438 208.289062 192.371094 C 208.191406 192.34375 208.105469 192.300781 208.023438 192.242188 C 205.132812 190.878906 202.105469 189.96875 198.941406 189.503906 L 198.816406 189.488281 C 193.578125 188.726562 189.71875 189.410156 189.425781 189.460938 C 189.210938 189.507812 189.011719 189.476562 188.824219 189.371094 C 176.535156 182.40625 169.699219 191.414062 167.609375 194.941406 C 171.023438 194.515625 175.144531 194.867188 179.820312 196.914062 C 180.109375 197 180.296875 197.1875 180.382812 197.476562 C 183.59375 203.933594 188.882812 209.308594 194.824219 212.96875 " fill-opacity="1" fill-rule="nonzero"/><path fill="#c1c3c7" d="M 210.65625 193.640625 C 209.871094 193.167969 209.085938 192.746094 208.296875 192.367188 C 208.203125 192.339844 208.113281 192.296875 208.03125 192.238281 C 205.140625 190.875 202.113281 189.960938 198.949219 189.5 L 198.824219 189.480469 C 193.589844 188.722656 189.726562 189.402344 189.433594 189.457031 C 189.21875 189.503906 189.019531 189.472656 188.832031 189.363281 C 176.542969 182.398438 169.707031 191.40625 167.617188 194.9375 C 167.617188 194.9375 176.777344 183.480469 188.027344 190.386719 C 188.027344 190.386719 201.132812 188.554688 210.65625 193.640625 " fill-opacity="1" fill-rule="nonzero"/><path fill="#878e98" d="M 192.8125 213.695312 C 187.136719 209.9375 182.117188 204.660156 178.96875 198.394531 C 174.144531 196.335938 169.890625 196.140625 166.460938 196.703125 C 166.375 196.734375 166.289062 196.75 166.195312 196.75 C 160.640625 197.734375 157.308594 200.675781 157.292969 200.6875 C 156.75 201.15625 155.964844 200.507812 156.824219 199.769531 C 156.839844 199.753906 160 196.632812 165.464844 195.332031 C 166.074219 194.085938 169.625 187.40625 176.4375 185.515625 C 174.554688 185.105469 175.011719 184.03125 175.460938 183.730469 C 176.523438 183.019531 177.238281 182.058594 177.613281 180.839844 C 172.648438 179.992188 167.941406 178.398438 163.488281 176.058594 C 133.007812 205.671875 160.558594 229.4375 192.8125 213.695312 " fill-opacity="1" fill-rule="nonzero"/><path fill="#626c7a" d="M 176.230469 185.570312 L 176.414062 185.515625 C 174.53125 185.105469 174.988281 184.03125 175.441406 183.730469 C 176.5 183.019531 177.214844 182.058594 177.589844 180.839844 C 172.625 179.992188 167.917969 178.398438 163.464844 176.058594 C 162.429688 177.0625 161.46875 178.0625 160.570312 179.050781 C 163.695312 181.203125 168.902344 184.027344 176.234375 185.570312 " fill-opacity="1" fill-rule="nonzero"/><path fill="#ea7f89" d="M 137.949219 127.386719 C 137.914062 127.449219 133.363281 133.742188 137.734375 140.710938 C 137.789062 139.320312 138.0625 137.742188 139.058594 136.6875 C 139.839844 135.863281 141.097656 137.039062 140.320312 137.863281 C 140.167969 138.027344 140.039062 138.210938 139.941406 138.40625 C 140.582031 139.503906 143.101562 143.027344 148.667969 142.347656 C 150.097656 137.597656 151.203125 132.773438 151.984375 127.875 C 152.132812 126.847656 152.324219 125.855469 152.546875 124.90625 C 147.8125 113.199219 134.671875 115.90625 133.285156 127.894531 C 134.546875 126.65625 136.492188 125.421875 139.113281 125.675781 C 140.242188 125.785156 140.082031 127.496094 138.953125 127.390625 C 138.613281 127.355469 138.277344 127.355469 137.941406 127.390625 " fill-opacity="1" fill-rule="nonzero"/><path fill="#878e98" d="M 136.410156 105.453125 C 137.074219 105.734375 137.199219 106.859375 136.304688 107.097656 C 136.265625 107.097656 123.402344 110.371094 121.789062 124.957031 C 123.304688 124.054688 125.777344 122.921875 128.550781 123.027344 C 129.683594 123.070312 129.625 124.789062 128.492188 124.746094 C 128.070312 124.730469 127.648438 124.75 127.226562 124.796875 C 127.019531 125.152344 120.164062 130.800781 123.09375 142 C 123.820312 140.328125 125.007812 138.277344 126.703125 137.378906 C 127.710938 136.847656 128.519531 138.371094 127.507812 138.902344 C 127.289062 139.019531 127.082031 139.160156 126.890625 139.320312 C 126.65625 140.566406 125.433594 148.410156 130.453125 153.105469 C 130.476562 151.433594 130.695312 149.050781 131.65625 147.6875 C 132.308594 146.765625 133.726562 147.753906 133.070312 148.679688 C 132.773438 149.140625 132.570312 149.644531 132.464844 150.183594 C 133.464844 151.011719 137.265625 153.558594 144.492188 152.023438 C 145.894531 149.867188 147.089844 147.054688 148.089844 144.128906 C 143.570312 144.410156 140.855469 142.292969 139.441406 140.640625 C 139.40625 141.527344 139.464844 142.402344 139.605469 143.277344 C 139.652344 143.46875 139.636719 143.652344 139.554688 143.832031 C 139.472656 144.011719 139.34375 144.148438 139.171875 144.242188 C 138.996094 144.332031 138.8125 144.363281 138.617188 144.328125 C 138.421875 144.296875 138.257812 144.207031 138.125 144.0625 C 132.355469 137.707031 134.074219 131.351562 135.460938 128.316406 C 134.464844 129.019531 133.671875 129.90625 133.082031 130.972656 C 132.988281 131.148438 132.855469 131.277344 132.675781 131.359375 C 132.496094 131.4375 132.3125 131.457031 132.121094 131.414062 C 131.929688 131.371094 131.769531 131.273438 131.644531 131.121094 C 131.523438 130.96875 131.457031 130.796875 131.449219 130.601562 C 131.0625 115.160156 146.820312 110.453125 153.277344 122.394531 C 154.546875 118.582031 156.566406 115.222656 159.34375 112.308594 C 157.214844 109.820312 147.945312 100.261719 134.300781 104.238281 C 135.453125 104.636719 136.097656 105.0625 136.410156 105.453125 " fill-opacity="1" fill-rule="nonzero"/><path fill="#ea7f89" d="M 229.617188 142.347656 C 235.179688 143.027344 237.695312 139.503906 238.335938 138.40625 C 238.238281 138.210938 238.113281 138.027344 237.960938 137.863281 C 237.179688 137.039062 238.441406 135.863281 239.21875 136.6875 C 240.222656 137.746094 240.488281 139.308594 240.542969 140.710938 C 244.914062 133.742188 240.367188 127.453125 240.328125 127.386719 C 239.992188 127.351562 239.65625 127.351562 239.320312 127.386719 C 238.191406 127.492188 238.023438 125.785156 239.160156 125.671875 C 241.78125 125.417969 243.726562 126.652344 244.984375 127.894531 C 243.601562 115.902344 230.449219 113.203125 225.722656 124.910156 L 225.785156 125.191406 C 226.070312 126.515625 227.265625 134.734375 229.617188 142.355469 " fill-opacity="1" fill-rule="nonzero"/><path fill="#878e98" d="M 228.203125 143.523438 C 228.171875 143.457031 228.148438 143.390625 228.136719 143.316406 C 226.320312 137.636719 225.214844 131.765625 224.699219 128.777344 C 224.207031 129.027344 222.542969 129.757812 222.425781 129.855469 C 221.296875 130.785156 220.230469 137.171875 219.558594 138.910156 C 216.167969 147.746094 204.601562 145.941406 204.570312 145.941406 C 202.832031 145.796875 201.1875 145.332031 199.632812 144.550781 C 198.074219 143.765625 196.722656 142.71875 195.578125 141.414062 C 192.027344 137.441406 191.058594 132.085938 190.941406 130.742188 C 190.824219 129.203125 187.457031 129.203125 187.335938 130.742188 C 187.230469 132.085938 186.253906 137.441406 182.703125 141.414062 C 181.554688 142.71875 180.203125 143.757812 178.648438 144.539062 C 177.09375 145.320312 175.445312 145.785156 173.710938 145.929688 C 173.675781 145.929688 162.109375 147.738281 158.71875 138.894531 C 158.042969 137.132812 156.96875 130.652344 155.820312 129.816406 C 155.570312 129.628906 153.75 128.851562 153.589844 128.769531 C 152.777344 133.675781 151.632812 138.503906 150.152344 143.25 C 150.140625 143.367188 150.105469 143.480469 150.046875 143.582031 C 148.914062 147.050781 147.503906 150.472656 145.808594 153.074219 C 145.761719 153.230469 145.675781 153.363281 145.546875 153.464844 C 144.851562 154.515625 144.019531 155.445312 143.050781 156.253906 C 144.0625 156.800781 145.972656 157.355469 148.859375 156.300781 C 149.046875 156.21875 149.238281 156.207031 149.433594 156.261719 C 149.628906 156.316406 149.785156 156.425781 149.902344 156.59375 C 150.019531 156.757812 150.074219 156.941406 150.0625 157.144531 C 150.050781 157.34375 149.976562 157.519531 149.839844 157.671875 C 149.839844 157.671875 147.9375 159.703125 147.863281 163.578125 C 148.996094 162.113281 150.457031 161.128906 152.242188 160.621094 C 152.5625 160.535156 152.84375 160.609375 153.078125 160.84375 C 153.3125 161.082031 153.386719 161.359375 153.300781 161.679688 C 153.300781 161.695312 151.691406 167.351562 153.464844 171.6875 C 154.082031 170.398438 156.121094 168.488281 157.042969 169.4375 C 157.070312 169.460938 164.144531 176.910156 178.542969 179.25 C 178.710938 179.234375 178.875 179.261719 179.035156 179.332031 C 182.371094 179.832031 185.726562 180.027344 189.101562 179.921875 L 189.191406 179.921875 C 210.707031 180.550781 221.230469 169.46875 221.261719 169.4375 C 222.191406 168.484375 224.230469 170.410156 224.839844 171.6875 C 226.761719 166.996094 224.820312 161.898438 225.003906 161.222656 C 225.066406 160.996094 225.199219 160.820312 225.410156 160.703125 C 225.617188 160.585938 225.835938 160.554688 226.066406 160.621094 C 227.851562 161.128906 229.308594 162.113281 230.445312 163.578125 C 230.355469 159.691406 228.46875 157.671875 228.46875 157.671875 C 228.332031 157.523438 228.257812 157.351562 228.246094 157.152344 C 228.230469 156.957031 228.277344 156.773438 228.390625 156.609375 C 228.5 156.445312 228.652344 156.332031 228.839844 156.273438 C 229.03125 156.210938 229.21875 156.214844 229.40625 156.285156 C 232.3125 157.359375 234.238281 156.804688 235.253906 156.253906 C 231.796875 153.503906 229.539062 147.667969 228.203125 143.523438 " fill-opacity="1" fill-rule="nonzero"/><path fill="#878e98" d="M 224.996094 122.402344 C 231.460938 110.441406 247.210938 115.171875 246.824219 130.601562 C 246.820312 130.796875 246.753906 130.96875 246.628906 131.121094 C 246.503906 131.273438 246.347656 131.371094 246.15625 131.414062 C 245.960938 131.457031 245.777344 131.4375 245.597656 131.359375 C 245.421875 131.277344 245.285156 131.148438 245.195312 130.972656 C 244.605469 129.90625 243.8125 129.019531 242.816406 128.316406 C 244.207031 131.351562 245.921875 137.707031 240.15625 144.070312 C 240.023438 144.21875 239.859375 144.308594 239.664062 144.339844 C 239.46875 144.375 239.285156 144.34375 239.109375 144.25 C 238.9375 144.160156 238.808594 144.023438 238.726562 143.84375 C 238.644531 143.664062 238.628906 143.480469 238.675781 143.285156 C 238.816406 142.414062 238.871094 141.535156 238.839844 140.652344 C 237.429688 142.300781 234.695312 144.433594 230.191406 144.140625 C 231.195312 147.113281 232.386719 149.898438 233.769531 152.019531 C 241.011719 153.558594 244.808594 151.007812 245.808594 150.179688 C 245.703125 149.640625 245.5 149.140625 245.203125 148.675781 C 244.550781 147.753906 245.964844 146.761719 246.617188 147.683594 C 247.574219 149.050781 247.796875 151.429688 247.820312 153.105469 C 252.839844 148.410156 251.617188 140.566406 251.382812 139.316406 C 251.191406 139.15625 250.984375 139.015625 250.761719 138.898438 C 249.753906 138.367188 250.5625 136.847656 251.566406 137.375 C 253.261719 138.273438 254.457031 140.324219 255.183594 141.996094 C 258.121094 130.796875 251.257812 125.148438 251.050781 124.792969 C 250.628906 124.746094 250.207031 124.730469 249.785156 124.746094 C 248.65625 124.785156 248.585938 123.058594 249.726562 123.027344 C 252.5 122.917969 254.976562 124.050781 256.488281 124.953125 C 254.875 110.371094 242.011719 107.101562 241.96875 107.101562 C 241.121094 106.878906 241.1875 105.820312 241.78125 105.496094 C 242.410156 104.90625 243.140625 104.488281 243.972656 104.242188 C 230.304688 100.261719 221.027344 109.851562 218.914062 112.324219 C 221.691406 115.234375 223.71875 118.59375 224.992188 122.402344 " fill-opacity="1" fill-rule="nonzero"/><path fill="#c1c3c7" d="M 241.789062 105.492188 C 242.417969 104.902344 243.148438 104.484375 243.976562 104.238281 C 230.308594 100.257812 221.035156 109.847656 218.921875 112.324219 C 218.921875 112.324219 228.175781 102.9375 241.789062 105.492188 " fill-opacity="1" fill-rule="nonzero"/><path fill="#878e98" d="M 206.199219 106.257812 C 206.457031 106.882812 206.648438 107.53125 206.765625 108.199219 C 206.828125 108.578125 206.699219 108.871094 206.371094 109.074219 C 206.042969 109.277344 205.722656 109.269531 205.410156 109.042969 C 204.558594 108.507812 203.632812 108.195312 202.628906 108.109375 C 201.628906 108.023438 200.664062 108.171875 199.734375 108.554688 C 200.4375 109.933594 201.300781 112.804688 199.308594 116.667969 C 199.222656 116.832031 199.09375 116.957031 198.925781 117.042969 C 198.757812 117.125 198.578125 117.152344 198.394531 117.121094 C 198.207031 117.085938 198.050781 117.003906 197.917969 116.867188 C 197.789062 116.734375 197.710938 116.570312 197.683594 116.386719 C 197.683594 116.386719 197.242188 112.285156 194.011719 112.375 C 193.25 112.375 193.246094 111.410156 193.972656 111.410156 C 196.460938 111.347656 197.828125 112.625 198.570312 113.871094 C 199.457031 110.5625 197.871094 108.835938 197.722656 108.570312 C 197.609375 108.363281 197.589844 108.144531 197.660156 107.917969 C 197.726562 107.691406 197.867188 107.523438 198.078125 107.410156 C 199.058594 106.859375 200.109375 106.527344 201.226562 106.410156 C 202.347656 106.296875 203.445312 106.40625 204.519531 106.742188 C 202.78125 103.039062 198.332031 103.625 198.316406 103.625 C 198.164062 103.644531 198.015625 103.621094 197.875 103.558594 C 197.734375 103.5 197.617188 103.40625 197.523438 103.285156 C 197.433594 103.164062 197.375 103.027344 197.355469 102.875 C 197.335938 102.722656 197.359375 102.574219 197.417969 102.433594 C 197.882812 101.328125 198.542969 100.355469 199.402344 99.515625 C 200.261719 98.679688 201.253906 98.039062 202.371094 97.597656 C 197.417969 95.722656 193.375 99.648438 193.363281 99.664062 C 192.875 100.132812 191.949219 99.960938 191.894531 98.902344 C 191.8125 96.886719 191.339844 94.960938 190.484375 93.128906 C 187.90625 100.675781 178.84375 103.984375 172.105469 106.257812 C 164.480469 108.820312 157.511719 114.574219 154.699219 123.605469 L 155.765625 124.167969 C 164.554688 120.863281 173.28125 120.132812 180.910156 121.75 C 183.84375 122.367188 185.875 123.179688 189.125 123.316406 C 191.414062 123.21875 192.988281 122.820312 194.753906 122.371094 C 198.578125 121.398438 202.25 120.71875 207.59375 120.984375 C 212.726562 121.265625 217.691406 122.328125 222.484375 124.171875 C 222.851562 123.984375 223.191406 123.808594 223.550781 123.609375 C 220.132812 112.574219 211.066406 107.863281 206.199219 106.257812 " fill-opacity="1" fill-rule="nonzero"/><path fill="#878e98" d="M 200.921875 180.800781 C 201.289062 182.035156 202.011719 183.011719 203.082031 183.730469 C 203.378906 183.925781 203.503906 184.195312 203.464844 184.546875 C 203.425781 184.898438 203.238281 185.132812 202.910156 185.253906 C 201.902344 185.648438 200.867188 185.757812 199.800781 185.585938 C 199.960938 186.378906 200.011719 187.179688 199.949219 187.988281 C 202.882812 188.488281 205.699219 189.371094 208.390625 190.632812 C 215.15625 187.539062 221.460938 188.046875 225.441406 190.476562 C 223.464844 184.902344 220.230469 179.160156 216.582031 175.066406 C 211.710938 177.921875 206.492188 179.832031 200.921875 180.800781 " fill-opacity="1" fill-rule="nonzero"/><path fill="#626c7a" d="M 200.921875 180.800781 C 201.289062 182.035156 202.011719 183.011719 203.082031 183.730469 C 203.378906 183.925781 203.503906 184.195312 203.464844 184.546875 C 203.425781 184.898438 203.238281 185.132812 202.910156 185.253906 C 201.902344 185.648438 200.867188 185.757812 199.800781 185.585938 C 199.828125 185.710938 199.851562 185.84375 199.871094 185.980469 C 209.554688 184.382812 215.902344 180.480469 219.011719 178.101562 C 218.253906 177.046875 217.445312 176.03125 216.582031 175.054688 C 211.710938 177.910156 206.492188 179.824219 200.921875 180.789062 " fill-opacity="1" fill-rule="nonzero"/><path fill="#ffffff" d="M 189.140625 181.664062 C 185.84375 181.765625 182.566406 181.589844 179.300781 181.128906 C 179.003906 182.183594 178.496094 183.128906 177.785156 183.960938 C 178.457031 183.949219 179.101562 183.816406 179.726562 183.566406 C 179.949219 183.480469 180.167969 183.484375 180.386719 183.582031 C 180.605469 183.675781 180.757812 183.835938 180.839844 184.058594 C 180.992188 184.441406 180.855469 184.621094 180.675781 185.046875 C 183.246094 185.148438 186.148438 185.929688 189.40625 187.730469 C 192.351562 187.347656 195.292969 187.355469 198.234375 187.746094 C 198.410156 185.25 197.386719 184.8125 197.671875 184.058594 C 197.757812 183.832031 197.910156 183.671875 198.132812 183.574219 C 198.351562 183.476562 198.578125 183.476562 198.800781 183.566406 C 199.421875 183.816406 200.070312 183.949219 200.742188 183.960938 C 200.019531 183.117188 199.511719 182.164062 199.214844 181.09375 C 195.871094 181.578125 192.515625 181.769531 189.140625 181.664062 " fill-opacity="1" fill-rule="nonzero"/><path fill="#b3b3b3" d="M 189.140625 181.664062 C 185.84375 181.765625 182.566406 181.589844 179.300781 181.128906 C 179.003906 182.183594 178.496094 183.128906 177.785156 183.960938 C 178.457031 183.949219 179.101562 183.816406 179.726562 183.566406 C 179.949219 183.480469 180.167969 183.484375 180.386719 183.582031 C 180.605469 183.675781 180.757812 183.835938 180.839844 184.058594 C 180.992188 184.441406 180.855469 184.621094 180.675781 185.046875 C 183.011719 185.171875 185.238281 185.726562 187.359375 186.710938 C 187.925781 186.710938 188.488281 186.710938 189.085938 186.683594 L 189.175781 186.683594 C 192.1875 186.773438 195.191406 186.621094 198.179688 186.230469 C 197.980469 185.003906 197.449219 184.613281 197.671875 184.042969 C 197.757812 183.816406 197.910156 183.65625 198.132812 183.5625 C 198.351562 183.464844 198.578125 183.460938 198.800781 183.550781 C 199.421875 183.800781 200.070312 183.933594 200.742188 183.949219 C 200.019531 183.105469 199.511719 182.148438 199.214844 181.082031 C 195.871094 181.570312 192.515625 181.765625 189.140625 181.664062 " fill-opacity="1" fill-rule="nonzero"/><path fill="#18202b" d="M 188.96875 139.96875 C 196.199219 139.96875 201.753906 157.949219 192.757812 162.6875 C 191.679688 163.253906 190.53125 163.550781 189.308594 163.566406 C 188.089844 163.585938 186.933594 163.328125 185.835938 162.792969 C 179.441406 159.5625 180.019531 149.976562 182.964844 144.484375 C 184.390625 141.828125 186.480469 139.96875 188.96875 139.96875 " fill-opacity="1" fill-rule="nonzero"/><path fill="#ffffff" d="M 210.5625 176.191406 C 204.464844 169.078125 207.292969 154.652344 197.265625 151.273438 C 197.875 155.867188 196.753906 160.578125 192.757812 162.683594 C 191.679688 163.253906 190.53125 163.546875 189.308594 163.566406 C 188.089844 163.582031 186.933594 163.324219 185.835938 162.792969 C 181.71875 160.710938 180.492188 155.992188 180.925781 151.429688 C 171.359375 155.085938 174.089844 169.320312 167.964844 176.289062 C 171.371094 177.6875 174.890625 178.675781 178.527344 179.257812 C 178.699219 179.242188 178.863281 179.265625 179.019531 179.335938 C 182.359375 179.835938 185.714844 180.035156 189.089844 179.925781 L 189.179688 179.925781 C 198.246094 180.207031 205.359375 178.375 210.5625 176.1875 " fill-opacity="1" fill-rule="nonzero"/><path fill="#b3b3b3" d="M 197.503906 151.363281 L 197.265625 151.277344 C 197.875 155.871094 196.753906 160.582031 192.757812 162.6875 C 191.679688 163.253906 190.53125 163.550781 189.308594 163.566406 C 188.089844 163.585938 186.933594 163.328125 185.835938 162.792969 C 181.71875 160.710938 180.492188 155.992188 180.925781 151.433594 C 180.820312 151.472656 180.71875 151.515625 180.617188 151.558594 C 179.722656 156.828125 180.8125 162.664062 185.632812 165.105469 C 186.796875 165.671875 188.023438 165.945312 189.320312 165.925781 C 190.613281 165.90625 191.832031 165.59375 192.976562 164.988281 C 197.660156 162.523438 198.628906 156.683594 197.5 151.363281 " fill-opacity="1" fill-rule="nonzero"/><path fill="#18202b" d="M 178.402344 123.035156 C 171.652344 122.042969 164.152344 122.882812 156.589844 125.695312 L 156.589844 128.328125 C 158.792969 129.839844 159.484375 136.039062 160.347656 138.296875 C 163.222656 145.824219 173.429688 144.242188 173.460938 144.242188 C 177.144531 143.800781 179.484375 142.417969 181.410156 140.265625 C 184.628906 136.664062 185.515625 131.824219 185.609375 130.613281 C 186.097656 124.386719 184.78125 123.984375 178.390625 123.042969 " fill-opacity="1" fill-rule="nonzero"/><path fill="#283342" d="M 160.292969 138.175781 C 160.308594 138.21875 160.324219 138.257812 160.335938 138.296875 C 160.519531 138.785156 160.746094 139.253906 161.011719 139.703125 L 182.027344 123.6875 C 181.402344 123.539062 180.6875 123.40625 179.863281 123.273438 Z M 160.292969 138.175781 " fill-opacity="1" fill-rule="nonzero"/><path fill="#283342" d="M 161.589844 140.539062 C 162.242188 141.371094 163.019531 142.058594 163.917969 142.601562 L 185.417969 126.234375 C 185.074219 125.144531 184.390625 124.503906 183.238281 124.058594 Z M 161.589844 140.539062 " fill-opacity="1" fill-rule="nonzero"/><path fill="#b3b3b3" d="M 208.832031 173.578125 C 196.210938 178.257812 182.023438 178.121094 169.746094 173.65625 C 169.257812 174.605469 168.664062 175.484375 167.964844 176.292969 C 171.371094 177.691406 174.890625 178.679688 178.527344 179.261719 C 178.699219 179.242188 178.863281 179.269531 179.019531 179.339844 C 182.359375 179.839844 185.714844 180.035156 189.089844 179.929688 L 189.179688 179.929688 C 198.246094 180.210938 205.359375 178.378906 210.5625 176.191406 C 209.882812 175.386719 209.308594 174.515625 208.832031 173.578125 " fill-opacity="1" fill-rule="nonzero"/><path fill="#626c7a" d="M 208.832031 173.578125 C 209.308594 174.515625 209.882812 175.386719 210.5625 176.191406 C 217.699219 173.183594 221.230469 169.464844 221.25 169.4375 C 222.179688 168.484375 224.214844 170.410156 224.824219 171.6875 C 226.75 166.996094 224.804688 161.898438 224.988281 161.222656 C 225.050781 160.996094 225.1875 160.820312 225.394531 160.703125 C 225.601562 160.585938 225.820312 160.554688 226.050781 160.621094 C 227.835938 161.128906 229.296875 162.113281 230.429688 163.578125 C 230.34375 159.691406 228.453125 157.671875 228.453125 157.671875 C 228.320312 157.523438 228.246094 157.351562 228.230469 157.152344 C 228.214844 156.957031 228.265625 156.773438 228.375 156.609375 C 228.488281 156.445312 228.636719 156.332031 228.828125 156.273438 C 229.015625 156.210938 229.203125 156.214844 229.390625 156.285156 C 232.296875 157.359375 234.222656 156.804688 235.242188 156.253906 C 232.027344 153.6875 229.855469 148.425781 228.488281 144.363281 C 228.488281 144.363281 229.417969 151.925781 231.867188 154.28125 C 231.867188 154.28125 228.609375 154.453125 227.128906 153.316406 C 227.128906 153.316406 227.679688 156.769531 226.957031 158.457031 C 226.957031 158.457031 225.4375 157.484375 222.980469 157.863281 C 222.980469 157.863281 223.914062 163.71875 222.855469 166.585938 C 222.855469 166.585938 221.246094 165.195312 219.261719 165.152344 C 217.882812 168.851562 214.007812 171.660156 208.84375 173.578125 " fill-opacity="1" fill-rule="nonzero"/><path fill="#626c7a" d="M 169.746094 173.65625 C 164.46875 171.738281 160.507812 168.90625 159.109375 165.152344 C 157.128906 165.195312 155.511719 166.585938 155.511719 166.585938 C 154.457031 163.71875 155.386719 157.863281 155.386719 157.863281 C 152.933594 157.484375 151.410156 158.457031 151.410156 158.457031 C 150.691406 156.765625 151.242188 153.316406 151.242188 153.316406 C 149.757812 154.441406 146.503906 154.28125 146.503906 154.28125 C 148.945312 151.925781 149.875 144.363281 149.875 144.363281 L 149.800781 144.308594 C 148.710938 147.527344 147.382812 150.652344 145.804688 153.074219 C 145.761719 153.230469 145.671875 153.363281 145.542969 153.464844 C 144.847656 154.515625 144.015625 155.445312 143.046875 156.253906 C 144.058594 156.800781 145.972656 157.355469 148.855469 156.300781 C 149.042969 156.21875 149.234375 156.207031 149.429688 156.261719 C 149.625 156.316406 149.78125 156.425781 149.902344 156.59375 C 150.019531 156.757812 150.070312 156.941406 150.058594 157.144531 C 150.046875 157.34375 149.972656 157.519531 149.835938 157.671875 C 149.835938 157.671875 147.933594 159.703125 147.859375 163.578125 C 148.992188 162.113281 150.453125 161.128906 152.238281 160.621094 C 152.558594 160.535156 152.839844 160.609375 153.074219 160.84375 C 153.308594 161.082031 153.382812 161.359375 153.296875 161.679688 C 153.296875 161.695312 151.6875 167.351562 153.464844 171.6875 C 154.078125 170.398438 156.121094 168.488281 157.039062 169.4375 C 157.058594 169.457031 160.671875 173.257812 167.976562 176.28125 C 168.675781 175.476562 169.269531 174.597656 169.757812 173.648438 " fill-opacity="1" fill-rule="nonzero"/><path fill="#626c7a" d="M 175.664062 215.144531 C 159.351562 218.453125 146.398438 208.855469 153.953125 188.042969 C 140.796875 211.539062 165.0625 227.246094 192.8125 213.695312 C 187.136719 209.9375 182.117188 204.660156 178.96875 198.394531 C 174.144531 196.335938 169.890625 196.140625 166.460938 196.703125 C 166.375 196.734375 166.289062 196.75 166.195312 196.75 C 163.476562 197.226562 160.953125 198.210938 158.628906 199.703125 C 174.042969 192.851562 189.421875 212.332031 175.664062 215.144531 " fill-opacity="1" fill-rule="nonzero"/><path fill="#626c7a" d="M 210.65625 193.640625 C 221.976562 203.421875 214.382812 220.246094 198.972656 212.910156 C 184.390625 205.964844 183.035156 195.402344 183.035156 195.402344 C 176.945312 194.519531 173.625 192.027344 167.617188 194.9375 C 171.03125 194.511719 175.152344 194.863281 179.828125 196.90625 C 180.117188 196.996094 180.304688 197.183594 180.390625 197.46875 C 183.601562 203.925781 188.894531 209.304688 194.832031 212.964844 C 194.933594 213.003906 195.019531 213.058594 195.101562 213.132812 C 196.050781 213.695312 197.015625 214.238281 197.988281 214.722656 C 205.265625 218.339844 213.070312 219.367188 218.9375 216.71875 C 225.78125 213.625 228.054688 207.496094 227.601562 200.449219 C 226.621094 199.953125 223.722656 198.804688 219.597656 199.871094 C 220.148438 200.625 220.683594 201.410156 221.199219 202.234375 C 221.597656 202.917969 220.773438 203.375 220.351562 202.796875 C 217.765625 199.0625 214.523438 196.019531 210.636719 193.65625 " fill-opacity="1" fill-rule="nonzero"/><path fill="#18202b" d="M 199.886719 123.035156 C 206.640625 122.042969 214.136719 122.882812 221.703125 125.695312 L 221.703125 128.328125 C 219.496094 129.839844 218.808594 136.039062 217.945312 138.296875 C 215.054688 145.824219 204.847656 144.242188 204.820312 144.242188 C 201.132812 143.800781 198.796875 142.417969 196.871094 140.265625 C 193.652344 136.664062 192.765625 131.824219 192.671875 130.613281 C 192.183594 124.386719 193.5 123.984375 199.890625 123.042969 " fill-opacity="1" fill-rule="nonzero"/><path fill="#283342" d="M 215.214844 123.757812 C 215.890625 123.910156 216.574219 124.082031 217.257812 124.265625 L 196.632812 139.984375 C 196.28125 139.566406 195.949219 139.128906 195.644531 138.675781 Z M 215.214844 123.757812 " fill-opacity="1" fill-rule="nonzero"/><path fill="#283342" d="M 218.484375 124.617188 C 219.558594 124.9375 220.628906 125.296875 221.703125 125.695312 L 221.703125 126.003906 L 199.8125 142.683594 C 198.890625 142.15625 198.0625 141.507812 197.324219 140.746094 Z M 218.484375 124.617188 " fill-opacity="1" fill-rule="nonzero"/><path fill="#c1c3c7" d="M 178.996094 103.652344 C 178.996094 103.652344 186.546875 101.617188 188.574219 98.625 C 188.453125 99.390625 188.21875 100.121094 187.875 100.816406 C 187.875 100.816406 189.652344 99.574219 190.375 98.308594 C 190.375 98.308594 189.96875 102.3125 188.574219 104.566406 C 188.574219 104.566406 191.261719 101.828125 193.078125 100.988281 C 192.53125 101.675781 192.167969 102.445312 191.976562 103.300781 C 191.976562 103.300781 194.601562 100.140625 197.945312 98.921875 C 196.476562 100.738281 195.660156 102.804688 195.488281 105.132812 C 196.832031 104.480469 198.242188 104.230469 199.726562 104.382812 C 199.726562 104.382812 198.4375 104.78125 197.992188 105.300781 C 197.992188 105.300781 200.277344 105.234375 201.90625 105.710938 C 199.5 105.890625 197.355469 106.726562 195.46875 108.226562 C 195.46875 108.226562 197.164062 108.789062 197.753906 110.269531 C 197.753906 110.269531 197.265625 109.859375 196.089844 110.027344 C 196.089844 110.027344 197.722656 110.589844 197.867188 111.859375 C 196.433594 111.148438 194.792969 111.347656 193.957031 111.433594 C 196.449219 111.367188 197.816406 112.644531 198.554688 113.894531 C 199.441406 110.585938 197.855469 108.859375 197.707031 108.59375 C 197.597656 108.386719 197.574219 108.167969 197.644531 107.941406 C 197.714844 107.714844 197.855469 107.542969 198.0625 107.433594 C 199.042969 106.882812 200.09375 106.550781 201.214844 106.433594 C 202.332031 106.316406 203.429688 106.425781 204.503906 106.761719 C 202.765625 103.0625 198.316406 103.648438 198.304688 103.648438 C 198.152344 103.664062 198.003906 103.644531 197.863281 103.582031 C 197.71875 103.523438 197.601562 103.429688 197.511719 103.308594 C 197.417969 103.183594 197.363281 103.046875 197.34375 102.894531 C 197.324219 102.742188 197.34375 102.597656 197.402344 102.453125 C 197.867188 101.351562 198.53125 100.378906 199.390625 99.539062 C 200.25 98.703125 201.238281 98.0625 202.359375 97.621094 C 197.40625 95.746094 193.363281 99.671875 193.347656 99.6875 C 192.863281 100.152344 191.9375 99.984375 191.882812 98.925781 C 191.796875 96.910156 191.328125 94.984375 190.46875 93.152344 C 188.710938 98.28125 183.957031 101.449219 178.976562 103.667969 " fill-opacity="1" fill-rule="nonzero"/><path fill="#626c7a" d="M 244.714844 144.304688 C 244.238281 144.539062 244.316406 151.480469 232.710938 150.214844 C 233.050781 150.859375 233.402344 151.464844 233.765625 152.027344 C 241.011719 153.570312 244.804688 151.019531 245.804688 150.191406 C 245.699219 149.652344 245.496094 149.148438 245.199219 148.6875 C 244.546875 147.761719 245.960938 146.773438 246.613281 147.695312 C 247.574219 149.0625 247.792969 151.441406 247.816406 153.113281 C 252.835938 148.421875 251.613281 140.578125 251.378906 139.328125 C 251.1875 139.167969 250.980469 139.027344 250.757812 138.910156 C 249.75 138.378906 250.558594 136.859375 251.566406 137.386719 C 253.261719 138.285156 254.453125 140.335938 255.179688 142.007812 C 258.117188 130.808594 251.257812 125.160156 251.046875 124.804688 C 250.628906 124.757812 250.207031 124.742188 249.78125 124.757812 C 248.652344 124.796875 248.585938 123.066406 249.722656 123.035156 C 252.496094 122.929688 254.972656 124.0625 256.484375 124.964844 C 254.875 110.371094 242.011719 107.101562 241.96875 107.101562 C 243.347656 107.757812 252.839844 110.871094 254.554688 122.621094 C 253.167969 121.777344 248.984375 121.496094 246.433594 123.769531 C 246.5 124.253906 255.042969 127.105469 254.117188 137.171875 C 253.664062 136.117188 250.101562 135.089844 248.082031 134.808594 C 247.894531 135.058594 252.539062 143.164062 248.304688 148.507812 C 248.289062 147.5625 247.140625 145.007812 244.707031 144.308594 " fill-opacity="1" fill-rule="nonzero"/><path fill="#ba505b" d="M 229.617188 142.347656 C 233.539062 142.824219 235.949219 141.222656 237.246094 139.835938 C 231.160156 145.03125 225.363281 128.054688 229.988281 122.183594 C 234.886719 115.960938 243.78125 118.789062 244.976562 127.894531 C 243.59375 115.90625 230.4375 113.207031 225.710938 124.914062 L 225.777344 125.195312 C 226.058594 126.519531 227.257812 134.734375 229.609375 142.359375 " fill-opacity="1" fill-rule="nonzero"/><path fill="#c1c3c7" d="M 136.480469 105.484375 C 135.847656 104.890625 135.117188 104.472656 134.289062 104.226562 C 147.960938 100.246094 157.230469 109.839844 159.34375 112.308594 C 159.34375 112.308594 150.089844 102.921875 136.480469 105.484375 " fill-opacity="1" fill-rule="nonzero"/><path fill="#626c7a" d="M 133.5625 144.304688 C 134.042969 144.539062 133.960938 151.480469 145.566406 150.214844 C 145.230469 150.859375 144.875 151.464844 144.511719 152.027344 C 137.265625 153.570312 133.472656 151.019531 132.472656 150.191406 C 132.578125 149.652344 132.78125 149.148438 133.078125 148.6875 C 133.730469 147.761719 132.316406 146.773438 131.664062 147.695312 C 130.703125 149.0625 130.484375 151.441406 130.460938 153.113281 C 125.441406 148.421875 126.664062 140.578125 126.898438 139.328125 C 127.089844 139.164062 127.296875 139.019531 127.515625 138.894531 C 128.523438 138.367188 127.714844 136.84375 126.710938 137.371094 C 125.015625 138.269531 123.820312 140.320312 123.09375 141.992188 C 120.15625 130.792969 127.019531 125.148438 127.226562 124.789062 C 127.648438 124.742188 128.070312 124.726562 128.492188 124.742188 C 129.621094 124.78125 129.691406 123.054688 128.550781 123.023438 C 125.777344 122.917969 123.304688 124.046875 121.789062 124.949219 C 123.402344 110.371094 136.265625 107.101562 136.308594 107.101562 C 134.929688 107.757812 125.4375 110.871094 123.722656 122.621094 C 125.109375 121.777344 129.296875 121.496094 131.84375 123.769531 C 131.773438 124.265625 123.230469 127.101562 124.160156 137.171875 C 124.617188 136.113281 128.179688 135.085938 130.199219 134.804688 C 130.386719 135.054688 125.742188 143.160156 129.976562 148.503906 C 129.988281 147.5625 131.140625 145.003906 133.574219 144.304688 " fill-opacity="1" fill-rule="nonzero"/><path fill="#ba505b" d="M 148.660156 142.34375 C 144.738281 142.824219 142.328125 141.21875 141.035156 139.835938 C 147.121094 145.027344 152.914062 128.050781 148.292969 122.179688 C 143.371094 115.957031 134.484375 118.785156 133.289062 127.890625 C 134.675781 115.902344 147.828125 113.203125 152.554688 124.90625 L 152.488281 125.191406 C 152.207031 126.511719 151.007812 134.730469 148.660156 142.351562 " fill-opacity="1" fill-rule="nonzero"/><path fill="#283342" d="M 189.140625 142.914062 C 190.925781 142.914062 192.375 145.882812 192.375 149.546875 C 192.375 153.210938 190.925781 156.183594 189.140625 156.183594 C 187.351562 156.183594 185.902344 153.214844 185.902344 149.546875 C 185.902344 145.882812 187.351562 142.914062 189.140625 142.914062 " fill-opacity="1" fill-rule="nonzero"/><path fill="#18202b" d="M 176.054688 162.914062 C 177.136719 162.605469 176.902344 161.707031 175.828125 162.019531 C 174.074219 162.53125 172.753906 163.375 172.054688 165.484375 C 171.699219 166.550781 173.328125 167.089844 173.683594 166.019531 C 173.796875 165.667969 173.921875 165.332031 174.054688 165.019531 C 174.15625 165.089844 174.257812 165.15625 174.359375 165.226562 C 179.277344 179.925781 198.875 179.941406 203.808594 165.226562 C 203.9375 165.136719 204.066406 165.046875 204.191406 164.957031 C 204.335938 165.289062 204.472656 165.648438 204.59375 166.019531 C 204.949219 167.089844 206.570312 166.550781 206.222656 165.484375 C 205.523438 163.375 204.199219 162.53125 202.449219 162.019531 C 201.367188 161.707031 201.136719 162.605469 202.222656 162.914062 C 202.621094 163.027344 202.96875 163.230469 203.261719 163.523438 C 199.671875 166.140625 193.773438 167.148438 189.082031 167.148438 C 184.6875 167.148438 179.265625 166.269531 175.636719 164.015625 C 175.582031 163.96875 175.519531 163.933594 175.453125 163.902344 C 175.289062 163.792969 175.125 163.683594 174.964844 163.566406 C 175.269531 163.253906 175.632812 163.035156 176.054688 162.914062 " fill-opacity="1" fill-rule="nonzero"/><path fill="#18202b" d="M 176.035156 165.808594 C 180.941406 177.90625 197.222656 177.921875 202.128906 165.808594 C 198.265625 167.777344 193.160156 168.507812 189.082031 168.507812 C 184.929688 168.507812 179.863281 167.761719 176.035156 165.804688 " fill-opacity="1" fill-rule="nonzero"/><path fill="#ea7f89" d="M 187.160156 174.761719 C 188.300781 174.921875 189.441406 174.9375 190.585938 174.8125 C 191.730469 174.6875 192.839844 174.421875 193.914062 174.019531 C 194.992188 173.613281 196.003906 173.085938 196.945312 172.429688 C 197.890625 171.773438 198.734375 171.011719 199.488281 170.144531 C 199.226562 169.945312 198.953125 169.761719 198.671875 169.597656 C 198.386719 169.433594 198.09375 169.289062 197.792969 169.160156 C 197.492188 169.03125 197.183594 168.925781 196.867188 168.835938 C 196.550781 168.746094 196.230469 168.679688 195.90625 168.632812 C 195.582031 168.582031 195.253906 168.554688 194.925781 168.550781 C 194.597656 168.542969 194.269531 168.554688 193.945312 168.589844 C 193.617188 168.625 193.296875 168.679688 192.976562 168.757812 C 192.65625 168.832031 192.34375 168.925781 192.035156 169.042969 C 191.730469 169.15625 191.429688 169.292969 191.140625 169.445312 C 190.851562 169.597656 190.570312 169.765625 190.304688 169.957031 C 190.035156 170.144531 189.78125 170.347656 189.535156 170.566406 C 189.292969 170.789062 189.066406 171.023438 188.855469 171.273438 C 188.640625 171.519531 188.445312 171.78125 188.269531 172.058594 C 188.089844 172.332031 187.929688 172.613281 187.785156 172.910156 C 187.640625 173.203125 187.519531 173.503906 187.414062 173.816406 C 187.308594 174.125 187.226562 174.441406 187.160156 174.761719 " fill-opacity="1" fill-rule="nonzero"/><g fill="#884a39" fill-opacity="1"><g transform="translate(103.114077, 259.667328)"><g><path d="M 15.019531 -5.773438 C 10.507812 -5.773438 8.546875 -9.65625 8.546875 -13.6875 C 8.546875 -17.5 10.46875 -21.125 14.6875 -21.125 C 16.6875 -21.125 18.535156 -20.273438 20.535156 -20.273438 C 21.273438 -20.273438 21.382812 -20.71875 21.382812 -21.347656 C 21.382812 -22.496094 21.421875 -24.308594 20.609375 -25.195312 C 19.683594 -26.230469 16.464844 -26.75 15.09375 -26.824219 C 14.464844 -26.859375 13.835938 -26.859375 13.207031 -26.859375 C 5.808594 -26.859375 0.8125 -20.609375 0.8125 -13.503906 C 0.8125 -6.140625 5.957031 -0.109375 13.542969 -0.109375 C 15.242188 -0.109375 19.683594 -0.480469 20.902344 -1.703125 C 21.644531 -2.441406 21.71875 -4.476562 21.71875 -5.476562 C 21.71875 -6.402344 21.238281 -6.621094 20.386719 -6.621094 C 18.535156 -6.621094 16.832031 -5.773438 15.019531 -5.773438 Z M 15.019531 -5.773438 "/></g></g></g><g fill="#884a39" fill-opacity="1"><g transform="translate(125.163493, 259.667328)"><g><path d="M 6.363281 -0.703125 C 11.582031 -0.703125 6.253906 -5.476562 12.578125 -5.476562 C 20.273438 -5.476562 14.6875 -0.664062 19.089844 -0.664062 C 20.902344 -0.664062 24.046875 -0.664062 24.046875 -3.21875 C 24.046875 -6.84375 18.832031 -22.382812 16.574219 -25.160156 C 15.539062 -26.417969 14.652344 -26.601562 13.097656 -26.601562 C 12.097656 -26.601562 11.359375 -26.601562 10.507812 -26.007812 C 7.695312 -24.121094 2.183594 -7.175781 2.183594 -3.550781 C 2.183594 -0.554688 3.996094 -0.703125 6.363281 -0.703125 Z M 12.800781 -10.804688 C 11.949219 -10.804688 11.171875 -10.988281 11.171875 -11.988281 C 11.171875 -12.800781 12.28125 -18.425781 13.023438 -18.425781 C 13.910156 -18.425781 14.871094 -12.875 14.871094 -12.023438 C 14.871094 -11.246094 14.316406 -10.804688 13.578125 -10.804688 Z M 12.800781 -10.804688 "/></g></g></g><g fill="#884a39" fill-opacity="1"><g transform="translate(149.062721, 259.667328)"><g><path d="M 23.160156 -21.976562 C 23.160156 -22.382812 23.050781 -23.9375 22.9375 -24.269531 C 21.941406 -27.007812 13.503906 -26.5625 11.246094 -26.5625 C 9.324219 -26.5625 3.996094 -26.453125 2.625 -25.121094 C 2.070312 -24.566406 1.925781 -22.828125 1.925781 -22.050781 C 1.925781 -18.535156 7.695312 -22.308594 8.433594 -18.351562 C 8.582031 -17.460938 8.621094 -16.539062 8.621094 -15.648438 C 8.621094 -13.761719 8.546875 -11.914062 8.546875 -10.027344 C 8.546875 -8.027344 8.507812 -1.886719 10.359375 -0.777344 C 10.988281 -0.40625 11.914062 -0.445312 12.652344 -0.445312 C 13.503906 -0.445312 14.539062 -0.40625 15.207031 -1.035156 C 16.390625 -2.183594 16.5 -9.878906 16.5 -11.726562 C 16.5 -13.246094 16.425781 -14.726562 16.425781 -16.242188 C 16.425781 -18.460938 16.871094 -20.496094 19.535156 -20.496094 C 20.089844 -20.496094 20.609375 -20.421875 21.164062 -20.421875 C 22.234375 -20.421875 23.160156 -20.71875 23.160156 -21.976562 Z M 23.160156 -21.976562 "/></g></g></g><g fill="#884a39" fill-opacity="1"><g transform="translate(171.852066, 259.667328)"><g><path d="M 15.019531 -5.773438 C 10.507812 -5.773438 8.546875 -9.65625 8.546875 -13.6875 C 8.546875 -17.5 10.46875 -21.125 14.6875 -21.125 C 16.6875 -21.125 18.535156 -20.273438 20.535156 -20.273438 C 21.273438 -20.273438 21.382812 -20.71875 21.382812 -21.347656 C 21.382812 -22.496094 21.421875 -24.308594 20.609375 -25.195312 C 19.683594 -26.230469 16.464844 -26.75 15.09375 -26.824219 C 14.464844 -26.859375 13.835938 -26.859375 13.207031 -26.859375 C 5.808594 -26.859375 0.8125 -20.609375 0.8125 -13.503906 C 0.8125 -6.140625 5.957031 -0.109375 13.542969 -0.109375 C 15.242188 -0.109375 19.683594 -0.480469 20.902344 -1.703125 C 21.644531 -2.441406 21.71875 -4.476562 21.71875 -5.476562 C 21.71875 -6.402344 21.238281 -6.621094 20.386719 -6.621094 C 18.535156 -6.621094 16.832031 -5.773438 15.019531 -5.773438 Z M 15.019531 -5.773438 "/></g></g></g><g fill="#884a39" fill-opacity="1"><g transform="translate(193.901482, 259.667328)"><g><path d="M 8.027344 -26.34375 C 6.808594 -26.34375 5.476562 -26.34375 4.476562 -25.601562 C 4.105469 -25.34375 3.847656 -24.972656 3.625 -24.601562 C 2.480469 -22.496094 2.480469 -15.242188 2.480469 -12.617188 C 2.480469 -10.324219 2.441406 -1.996094 4.957031 -1 C 5.773438 -0.664062 7.03125 -0.628906 7.917969 -0.628906 C 10.027344 -0.628906 10.136719 -2.070312 10.136719 -3.773438 C 10.136719 -5.105469 9.914062 -6.402344 9.914062 -7.660156 C 9.914062 -10.136719 10.804688 -11.171875 13.28125 -11.171875 C 15.132812 -11.171875 16.796875 -11.0625 16.796875 -8.769531 C 16.796875 -7.4375 16.613281 -6.105469 16.613281 -4.773438 C 16.613281 -3.328125 16.722656 -0.628906 18.683594 -0.628906 C 19.867188 -0.628906 21.421875 -0.664062 22.421875 -1.40625 C 22.789062 -1.664062 23.050781 -1.996094 23.269531 -2.367188 C 24.308594 -4.292969 24.457031 -10.101562 24.457031 -12.394531 C 24.457031 -15.316406 24.601562 -23.53125 22.570312 -25.566406 C 21.941406 -26.230469 19.71875 -26.34375 18.832031 -26.34375 C 17.09375 -26.34375 16.722656 -25.230469 16.722656 -23.679688 C 16.722656 -22.308594 17.019531 -20.976562 17.019531 -19.609375 C 17.019531 -17.167969 15.648438 -16.539062 13.46875 -16.539062 C 10.175781 -16.539062 10.0625 -17.535156 10.0625 -20.496094 C 10.0625 -21.421875 10.210938 -22.347656 10.210938 -23.269531 C 10.210938 -24.863281 9.914062 -26.34375 8.027344 -26.34375 Z M 8.027344 -26.34375 "/></g></g></g><g fill="#884a39" fill-opacity="1"><g transform="translate(218.540621, 259.667328)"><g/></g></g><g fill="#884a39" fill-opacity="1"><g transform="translate(234.818651, 259.667328)"><g><path d="M 11.320312 -17.460938 C 11.320312 -19.277344 11.136719 -25.046875 9.472656 -26.046875 C 8.621094 -26.5625 7.917969 -26.527344 6.957031 -26.527344 C 6.253906 -26.527344 5.625 -26.417969 5.03125 -26.082031 C 2.996094 -24.9375 2.921875 -18.019531 2.921875 -15.871094 C 2.921875 -14.28125 2.996094 -12.726562 2.996094 -11.136719 C 2.996094 -9.210938 3.070312 -1.925781 4.808594 -0.925781 C 5.585938 -0.480469 6.546875 -0.445312 7.4375 -0.445312 C 8.769531 -0.445312 9.839844 -1.035156 10.433594 -2.257812 C 11.210938 -3.847656 11.320312 -9.136719 11.320312 -11.023438 Z M 11.320312 -17.460938 "/></g></g></g><g fill="#884a39" fill-opacity="1"><g transform="translate(246.879144, 259.667328)"><g><path d="M 23.160156 -21.976562 C 23.160156 -22.382812 23.050781 -23.9375 22.9375 -24.269531 C 21.941406 -27.007812 13.503906 -26.5625 11.246094 -26.5625 C 9.324219 -26.5625 3.996094 -26.453125 2.625 -25.121094 C 2.070312 -24.566406 1.925781 -22.828125 1.925781 -22.050781 C 1.925781 -18.535156 7.695312 -22.308594 8.433594 -18.351562 C 8.582031 -17.460938 8.621094 -16.539062 8.621094 -15.648438 C 8.621094 -13.761719 8.546875 -11.914062 8.546875 -10.027344 C 8.546875 -8.027344 8.507812 -1.886719 10.359375 -0.777344 C 10.988281 -0.40625 11.914062 -0.445312 12.652344 -0.445312 C 13.503906 -0.445312 14.539062 -0.40625 15.207031 -1.035156 C 16.390625 -2.183594 16.5 -9.878906 16.5 -11.726562 C 16.5 -13.246094 16.425781 -14.726562 16.425781 -16.242188 C 16.425781 -18.460938 16.871094 -20.496094 19.535156 -20.496094 C 20.089844 -20.496094 20.609375 -20.421875 21.164062 -20.421875 C 22.234375 -20.421875 23.160156 -20.71875 23.160156 -21.976562 Z M 23.160156 -21.976562 "/></g></g></g></svg>