<svg xmlns="http://www.w3.org/2000/svg" xmlns:xlink="http://www.w3.org/1999/xlink" width="500" zoomAndPan="magnify" viewBox="0 0 375 374.999991" height="500" preserveAspectRatio="xMidYMid meet" version="1.0"><defs><g/><clipPath id="0110224466"><path d="M 112.5 82.464844 L 262.5 82.464844 L 262.5 232.464844 L 112.5 232.464844 Z M 112.5 82.464844 " clip-rule="nonzero"/></clipPath><clipPath id="d11bf0975f"><path d="M 112.5 99 L 262.5 99 L 262.5 215.964844 L 112.5 215.964844 Z M 112.5 99 " clip-rule="nonzero"/></clipPath></defs><rect x="-37.5" width="450" fill="#ffffff" y="-37.499999" height="449.999989" fill-opacity="1"/><rect x="-37.5" width="450" fill="#ffffff" y="-37.499999" height="449.999989" fill-opacity="1"/><rect x="-37.5" width="450" fill="#884a39" y="-37.499999" height="449.999989" fill-opacity="1"/><g fill="#f9e0bb" fill-opacity="1"><g transform="translate(93.545749, 288.964464)"><g/></g></g><g fill="#f9e0bb" fill-opacity="1"><g transform="translate(100.295749, 288.964464)"><g><path d="M 10.09375 0 L 6.296875 -13.375 L 6.1875 -13.375 C 6.363281 -11.09375 6.453125 -9.320312 6.453125 -8.0625 L 6.453125 0 L 2 0 L 2 -18.5625 L 8.6875 -18.5625 L 12.5625 -5.390625 L 12.65625 -5.390625 L 16.453125 -18.5625 L 23.140625 -18.5625 L 23.140625 0 L 18.53125 0 L 18.53125 -8.140625 C 18.53125 -8.554688 18.535156 -9.023438 18.546875 -9.546875 C 18.566406 -10.066406 18.625 -11.332031 18.71875 -13.34375 L 18.609375 -13.34375 L 14.859375 0 Z M 10.09375 0 "/></g></g></g><g fill="#f9e0bb" fill-opacity="1"><g transform="translate(125.424912, 288.964464)"><g><path d="M 13.390625 0 L 12.484375 -3.484375 L 6.453125 -3.484375 L 5.515625 0 L 0 0 L 6.0625 -18.640625 L 12.75 -18.640625 L 18.875 0 Z M 11.4375 -7.59375 L 10.640625 -10.640625 C 10.453125 -11.316406 10.222656 -12.191406 9.953125 -13.265625 C 9.691406 -14.335938 9.519531 -15.109375 9.4375 -15.578125 C 9.351562 -15.148438 9.195312 -14.4375 8.96875 -13.4375 C 8.75 -12.445312 8.253906 -10.5 7.484375 -7.59375 Z M 11.4375 -7.59375 "/></g></g></g><g fill="#f9e0bb" fill-opacity="1"><g transform="translate(144.297169, 288.964464)"><g><path d="M 14.140625 -5.640625 C 14.140625 -4.484375 13.847656 -3.457031 13.265625 -2.5625 C 12.679688 -1.675781 11.835938 -0.984375 10.734375 -0.484375 C 9.640625 0.00390625 8.351562 0.25 6.875 0.25 C 5.632812 0.25 4.59375 0.164062 3.75 0 C 2.914062 -0.175781 2.046875 -0.484375 1.140625 -0.921875 L 1.140625 -5.390625 C 2.097656 -4.890625 3.09375 -4.503906 4.125 -4.234375 C 5.15625 -3.960938 6.101562 -3.828125 6.96875 -3.828125 C 7.71875 -3.828125 8.265625 -3.953125 8.609375 -4.203125 C 8.953125 -4.460938 9.125 -4.796875 9.125 -5.203125 C 9.125 -5.460938 9.050781 -5.6875 8.90625 -5.875 C 8.769531 -6.0625 8.546875 -6.25 8.234375 -6.4375 C 7.929688 -6.632812 7.113281 -7.035156 5.78125 -7.640625 C 4.570312 -8.191406 3.660156 -8.722656 3.046875 -9.234375 C 2.441406 -9.753906 1.992188 -10.347656 1.703125 -11.015625 C 1.410156 -11.679688 1.265625 -12.472656 1.265625 -13.390625 C 1.265625 -15.097656 1.882812 -16.429688 3.125 -17.390625 C 4.375 -18.347656 6.085938 -18.828125 8.265625 -18.828125 C 10.179688 -18.828125 12.140625 -18.382812 14.140625 -17.5 L 12.609375 -13.625 C 10.867188 -14.414062 9.367188 -14.8125 8.109375 -14.8125 C 7.460938 -14.8125 6.988281 -14.695312 6.6875 -14.46875 C 6.394531 -14.238281 6.25 -13.957031 6.25 -13.625 C 6.25 -13.257812 6.4375 -12.929688 6.8125 -12.640625 C 7.1875 -12.359375 8.207031 -11.835938 9.875 -11.078125 C 11.476562 -10.347656 12.585938 -9.570312 13.203125 -8.75 C 13.828125 -7.925781 14.140625 -6.890625 14.140625 -5.640625 Z M 14.140625 -5.640625 "/></g></g></g><g fill="#f9e0bb" fill-opacity="1"><g transform="translate(159.298518, 288.964464)"><g><path d="M 10.1875 0 L 5.1875 0 L 5.1875 -14.453125 L 0.640625 -14.453125 L 0.640625 -18.5625 L 14.71875 -18.5625 L 14.71875 -14.453125 L 10.1875 -14.453125 Z M 10.1875 0 "/></g></g></g><g fill="#f9e0bb" fill-opacity="1"><g transform="translate(174.655229, 288.964464)"><g><path d="M 13.03125 0 L 2 0 L 2 -18.5625 L 13.03125 -18.5625 L 13.03125 -14.53125 L 7.015625 -14.53125 L 7.015625 -11.609375 L 12.578125 -11.609375 L 12.578125 -7.59375 L 7.015625 -7.59375 L 7.015625 -4.09375 L 13.03125 -4.09375 Z M 13.03125 0 "/></g></g></g><g fill="#f9e0bb" fill-opacity="1"><g transform="translate(188.920472, 288.964464)"><g><path d="M 7.015625 -6.75 L 7.015625 0 L 2 0 L 2 -18.5625 L 8.09375 -18.5625 C 13.132812 -18.5625 15.65625 -16.734375 15.65625 -13.078125 C 15.65625 -10.929688 14.601562 -9.269531 12.5 -8.09375 L 17.90625 0 L 12.21875 0 L 8.296875 -6.75 Z M 7.015625 -10.53125 L 7.953125 -10.53125 C 9.710938 -10.53125 10.59375 -11.300781 10.59375 -12.84375 C 10.59375 -14.125 9.734375 -14.765625 8.015625 -14.765625 L 7.015625 -14.765625 Z M 7.015625 -10.53125 "/></g></g></g><g fill="#f9e0bb" fill-opacity="1"><g transform="translate(206.510887, 288.964464)"><g><path d="M 10.09375 0 L 6.296875 -13.375 L 6.1875 -13.375 C 6.363281 -11.09375 6.453125 -9.320312 6.453125 -8.0625 L 6.453125 0 L 2 0 L 2 -18.5625 L 8.6875 -18.5625 L 12.5625 -5.390625 L 12.65625 -5.390625 L 16.453125 -18.5625 L 23.140625 -18.5625 L 23.140625 0 L 18.53125 0 L 18.53125 -8.140625 C 18.53125 -8.554688 18.535156 -9.023438 18.546875 -9.546875 C 18.566406 -10.066406 18.625 -11.332031 18.71875 -13.34375 L 18.609375 -13.34375 L 14.859375 0 Z M 10.09375 0 "/></g></g></g><g fill="#f9e0bb" fill-opacity="1"><g transform="translate(231.640051, 288.964464)"><g><path d="M 2 0 L 2 -18.5625 L 7.046875 -18.5625 L 7.046875 0 Z M 2 0 "/></g></g></g><g fill="#f9e0bb" fill-opacity="1"><g transform="translate(240.689088, 288.964464)"><g><path d="M 19.671875 0 L 13.109375 0 L 6.328125 -13.078125 L 6.203125 -13.078125 C 6.367188 -11.015625 6.453125 -9.441406 6.453125 -8.359375 L 6.453125 0 L 2 0 L 2 -18.5625 L 8.5625 -18.5625 L 15.3125 -5.65625 L 15.390625 -5.65625 C 15.265625 -7.53125 15.203125 -9.035156 15.203125 -10.171875 L 15.203125 -18.5625 L 19.671875 -18.5625 Z M 19.671875 0 "/></g></g></g><g fill="#f9e0bb" fill-opacity="1"><g transform="translate(262.366165, 288.964464)"><g><path d="M 17.765625 -9.671875 C 17.765625 -6.578125 16.910156 -4.191406 15.203125 -2.515625 C 13.492188 -0.835938 11.097656 0 8.015625 0 L 2 0 L 2 -18.5625 L 8.4375 -18.5625 C 11.414062 -18.5625 13.710938 -17.796875 15.328125 -16.265625 C 16.953125 -14.742188 17.765625 -12.546875 17.765625 -9.671875 Z M 12.5625 -9.5 C 12.5625 -11.195312 12.222656 -12.457031 11.546875 -13.28125 C 10.867188 -14.101562 9.847656 -14.515625 8.484375 -14.515625 L 7.015625 -14.515625 L 7.015625 -4.109375 L 8.140625 -4.109375 C 9.660156 -4.109375 10.773438 -4.550781 11.484375 -5.4375 C 12.203125 -6.320312 12.5625 -7.675781 12.5625 -9.5 Z M 12.5625 -9.5 "/></g></g></g><g clip-path="url(#0110224466)"><path fill="#ffffff" d="M 262.5 157.464844 C 262.5 158.691406 262.46875 159.917969 262.410156 161.144531 C 262.347656 162.371094 262.257812 163.59375 262.140625 164.816406 C 262.019531 166.039062 261.867188 167.253906 261.6875 168.46875 C 261.507812 169.683594 261.296875 170.894531 261.058594 172.097656 C 260.820312 173.300781 260.550781 174.496094 260.253906 175.6875 C 259.953125 176.878906 259.625 178.0625 259.269531 179.234375 C 258.914062 180.410156 258.53125 181.574219 258.117188 182.730469 C 257.703125 183.886719 257.261719 185.03125 256.789062 186.167969 C 256.320312 187.300781 255.824219 188.421875 255.300781 189.53125 C 254.773438 190.640625 254.222656 191.738281 253.644531 192.820312 C 253.066406 193.902344 252.460938 194.96875 251.828125 196.023438 C 251.199219 197.074219 250.542969 198.113281 249.859375 199.132812 C 249.179688 200.152344 248.472656 201.15625 247.742188 202.140625 C 247.007812 203.128906 246.253906 204.09375 245.476562 205.042969 C 244.695312 205.992188 243.894531 206.921875 243.070312 207.832031 C 242.246094 208.742188 241.402344 209.628906 240.53125 210.496094 C 239.664062 211.367188 238.777344 212.210938 237.867188 213.035156 C 236.957031 213.859375 236.027344 214.660156 235.078125 215.441406 C 234.128906 216.21875 233.164062 216.972656 232.175781 217.707031 C 231.191406 218.4375 230.1875 219.144531 229.167969 219.824219 C 228.148438 220.507812 227.109375 221.164062 226.058594 221.792969 C 225.003906 222.425781 223.9375 223.03125 222.855469 223.609375 C 221.773438 224.1875 220.675781 224.738281 219.566406 225.265625 C 218.457031 225.789062 217.335938 226.285156 216.203125 226.753906 C 215.066406 227.226562 213.921875 227.667969 212.765625 228.082031 C 211.609375 228.492188 210.445312 228.878906 209.269531 229.234375 C 208.097656 229.589844 206.914062 229.917969 205.722656 230.21875 C 204.53125 230.515625 203.335938 230.785156 202.132812 231.023438 C 200.929688 231.261719 199.71875 231.472656 198.503906 231.652344 C 197.289062 231.832031 196.074219 231.984375 194.851562 232.105469 C 193.628906 232.222656 192.40625 232.3125 191.179688 232.375 C 189.953125 232.433594 188.726562 232.464844 187.5 232.464844 C 186.273438 232.464844 185.046875 232.433594 183.820312 232.375 C 182.59375 232.3125 181.371094 232.222656 180.148438 232.105469 C 178.925781 231.984375 177.710938 231.832031 176.496094 231.652344 C 175.28125 231.472656 174.070312 231.261719 172.867188 231.023438 C 171.664062 230.785156 170.46875 230.515625 169.277344 230.21875 C 168.085938 229.917969 166.902344 229.589844 165.730469 229.234375 C 164.554688 228.878906 163.390625 228.492188 162.234375 228.082031 C 161.078125 227.667969 159.933594 227.226562 158.796875 226.753906 C 157.664062 226.285156 156.542969 225.789062 155.433594 225.265625 C 154.324219 224.738281 153.226562 224.1875 152.144531 223.609375 C 151.0625 223.03125 149.996094 222.425781 148.941406 221.792969 C 147.890625 221.164062 146.851562 220.507812 145.832031 219.824219 C 144.8125 219.144531 143.808594 218.4375 142.824219 217.707031 C 141.835938 216.972656 140.871094 216.21875 139.921875 215.441406 C 138.972656 214.660156 138.042969 213.859375 137.132812 213.035156 C 136.222656 212.210938 135.335938 211.367188 134.46875 210.496094 C 133.597656 209.628906 132.753906 208.742188 131.929688 207.832031 C 131.105469 206.921875 130.304688 205.992188 129.523438 205.042969 C 128.746094 204.09375 127.992188 203.128906 127.257812 202.140625 C 126.527344 201.15625 125.820312 200.152344 125.140625 199.132812 C 124.457031 198.113281 123.800781 197.074219 123.171875 196.023438 C 122.539062 194.96875 121.933594 193.902344 121.355469 192.820312 C 120.777344 191.738281 120.226562 190.640625 119.699219 189.53125 C 119.175781 188.421875 118.679688 187.300781 118.210938 186.167969 C 117.738281 185.03125 117.296875 183.886719 116.882812 182.730469 C 116.46875 181.574219 116.085938 180.410156 115.730469 179.234375 C 115.375 178.0625 115.046875 176.878906 114.746094 175.6875 C 114.449219 174.496094 114.179688 173.300781 113.941406 172.097656 C 113.703125 170.894531 113.492188 169.683594 113.3125 168.46875 C 113.132812 167.253906 112.980469 166.039062 112.859375 164.816406 C 112.742188 163.59375 112.652344 162.371094 112.589844 161.144531 C 112.53125 159.917969 112.5 158.691406 112.5 157.464844 C 112.5 156.238281 112.53125 155.011719 112.589844 153.785156 C 112.652344 152.558594 112.742188 151.335938 112.859375 150.113281 C 112.980469 148.890625 113.132812 147.675781 113.3125 146.460938 C 113.492188 145.246094 113.703125 144.035156 113.941406 142.832031 C 114.179688 141.628906 114.449219 140.433594 114.746094 139.242188 C 115.046875 138.050781 115.375 136.867188 115.730469 135.695312 C 116.085938 134.519531 116.46875 133.355469 116.882812 132.199219 C 117.296875 131.042969 117.738281 129.898438 118.210938 128.761719 C 118.679688 127.628906 119.175781 126.507812 119.699219 125.398438 C 120.226562 124.289062 120.777344 123.191406 121.355469 122.109375 C 121.933594 121.027344 122.539062 119.960938 123.171875 118.90625 C 123.800781 117.855469 124.457031 116.816406 125.140625 115.796875 C 125.820312 114.777344 126.527344 113.773438 127.257812 112.789062 C 127.992188 111.800781 128.746094 110.835938 129.523438 109.886719 C 130.304688 108.9375 131.105469 108.007812 131.929688 107.097656 C 132.753906 106.1875 133.597656 105.300781 134.46875 104.433594 C 135.335938 103.5625 136.222656 102.71875 137.132812 101.894531 C 138.042969 101.070312 138.972656 100.269531 139.921875 99.488281 C 140.871094 98.710938 141.835938 97.957031 142.824219 97.222656 C 143.808594 96.492188 144.8125 95.785156 145.832031 95.105469 C 146.851562 94.421875 147.890625 93.765625 148.941406 93.136719 C 149.996094 92.503906 151.0625 91.898438 152.144531 91.320312 C 153.226562 90.742188 154.324219 90.191406 155.433594 89.664062 C 156.542969 89.140625 157.664062 88.644531 158.796875 88.171875 C 159.933594 87.703125 161.078125 87.261719 162.234375 86.847656 C 163.390625 86.433594 164.554688 86.050781 165.730469 85.695312 C 166.902344 85.339844 168.085938 85.011719 169.277344 84.710938 C 170.46875 84.414062 171.664062 84.144531 172.867188 83.90625 C 174.070312 83.667969 175.28125 83.457031 176.496094 83.277344 C 177.710938 83.097656 178.925781 82.945312 180.148438 82.824219 C 181.371094 82.707031 182.59375 82.617188 183.820312 82.554688 C 185.046875 82.496094 186.273438 82.464844 187.5 82.464844 C 188.726562 82.464844 189.953125 82.496094 191.179688 82.554688 C 192.40625 82.617188 193.628906 82.707031 194.851562 82.824219 C 196.074219 82.945312 197.289062 83.097656 198.503906 83.277344 C 199.71875 83.457031 200.929688 83.667969 202.132812 83.90625 C 203.335938 84.144531 204.53125 84.414062 205.722656 84.710938 C 206.914062 85.011719 208.097656 85.339844 209.269531 85.695312 C 210.445312 86.050781 211.609375 86.433594 212.765625 86.847656 C 213.921875 87.261719 215.066406 87.703125 216.203125 88.171875 C 217.335938 88.644531 218.457031 89.140625 219.566406 89.664062 C 220.675781 90.191406 221.773438 90.742188 222.855469 91.320312 C 223.9375 91.898438 225.003906 92.503906 226.058594 93.136719 C 227.109375 93.765625 228.148438 94.421875 229.167969 95.105469 C 230.1875 95.785156 231.191406 96.492188 232.175781 97.222656 C 233.164062 97.957031 234.128906 98.710938 235.078125 99.488281 C 236.027344 100.269531 236.957031 101.070312 237.867188 101.894531 C 238.777344 102.71875 239.664062 103.5625 240.53125 104.433594 C 241.402344 105.300781 242.246094 106.1875 243.070312 107.097656 C 243.894531 108.007812 244.695312 108.9375 245.476562 109.886719 C 246.253906 110.835938 247.007812 111.800781 247.742188 112.789062 C 248.472656 113.773438 249.179688 114.777344 249.859375 115.796875 C 250.542969 116.816406 251.199219 117.855469 251.828125 118.90625 C 252.460938 119.960938 253.066406 121.027344 253.644531 122.109375 C 254.222656 123.191406 254.773438 124.289062 255.300781 125.398438 C 255.824219 126.507812 256.320312 127.628906 256.789062 128.761719 C 257.261719 129.898438 257.703125 131.042969 258.117188 132.199219 C 258.53125 133.355469 258.914062 134.519531 259.269531 135.695312 C 259.625 136.867188 259.953125 138.050781 260.253906 139.242188 C 260.550781 140.433594 260.820312 141.628906 261.058594 142.832031 C 261.296875 144.035156 261.507812 145.246094 261.6875 146.460938 C 261.867188 147.675781 262.019531 148.890625 262.140625 150.113281 C 262.257812 151.335938 262.347656 152.558594 262.410156 153.785156 C 262.46875 155.011719 262.5 156.238281 262.5 157.464844 Z M 262.5 157.464844 " fill-opacity="1" fill-rule="nonzero"/></g><path fill="#212121" d="M 187.5 225.3125 C 150.054688 225.3125 119.652344 194.910156 119.652344 157.464844 C 119.652344 120.019531 150.054688 89.617188 187.5 89.617188 C 224.945312 89.617188 255.347656 120.019531 255.347656 157.464844 C 255.347656 194.910156 224.945312 225.3125 187.5 225.3125 Z M 187.5 91.292969 C 150.949219 91.292969 121.332031 120.914062 121.332031 157.464844 C 121.332031 194.015625 151.0625 223.632812 187.5 223.632812 C 224.050781 223.632812 253.667969 193.902344 253.667969 157.464844 C 253.667969 120.914062 224.050781 91.292969 187.5 91.292969 Z M 187.5 91.292969 " fill-opacity="1" fill-rule="nonzero"/><g clip-path="url(#d11bf0975f)"><path fill="#c38154" d="M 189.148438 126.632812 C 188.816406 126.632812 188.40625 126.632812 188.078125 126.632812 C 179.84375 126.632812 172.105469 129.84375 166.34375 135.605469 C 160.496094 141.453125 157.367188 149.109375 157.367188 157.339844 C 157.367188 165.574219 160.578125 173.3125 166.34375 179.074219 C 168.398438 181.132812 170.707031 182.863281 173.175781 184.179688 C 144.773438 175.535156 136.210938 156.023438 136.210938 156.023438 C 136.210938 156.023438 160.085938 119.304688 213.679688 124.820312 L 216.644531 116.589844 C 216.644531 116.589844 216.5625 116.589844 216.5625 116.589844 L 222.984375 99.136719 L 213.84375 116.179688 C 157.449219 108.6875 112.5 156.351562 112.5 156.351562 C 112.5 156.351562 143.949219 189.777344 186.429688 188.132812 C 187.007812 188.132812 187.5 188.214844 188.078125 188.214844 C 196.308594 188.214844 204.046875 185.003906 209.8125 179.242188 C 215.65625 173.394531 218.785156 165.738281 218.785156 157.507812 C 218.785156 149.273438 215.574219 141.535156 209.8125 135.773438 C 208.164062 134.125 206.433594 132.726562 204.542969 131.574219 C 230.722656 140.710938 238.707031 158.90625 238.707031 158.90625 C 238.707031 158.90625 214.832031 195.625 161.238281 190.109375 L 158.273438 198.339844 C 158.273438 198.339844 158.355469 198.339844 158.355469 198.339844 L 151.933594 215.792969 L 161.074219 198.585938 C 217.550781 206.078125 262.5 158.410156 262.5 158.410156 C 262.5 158.410156 231.296875 125.316406 189.148438 126.632812 Z M 188.160156 178.417969 C 176.550781 178.417969 167.082031 168.949219 167.082031 157.339844 C 167.082031 145.734375 176.550781 136.265625 188.160156 136.265625 C 199.765625 136.265625 209.234375 145.734375 209.234375 157.339844 C 209.234375 168.949219 199.765625 178.417969 188.160156 178.417969 Z M 188.160156 178.417969 " fill-opacity="1" fill-rule="nonzero"/></g><path fill="#c38154" d="M 195.402344 157.339844 C 195.402344 157.859375 195.351562 158.375 195.25 158.882812 C 195.148438 159.390625 195 159.886719 194.800781 160.367188 C 194.601562 160.84375 194.359375 161.300781 194.070312 161.730469 C 193.78125 162.164062 193.457031 162.5625 193.089844 162.929688 C 192.722656 163.296875 192.324219 163.625 191.890625 163.914062 C 191.460938 164.199219 191.003906 164.445312 190.523438 164.644531 C 190.046875 164.839844 189.550781 164.992188 189.042969 165.09375 C 188.53125 165.195312 188.019531 165.246094 187.5 165.246094 C 186.980469 165.246094 186.46875 165.195312 185.957031 165.09375 C 185.449219 164.992188 184.953125 164.839844 184.476562 164.644531 C 183.996094 164.445312 183.539062 164.199219 183.109375 163.914062 C 182.675781 163.625 182.277344 163.296875 181.910156 162.929688 C 181.542969 162.5625 181.21875 162.164062 180.929688 161.730469 C 180.640625 161.300781 180.398438 160.84375 180.199219 160.367188 C 180 159.886719 179.851562 159.390625 179.75 158.882812 C 179.648438 158.375 179.597656 157.859375 179.597656 157.339844 C 179.597656 156.824219 179.648438 156.308594 179.75 155.800781 C 179.851562 155.289062 180 154.796875 180.199219 154.316406 C 180.398438 153.835938 180.640625 153.382812 180.929688 152.949219 C 181.21875 152.519531 181.542969 152.121094 181.910156 151.753906 C 182.277344 151.386719 182.675781 151.058594 183.109375 150.769531 C 183.539062 150.480469 183.996094 150.238281 184.476562 150.039062 C 184.953125 149.839844 185.449219 149.691406 185.957031 149.589844 C 186.46875 149.488281 186.980469 149.4375 187.5 149.4375 C 188.019531 149.4375 188.53125 149.488281 189.042969 149.589844 C 189.550781 149.691406 190.046875 149.839844 190.523438 150.039062 C 191.003906 150.238281 191.460938 150.480469 191.890625 150.769531 C 192.324219 151.058594 192.722656 151.386719 193.089844 151.753906 C 193.457031 152.121094 193.78125 152.519531 194.070312 152.949219 C 194.359375 153.382812 194.601562 153.835938 194.800781 154.316406 C 195 154.796875 195.148438 155.289062 195.25 155.800781 C 195.351562 156.308594 195.402344 156.824219 195.402344 157.339844 Z M 195.402344 157.339844 " fill-opacity="1" fill-rule="nonzero"/><g fill="#f9e0bb" fill-opacity="1"><g transform="translate(149.538445, 256.764636)"><g><path d="M 19.65625 -0.484375 C 19.632812 -0.410156 19.625 -0.34375 19.625 -0.28125 C 19.632812 -0.21875 19.632812 -0.171875 19.625 -0.140625 C 19.613281 -0.117188 19.582031 -0.125 19.53125 -0.15625 C 19.476562 -0.195312 19.382812 -0.289062 19.25 -0.4375 L 18.90625 -0.546875 L 18.765625 -0.390625 C 18.734375 -0.367188 18.707031 -0.347656 18.6875 -0.328125 C 18.613281 -0.265625 18.546875 -0.253906 18.484375 -0.296875 C 18.429688 -0.347656 18.359375 -0.410156 18.265625 -0.484375 C 18.203125 -0.546875 18.15625 -0.585938 18.125 -0.609375 C 18.09375 -0.628906 18.070312 -0.628906 18.0625 -0.609375 C 18.0625 -0.597656 18.0625 -0.566406 18.0625 -0.515625 C 18.070312 -0.472656 18.070312 -0.421875 18.0625 -0.359375 C 18.0625 -0.328125 18.039062 -0.28125 18 -0.21875 C 17.957031 -0.15625 17.9375 -0.109375 17.9375 -0.078125 C 17.914062 0.00390625 17.882812 0.03125 17.84375 0 C 17.8125 -0.03125 17.78125 -0.0390625 17.75 -0.03125 C 17.726562 -0.03125 17.703125 -0.0351562 17.671875 -0.046875 C 17.640625 -0.0664062 17.601562 -0.09375 17.5625 -0.125 C 17.53125 -0.164062 17.488281 -0.222656 17.4375 -0.296875 C 17.40625 -0.390625 17.375 -0.460938 17.34375 -0.515625 C 17.320312 -0.578125 17.296875 -0.640625 17.265625 -0.703125 C 17.242188 -0.765625 17.21875 -0.835938 17.1875 -0.921875 C 17.15625 -1.015625 17.125 -1.128906 17.09375 -1.265625 C 17.0625 -1.410156 17.023438 -1.671875 16.984375 -2.046875 C 16.941406 -2.421875 16.890625 -2.875 16.828125 -3.40625 C 16.773438 -3.9375 16.71875 -4.53125 16.65625 -5.1875 C 16.59375 -5.851562 16.523438 -6.546875 16.453125 -7.265625 C 16.390625 -7.984375 16.320312 -8.710938 16.25 -9.453125 C 16.1875 -10.203125 16.125 -10.925781 16.0625 -11.625 C 16 -12.320312 15.941406 -12.984375 15.890625 -13.609375 C 15.835938 -14.234375 15.785156 -14.78125 15.734375 -15.25 L 10.34375 -1.78125 C 10.226562 -1.519531 10.097656 -1.285156 9.953125 -1.078125 C 9.816406 -0.878906 9.675781 -0.710938 9.53125 -0.578125 C 9.394531 -0.453125 9.253906 -0.367188 9.109375 -0.328125 C 8.972656 -0.285156 8.863281 -0.296875 8.78125 -0.359375 C 8.644531 -0.441406 8.535156 -0.546875 8.453125 -0.671875 C 8.367188 -0.804688 8.296875 -0.945312 8.234375 -1.09375 C 8.179688 -1.238281 8.132812 -1.390625 8.09375 -1.546875 C 8.050781 -1.703125 8 -1.863281 7.9375 -2.03125 C 7.851562 -2.28125 7.738281 -2.6875 7.59375 -3.25 C 7.457031 -3.8125 7.300781 -4.46875 7.125 -5.21875 C 6.957031 -5.976562 6.773438 -6.800781 6.578125 -7.6875 C 6.378906 -8.582031 6.179688 -9.488281 5.984375 -10.40625 C 5.785156 -11.320312 5.585938 -12.222656 5.390625 -13.109375 C 5.203125 -13.992188 5.023438 -14.8125 4.859375 -15.5625 C 4.816406 -15.25 4.75 -14.800781 4.65625 -14.21875 C 4.5625 -13.632812 4.445312 -12.96875 4.3125 -12.21875 C 4.1875 -11.46875 4.046875 -10.660156 3.890625 -9.796875 C 3.742188 -8.929688 3.597656 -8.066406 3.453125 -7.203125 C 3.316406 -6.347656 3.175781 -5.515625 3.03125 -4.703125 C 2.894531 -3.898438 2.769531 -3.171875 2.65625 -2.515625 C 2.550781 -1.867188 2.460938 -1.332031 2.390625 -0.90625 C 2.316406 -0.476562 2.273438 -0.210938 2.265625 -0.109375 C 2.265625 -0.0234375 2.25 0.0546875 2.21875 0.140625 C 2.1875 0.210938 2.144531 0.289062 2.09375 0.375 C 2.050781 0.457031 1.988281 0.539062 1.90625 0.625 C 1.84375 0.644531 1.773438 0.664062 1.703125 0.6875 C 1.628906 0.71875 1.566406 0.722656 1.515625 0.703125 C 1.453125 0.671875 1.414062 0.625 1.40625 0.5625 C 1.394531 0.5 1.347656 0.4375 1.265625 0.375 C 1.210938 0.332031 1.15625 0.300781 1.09375 0.28125 C 1.03125 0.257812 0.972656 0.203125 0.921875 0.109375 C 0.921875 0.046875 0.910156 -0.00390625 0.890625 -0.046875 C 0.890625 -0.0546875 0.882812 -0.0664062 0.875 -0.078125 C 0.863281 -0.0859375 0.847656 -0.101562 0.828125 -0.125 C 0.804688 -0.15625 0.753906 -0.210938 0.671875 -0.296875 C 0.617188 -0.410156 0.582031 -0.53125 0.5625 -0.65625 C 0.539062 -0.78125 0.550781 -0.941406 0.59375 -1.140625 C 0.613281 -1.191406 0.648438 -1.347656 0.703125 -1.609375 C 0.753906 -1.867188 0.816406 -2.1875 0.890625 -2.5625 C 0.960938 -2.9375 1.039062 -3.347656 1.125 -3.796875 C 1.21875 -4.253906 1.304688 -4.710938 1.390625 -5.171875 C 1.484375 -5.640625 1.566406 -6.085938 1.640625 -6.515625 C 1.710938 -6.953125 1.773438 -7.335938 1.828125 -7.671875 C 1.878906 -7.960938 1.960938 -8.375 2.078125 -8.90625 C 2.203125 -9.4375 2.34375 -10.023438 2.5 -10.671875 C 2.664062 -11.328125 2.835938 -12.007812 3.015625 -12.71875 C 3.191406 -13.4375 3.363281 -14.125 3.53125 -14.78125 C 3.695312 -15.445312 3.847656 -16.054688 3.984375 -16.609375 C 4.117188 -17.171875 4.222656 -17.617188 4.296875 -17.953125 C 4.273438 -17.992188 4.257812 -18.035156 4.25 -18.078125 C 4.25 -18.128906 4.25 -18.175781 4.25 -18.21875 C 4.207031 -18.3125 4.210938 -18.359375 4.265625 -18.359375 C 4.316406 -18.367188 4.351562 -18.390625 4.375 -18.421875 C 4.375 -18.429688 4.378906 -18.441406 4.390625 -18.453125 C 4.398438 -18.460938 4.40625 -18.476562 4.40625 -18.5 C 4.40625 -18.550781 4.414062 -18.578125 4.4375 -18.578125 C 4.4375 -18.691406 4.453125 -18.765625 4.484375 -18.796875 C 4.515625 -18.835938 4.550781 -18.859375 4.59375 -18.859375 C 4.632812 -18.867188 4.671875 -18.875 4.703125 -18.875 C 4.742188 -18.875 4.765625 -18.898438 4.765625 -18.953125 C 4.785156 -19.066406 4.804688 -19.144531 4.828125 -19.1875 C 4.847656 -19.226562 4.875 -19.242188 4.90625 -19.234375 C 4.9375 -19.234375 4.976562 -19.21875 5.03125 -19.1875 C 5.082031 -19.15625 5.148438 -19.125 5.234375 -19.09375 C 5.273438 -19.070312 5.3125 -19.0625 5.34375 -19.0625 C 5.375 -19.070312 5.40625 -19.070312 5.4375 -19.0625 C 5.476562 -19.0625 5.519531 -19.050781 5.5625 -19.03125 C 5.613281 -19.019531 5.675781 -18.988281 5.75 -18.9375 C 5.800781 -18.882812 5.847656 -18.859375 5.890625 -18.859375 C 5.929688 -18.859375 5.960938 -18.867188 5.984375 -18.890625 C 6.015625 -18.921875 6.039062 -18.953125 6.0625 -18.984375 C 6.09375 -19.023438 6.113281 -19.0625 6.125 -19.09375 C 6.15625 -19.132812 6.195312 -19.15625 6.25 -19.15625 C 6.300781 -19.15625 6.347656 -19.132812 6.390625 -19.09375 C 6.441406 -19.019531 6.484375 -18.96875 6.515625 -18.9375 C 6.546875 -18.914062 6.566406 -18.894531 6.578125 -18.875 C 6.597656 -18.863281 6.609375 -18.859375 6.609375 -18.859375 C 6.609375 -18.859375 6.613281 -18.84375 6.625 -18.8125 C 6.75 -18.414062 6.863281 -18 6.96875 -17.5625 C 7.070312 -17.132812 7.175781 -16.644531 7.28125 -16.09375 C 7.394531 -15.539062 7.523438 -14.898438 7.671875 -14.171875 C 7.816406 -13.453125 8.003906 -12.597656 8.234375 -11.609375 C 8.617188 -9.941406 8.953125 -8.539062 9.234375 -7.40625 C 9.515625 -6.269531 9.75 -5.414062 9.9375 -4.84375 C 10.113281 -5.238281 10.328125 -5.726562 10.578125 -6.3125 C 10.828125 -6.894531 11.09375 -7.523438 11.375 -8.203125 C 11.65625 -8.890625 11.945312 -9.597656 12.25 -10.328125 C 12.5625 -11.066406 12.867188 -11.796875 13.171875 -12.515625 C 13.472656 -13.234375 13.757812 -13.921875 14.03125 -14.578125 C 14.3125 -15.234375 14.554688 -15.828125 14.765625 -16.359375 C 14.984375 -16.890625 15.164062 -17.332031 15.3125 -17.6875 C 15.46875 -18.050781 15.566406 -18.285156 15.609375 -18.390625 C 15.660156 -18.515625 15.703125 -18.613281 15.734375 -18.6875 C 15.765625 -18.769531 15.800781 -18.832031 15.84375 -18.875 C 15.875 -18.945312 15.910156 -19 15.953125 -19.03125 C 16.003906 -19.0625 16.0625 -19.0625 16.125 -19.03125 C 16.144531 -19.019531 16.164062 -19.007812 16.1875 -19 C 16.207031 -18.976562 16.226562 -18.960938 16.25 -18.953125 C 16.269531 -18.953125 16.289062 -18.945312 16.3125 -18.9375 C 16.320312 -18.976562 16.335938 -19 16.359375 -19 C 16.390625 -19.007812 16.421875 -19.015625 16.453125 -19.015625 C 16.484375 -19.003906 16.523438 -18.992188 16.578125 -18.984375 L 16.671875 -18.984375 C 16.691406 -19.003906 16.710938 -19.019531 16.734375 -19.03125 C 16.765625 -19.039062 16.796875 -19.035156 16.828125 -19.015625 C 16.898438 -18.960938 16.953125 -18.957031 16.984375 -19 C 17.015625 -19.039062 17.066406 -19.0625 17.140625 -19.0625 C 17.179688 -19.0625 17.21875 -19.066406 17.25 -19.078125 C 17.28125 -19.085938 17.304688 -19.097656 17.328125 -19.109375 C 17.359375 -19.117188 17.378906 -19.140625 17.390625 -19.171875 C 17.421875 -19.171875 17.445312 -19.164062 17.46875 -19.15625 C 17.5 -19.144531 17.519531 -19.132812 17.53125 -19.125 L 17.578125 -19.09375 C 17.597656 -19.050781 17.632812 -18.894531 17.6875 -18.625 C 17.738281 -18.363281 17.796875 -18.035156 17.859375 -17.640625 C 17.929688 -17.253906 18 -16.832031 18.0625 -16.375 C 18.132812 -15.914062 18.195312 -15.476562 18.25 -15.0625 C 18.257812 -14.925781 18.289062 -14.617188 18.34375 -14.140625 C 18.40625 -13.660156 18.46875 -13.070312 18.53125 -12.375 C 18.601562 -11.6875 18.679688 -10.921875 18.765625 -10.078125 C 18.859375 -9.234375 18.945312 -8.378906 19.03125 -7.515625 C 19.125 -6.660156 19.207031 -5.820312 19.28125 -5 C 19.363281 -4.175781 19.429688 -3.4375 19.484375 -2.78125 C 19.546875 -2.132812 19.59375 -1.601562 19.625 -1.1875 C 19.65625 -0.769531 19.664062 -0.535156 19.65625 -0.484375 Z M 19.65625 -0.484375 "/></g></g><g transform="translate(170.566275, 256.764636)"><g><path d="M 9.53125 -4.8125 C 9.53125 -4.71875 9.535156 -4.601562 9.546875 -4.46875 C 9.554688 -4.332031 9.5625 -4.179688 9.5625 -4.015625 C 9.5625 -3.804688 9.53125 -3.546875 9.46875 -3.234375 C 9.40625 -2.921875 9.304688 -2.59375 9.171875 -2.25 C 9.035156 -1.90625 8.851562 -1.5625 8.625 -1.21875 C 8.394531 -0.882812 8.113281 -0.578125 7.78125 -0.296875 C 7.445312 -0.0234375 7.050781 0.191406 6.59375 0.359375 C 6.144531 0.535156 5.628906 0.625 5.046875 0.625 C 4.523438 0.625 3.992188 0.523438 3.453125 0.328125 C 2.921875 0.128906 2.429688 -0.175781 1.984375 -0.59375 C 1.535156 -1.007812 1.171875 -1.539062 0.890625 -2.1875 C 0.609375 -2.84375 0.46875 -3.617188 0.46875 -4.515625 C 0.46875 -5.078125 0.535156 -5.628906 0.671875 -6.171875 C 0.816406 -6.710938 1.007812 -7.222656 1.25 -7.703125 C 1.5 -8.191406 1.785156 -8.640625 2.109375 -9.046875 C 2.441406 -9.453125 2.789062 -9.800781 3.15625 -10.09375 C 3.519531 -10.394531 3.894531 -10.628906 4.28125 -10.796875 C 4.675781 -10.960938 5.0625 -11.046875 5.4375 -11.046875 C 6.070312 -11.046875 6.597656 -10.941406 7.015625 -10.734375 C 7.429688 -10.535156 7.765625 -10.285156 8.015625 -9.984375 C 8.265625 -9.691406 8.4375 -9.375 8.53125 -9.03125 C 8.632812 -8.695312 8.6875 -8.394531 8.6875 -8.125 C 8.6875 -7.851562 8.625 -7.546875 8.5 -7.203125 C 8.375 -6.867188 8.164062 -6.550781 7.875 -6.25 C 7.582031 -5.945312 7.203125 -5.691406 6.734375 -5.484375 C 6.265625 -5.285156 5.691406 -5.1875 5.015625 -5.1875 C 4.660156 -5.1875 4.335938 -5.234375 4.046875 -5.328125 C 3.765625 -5.429688 3.515625 -5.5625 3.296875 -5.71875 C 3.078125 -5.875 2.890625 -6.039062 2.734375 -6.21875 C 2.578125 -6.394531 2.445312 -6.5625 2.34375 -6.71875 C 2.1875 -6.175781 2.109375 -5.539062 2.109375 -4.8125 C 2.109375 -4.3125 2.179688 -3.859375 2.328125 -3.453125 C 2.472656 -3.054688 2.671875 -2.71875 2.921875 -2.4375 C 3.179688 -2.15625 3.484375 -1.9375 3.828125 -1.78125 C 4.179688 -1.632812 4.570312 -1.5625 5 -1.5625 C 5.519531 -1.5625 5.976562 -1.648438 6.375 -1.828125 C 6.769531 -2.015625 7.113281 -2.242188 7.40625 -2.515625 C 7.707031 -2.785156 7.960938 -3.082031 8.171875 -3.40625 C 8.390625 -3.726562 8.578125 -4.019531 8.734375 -4.28125 C 8.898438 -4.550781 9.039062 -4.773438 9.15625 -4.953125 C 9.269531 -5.128906 9.382812 -5.210938 9.5 -5.203125 C 9.550781 -5.203125 9.578125 -5.160156 9.578125 -5.078125 C 9.578125 -5.035156 9.570312 -4.988281 9.5625 -4.9375 C 9.5625 -4.894531 9.550781 -4.851562 9.53125 -4.8125 Z M 5.5625 -9.71875 C 5.40625 -9.71875 5.203125 -9.679688 4.953125 -9.609375 C 4.703125 -9.546875 4.4375 -9.429688 4.15625 -9.265625 C 3.882812 -9.097656 3.609375 -8.867188 3.328125 -8.578125 C 3.054688 -8.296875 2.820312 -7.9375 2.625 -7.5 C 2.75 -7.5625 2.851562 -7.613281 2.9375 -7.65625 C 3.03125 -7.695312 3.097656 -7.71875 3.140625 -7.71875 C 3.160156 -7.71875 3.1875 -7.703125 3.21875 -7.671875 C 3.414062 -7.328125 3.664062 -7.082031 3.96875 -6.9375 C 4.28125 -6.789062 4.625 -6.71875 5 -6.71875 C 5.289062 -6.71875 5.546875 -6.769531 5.765625 -6.875 C 5.984375 -6.976562 6.160156 -7.109375 6.296875 -7.265625 C 6.441406 -7.421875 6.546875 -7.59375 6.609375 -7.78125 C 6.671875 -7.96875 6.703125 -8.15625 6.703125 -8.34375 C 6.703125 -8.738281 6.597656 -9.066406 6.390625 -9.328125 C 6.191406 -9.585938 5.914062 -9.71875 5.5625 -9.71875 Z M 5.5625 -9.71875 "/></g></g><g transform="translate(180.954946, 256.764636)"><g><path d="M 13.96875 -0.890625 C 13.988281 -0.828125 14.003906 -0.769531 14.015625 -0.71875 C 14.035156 -0.675781 14.046875 -0.632812 14.046875 -0.59375 C 14.046875 -0.507812 14.007812 -0.460938 13.9375 -0.453125 C 13.875 -0.441406 13.804688 -0.425781 13.734375 -0.40625 C 13.722656 -0.394531 13.707031 -0.351562 13.6875 -0.28125 C 13.664062 -0.207031 13.640625 -0.125 13.609375 -0.03125 C 13.578125 0.0507812 13.53125 0.125 13.46875 0.1875 C 13.40625 0.257812 13.316406 0.296875 13.203125 0.296875 C 12.828125 0.273438 12.535156 0.195312 12.328125 0.0625 C 12.117188 -0.0703125 11.957031 -0.257812 11.84375 -0.5 C 11.738281 -0.738281 11.671875 -1.019531 11.640625 -1.34375 C 11.617188 -1.675781 11.609375 -2.046875 11.609375 -2.453125 C 11.609375 -2.929688 11.628906 -3.425781 11.671875 -3.9375 C 11.710938 -4.457031 11.757812 -4.960938 11.8125 -5.453125 C 11.863281 -5.953125 11.910156 -6.414062 11.953125 -6.84375 C 11.992188 -7.28125 12.015625 -7.65625 12.015625 -7.96875 C 12.015625 -8.414062 11.972656 -8.757812 11.890625 -9 C 11.816406 -9.25 11.71875 -9.375 11.59375 -9.375 C 11.53125 -9.375 11.367188 -9.191406 11.109375 -8.828125 C 10.859375 -8.460938 10.550781 -7.910156 10.1875 -7.171875 C 9.832031 -6.429688 9.453125 -5.503906 9.046875 -4.390625 C 8.640625 -3.273438 8.253906 -1.96875 7.890625 -0.46875 C 7.867188 -0.40625 7.859375 -0.335938 7.859375 -0.265625 C 7.859375 -0.191406 7.851562 -0.125 7.84375 -0.0625 C 7.832031 -0.0078125 7.8125 0.03125 7.78125 0.0625 C 7.75 0.101562 7.703125 0.125 7.640625 0.125 C 7.523438 0.125 7.429688 0.0976562 7.359375 0.046875 C 7.285156 0.00390625 7.222656 -0.0390625 7.171875 -0.09375 C 7.117188 -0.15625 7.070312 -0.207031 7.03125 -0.25 C 6.988281 -0.300781 6.929688 -0.328125 6.859375 -0.328125 C 6.828125 -0.328125 6.800781 -0.304688 6.78125 -0.265625 C 6.769531 -0.234375 6.75 -0.191406 6.71875 -0.140625 C 6.695312 -0.0976562 6.664062 -0.0546875 6.625 -0.015625 C 6.59375 0.015625 6.546875 0.03125 6.484375 0.03125 C 6.429688 0.03125 6.375 0.0195312 6.3125 0 C 6.25 -0.03125 6.1875 -0.0859375 6.125 -0.171875 C 6.0625 -0.265625 6.007812 -0.398438 5.96875 -0.578125 C 5.9375 -0.765625 5.921875 -1.007812 5.921875 -1.3125 L 5.921875 -1.90625 C 5.921875 -2.03125 5.929688 -2.222656 5.953125 -2.484375 C 5.984375 -2.742188 6.015625 -3.046875 6.046875 -3.390625 C 6.078125 -3.734375 6.109375 -4.101562 6.140625 -4.5 C 6.179688 -4.90625 6.21875 -5.3125 6.25 -5.71875 C 6.28125 -6.132812 6.304688 -6.539062 6.328125 -6.9375 C 6.359375 -7.332031 6.375 -7.691406 6.375 -8.015625 C 6.375 -9.003906 6.25 -9.5 6 -9.5 C 5.9375 -9.5 5.863281 -9.476562 5.78125 -9.4375 C 5.707031 -9.394531 5.613281 -9.304688 5.5 -9.171875 C 5.394531 -9.035156 5.269531 -8.84375 5.125 -8.59375 C 4.976562 -8.34375 4.8125 -8.007812 4.625 -7.59375 C 4.445312 -7.175781 4.242188 -6.664062 4.015625 -6.0625 C 3.785156 -5.457031 3.53125 -4.734375 3.25 -3.890625 C 3.1875 -3.703125 3.113281 -3.429688 3.03125 -3.078125 C 2.957031 -2.722656 2.890625 -2.359375 2.828125 -1.984375 C 2.773438 -1.617188 2.726562 -1.28125 2.6875 -0.96875 C 2.644531 -0.65625 2.625 -0.453125 2.625 -0.359375 C 2.625 -0.328125 2.578125 -0.28125 2.484375 -0.21875 C 2.390625 -0.164062 2.28125 -0.113281 2.15625 -0.0625 C 2.039062 -0.0078125 1.914062 0.03125 1.78125 0.0625 C 1.65625 0.101562 1.554688 0.125 1.484375 0.125 C 1.335938 0.125 1.222656 0.0820312 1.140625 0 C 1.066406 -0.0820312 1.007812 -0.234375 0.96875 -0.453125 C 0.925781 -0.679688 0.898438 -0.988281 0.890625 -1.375 C 0.890625 -1.769531 0.890625 -2.273438 0.890625 -2.890625 C 0.890625 -3.046875 0.894531 -3.351562 0.90625 -3.8125 C 0.925781 -4.28125 0.953125 -4.816406 0.984375 -5.421875 C 1.023438 -6.035156 1.070312 -6.671875 1.125 -7.328125 C 1.175781 -7.992188 1.234375 -8.601562 1.296875 -9.15625 C 1.367188 -9.71875 1.453125 -10.175781 1.546875 -10.53125 C 1.648438 -10.894531 1.765625 -11.078125 1.890625 -11.078125 C 1.953125 -11.078125 2.007812 -11.050781 2.0625 -11 C 2.113281 -10.957031 2.160156 -10.910156 2.203125 -10.859375 C 2.242188 -10.816406 2.285156 -10.773438 2.328125 -10.734375 C 2.367188 -10.691406 2.410156 -10.671875 2.453125 -10.671875 C 2.484375 -10.671875 2.519531 -10.6875 2.5625 -10.71875 C 2.601562 -10.75 2.640625 -10.789062 2.671875 -10.84375 C 2.703125 -10.894531 2.734375 -10.9375 2.765625 -10.96875 C 2.796875 -11 2.816406 -11.015625 2.828125 -11.015625 C 2.859375 -11.015625 2.898438 -10.972656 2.953125 -10.890625 C 3.003906 -10.804688 3.050781 -10.703125 3.09375 -10.578125 C 3.144531 -10.460938 3.191406 -10.335938 3.234375 -10.203125 C 3.273438 -10.078125 3.296875 -9.984375 3.296875 -9.921875 C 3.296875 -9.742188 3.28125 -9.488281 3.25 -9.15625 C 3.21875 -8.832031 3.179688 -8.472656 3.140625 -8.078125 C 3.097656 -7.691406 3.0625 -7.296875 3.03125 -6.890625 C 3.007812 -6.484375 3 -6.113281 3 -5.78125 L 3 -5.71875 C 3.113281 -6.09375 3.242188 -6.476562 3.390625 -6.875 C 3.546875 -7.28125 3.710938 -7.675781 3.890625 -8.0625 C 4.078125 -8.445312 4.273438 -8.804688 4.484375 -9.140625 C 4.691406 -9.484375 4.910156 -9.78125 5.140625 -10.03125 C 5.367188 -10.289062 5.601562 -10.492188 5.84375 -10.640625 C 6.082031 -10.796875 6.320312 -10.875 6.5625 -10.875 C 6.863281 -10.875 7.117188 -10.820312 7.328125 -10.71875 C 7.546875 -10.625 7.722656 -10.484375 7.859375 -10.296875 C 7.992188 -10.117188 8.085938 -9.910156 8.140625 -9.671875 C 8.203125 -9.441406 8.234375 -9.195312 8.234375 -8.9375 C 8.234375 -8.707031 8.21875 -8.441406 8.1875 -8.140625 C 8.15625 -7.847656 8.125 -7.519531 8.09375 -7.15625 C 8.0625 -6.789062 8.03125 -6.390625 8 -5.953125 C 7.96875 -5.515625 7.945312 -5.039062 7.9375 -4.53125 C 8.050781 -4.851562 8.1875 -5.234375 8.34375 -5.671875 C 8.507812 -6.117188 8.691406 -6.578125 8.890625 -7.046875 C 9.085938 -7.523438 9.296875 -7.992188 9.515625 -8.453125 C 9.742188 -8.921875 9.972656 -9.335938 10.203125 -9.703125 C 10.429688 -10.078125 10.660156 -10.378906 10.890625 -10.609375 C 11.128906 -10.835938 11.351562 -10.953125 11.5625 -10.953125 C 11.625 -10.953125 11.757812 -10.929688 11.96875 -10.890625 C 12.1875 -10.859375 12.414062 -10.800781 12.65625 -10.71875 C 12.90625 -10.644531 13.132812 -10.550781 13.34375 -10.4375 C 13.550781 -10.332031 13.691406 -10.210938 13.765625 -10.078125 C 13.835938 -9.921875 13.898438 -9.707031 13.953125 -9.4375 C 14.015625 -9.175781 14.046875 -8.820312 14.046875 -8.375 C 14.046875 -7.976562 14.015625 -7.503906 13.953125 -6.953125 C 13.898438 -6.398438 13.800781 -5.738281 13.65625 -4.96875 C 13.613281 -4.71875 13.582031 -4.472656 13.5625 -4.234375 C 13.550781 -3.992188 13.546875 -3.757812 13.546875 -3.53125 C 13.546875 -3.195312 13.5625 -2.882812 13.59375 -2.59375 C 13.625 -2.300781 13.660156 -2.039062 13.703125 -1.8125 C 13.753906 -1.59375 13.800781 -1.398438 13.84375 -1.234375 C 13.882812 -1.066406 13.925781 -0.953125 13.96875 -0.890625 Z M 13.96875 -0.890625 "/></g></g><g transform="translate(196.181996, 256.764636)"><g><path d="M 10.078125 -5.5625 C 10.078125 -4.632812 9.941406 -3.800781 9.671875 -3.0625 C 9.398438 -2.332031 9.035156 -1.707031 8.578125 -1.1875 C 8.117188 -0.664062 7.582031 -0.265625 6.96875 0.015625 C 6.363281 0.296875 5.722656 0.4375 5.046875 0.4375 C 4.765625 0.4375 4.457031 0.398438 4.125 0.328125 C 3.789062 0.265625 3.457031 0.15625 3.125 0 C 2.789062 -0.144531 2.460938 -0.335938 2.140625 -0.578125 C 1.828125 -0.828125 1.546875 -1.128906 1.296875 -1.484375 C 1.054688 -1.847656 0.863281 -2.269531 0.71875 -2.75 C 0.570312 -3.238281 0.503906 -3.800781 0.515625 -4.4375 C 0.515625 -5.15625 0.601562 -5.8125 0.78125 -6.40625 C 0.957031 -7 1.179688 -7.53125 1.453125 -8 C 1.734375 -8.46875 2.046875 -8.875 2.390625 -9.21875 C 2.742188 -9.5625 3.097656 -9.847656 3.453125 -10.078125 C 3.804688 -10.304688 4.144531 -10.476562 4.46875 -10.59375 C 4.789062 -10.707031 5.070312 -10.773438 5.3125 -10.796875 C 5.4375 -10.804688 5.488281 -10.789062 5.46875 -10.75 C 5.457031 -10.71875 5.425781 -10.679688 5.375 -10.640625 C 5.320312 -10.597656 5.273438 -10.550781 5.234375 -10.5 C 5.203125 -10.457031 5.21875 -10.429688 5.28125 -10.421875 C 5.34375 -10.410156 5.394531 -10.394531 5.4375 -10.375 C 5.476562 -10.351562 5.519531 -10.332031 5.5625 -10.3125 L 5.671875 -10.421875 C 5.734375 -10.472656 5.789062 -10.5 5.84375 -10.5 C 5.90625 -10.5 5.957031 -10.488281 6 -10.46875 C 6.039062 -10.457031 6.070312 -10.453125 6.09375 -10.453125 C 6.125 -10.453125 6.144531 -10.476562 6.15625 -10.53125 C 6.175781 -10.625 6.207031 -10.675781 6.25 -10.6875 C 6.300781 -10.707031 6.414062 -10.71875 6.59375 -10.71875 C 6.695312 -10.71875 6.851562 -10.6875 7.0625 -10.625 C 7.28125 -10.5625 7.519531 -10.453125 7.78125 -10.296875 C 8.039062 -10.148438 8.304688 -9.953125 8.578125 -9.703125 C 8.847656 -9.453125 9.09375 -9.132812 9.3125 -8.75 C 9.539062 -8.375 9.722656 -7.921875 9.859375 -7.390625 C 10.003906 -6.867188 10.078125 -6.257812 10.078125 -5.5625 Z M 5.3125 -9.421875 C 5.007812 -9.242188 4.707031 -8.992188 4.40625 -8.671875 C 4.101562 -8.359375 3.832031 -7.992188 3.59375 -7.578125 C 3.351562 -7.171875 3.15625 -6.710938 3 -6.203125 C 2.851562 -5.691406 2.78125 -5.15625 2.78125 -4.59375 C 2.78125 -3.976562 2.832031 -3.425781 2.9375 -2.9375 C 3.050781 -2.445312 3.210938 -2.023438 3.421875 -1.671875 C 3.640625 -1.328125 3.898438 -1.0625 4.203125 -0.875 C 4.503906 -0.6875 4.847656 -0.59375 5.234375 -0.59375 C 5.578125 -0.59375 5.914062 -0.6875 6.25 -0.875 C 6.59375 -1.070312 6.894531 -1.363281 7.15625 -1.75 C 7.414062 -2.132812 7.628906 -2.613281 7.796875 -3.1875 C 7.960938 -3.757812 8.046875 -4.425781 8.046875 -5.1875 C 8.046875 -5.945312 7.941406 -6.585938 7.734375 -7.109375 C 7.535156 -7.628906 7.3125 -8.046875 7.0625 -8.359375 C 6.8125 -8.679688 6.570312 -8.910156 6.34375 -9.046875 C 6.113281 -9.179688 5.972656 -9.25 5.921875 -9.25 C 5.796875 -9.25 5.695312 -9.25 5.625 -9.25 C 5.5625 -9.25 5.457031 -9.304688 5.3125 -9.421875 Z M 5.3125 -9.421875 "/></g></g><g transform="translate(207.229847, 256.764636)"><g><path d="M 7.3125 -9.484375 C 7.300781 -9.222656 7.273438 -8.96875 7.234375 -8.71875 C 7.203125 -8.46875 7.148438 -8.226562 7.078125 -8 C 7.003906 -7.78125 6.914062 -7.582031 6.8125 -7.40625 C 6.71875 -7.226562 6.609375 -7.085938 6.484375 -6.984375 C 6.378906 -6.898438 6.296875 -6.859375 6.234375 -6.859375 C 6.171875 -6.859375 6.117188 -6.875 6.078125 -6.90625 C 6.046875 -6.945312 6.015625 -6.988281 5.984375 -7.03125 C 5.960938 -7.070312 5.925781 -7.097656 5.875 -7.109375 C 5.84375 -7.117188 5.796875 -7.113281 5.734375 -7.09375 C 5.679688 -7.082031 5.625 -7.082031 5.5625 -7.09375 C 5.507812 -7.101562 5.457031 -7.132812 5.40625 -7.1875 C 5.363281 -7.25 5.332031 -7.351562 5.3125 -7.5 C 5.289062 -7.664062 5.296875 -7.882812 5.328125 -8.15625 C 5.359375 -8.425781 5.375 -8.6875 5.375 -8.9375 C 5.375 -9.164062 5.347656 -9.359375 5.296875 -9.515625 C 5.253906 -9.671875 5.171875 -9.75 5.046875 -9.75 C 4.984375 -9.75 4.875 -9.703125 4.71875 -9.609375 C 4.570312 -9.515625 4.40625 -9.316406 4.21875 -9.015625 C 4.03125 -8.710938 3.84375 -8.28125 3.65625 -7.71875 C 3.476562 -7.15625 3.332031 -6.398438 3.21875 -5.453125 C 3.21875 -4.242188 3.222656 -3.269531 3.234375 -2.53125 C 3.253906 -1.789062 3.265625 -1.210938 3.265625 -0.796875 C 3.265625 -0.453125 3.253906 -0.203125 3.234375 -0.046875 C 3.222656 0.0976562 3.179688 0.191406 3.109375 0.234375 C 3.066406 0.265625 2.976562 0.296875 2.84375 0.328125 C 2.71875 0.367188 2.582031 0.40625 2.4375 0.4375 C 2.300781 0.476562 2.164062 0.507812 2.03125 0.53125 C 1.894531 0.5625 1.8125 0.570312 1.78125 0.5625 C 1.75 0.550781 1.695312 0.519531 1.625 0.46875 C 1.5625 0.425781 1.492188 0.367188 1.421875 0.296875 C 1.347656 0.234375 1.28125 0.160156 1.21875 0.078125 C 1.15625 0.00390625 1.117188 -0.0546875 1.109375 -0.109375 C 1.085938 -0.191406 1.078125 -0.390625 1.078125 -0.703125 C 1.085938 -1.015625 1.09375 -1.390625 1.09375 -1.828125 C 1.101562 -2.265625 1.113281 -2.742188 1.125 -3.265625 C 1.132812 -3.796875 1.140625 -4.320312 1.140625 -4.84375 C 1.140625 -5.175781 1.148438 -5.546875 1.171875 -5.953125 C 1.191406 -6.359375 1.21875 -6.769531 1.25 -7.1875 C 1.28125 -7.613281 1.3125 -8.03125 1.34375 -8.4375 C 1.375 -8.84375 1.40625 -9.203125 1.4375 -9.515625 C 1.46875 -9.835938 1.492188 -10.109375 1.515625 -10.328125 C 1.546875 -10.546875 1.5625 -10.675781 1.5625 -10.71875 C 1.570312 -10.789062 1.601562 -10.816406 1.65625 -10.796875 C 1.71875 -10.773438 1.78125 -10.742188 1.84375 -10.703125 C 1.914062 -10.660156 1.976562 -10.617188 2.03125 -10.578125 C 2.082031 -10.546875 2.117188 -10.550781 2.140625 -10.59375 C 2.148438 -10.664062 2.210938 -10.671875 2.328125 -10.609375 C 2.441406 -10.554688 2.550781 -10.492188 2.65625 -10.421875 C 2.6875 -10.378906 2.722656 -10.34375 2.765625 -10.3125 C 2.816406 -10.28125 2.863281 -10.238281 2.90625 -10.1875 C 2.957031 -10.144531 3 -10.082031 3.03125 -10 C 3.0625 -9.925781 3.078125 -9.820312 3.078125 -9.6875 C 3.078125 -9.5625 3.082031 -9.375 3.09375 -9.125 C 3.113281 -8.882812 3.140625 -8.597656 3.171875 -8.265625 C 3.265625 -8.578125 3.378906 -8.910156 3.515625 -9.265625 C 3.648438 -9.617188 3.8125 -9.941406 4 -10.234375 C 4.195312 -10.523438 4.425781 -10.769531 4.6875 -10.96875 C 4.957031 -11.164062 5.273438 -11.265625 5.640625 -11.265625 C 5.847656 -11.265625 6.050781 -11.222656 6.25 -11.140625 C 6.445312 -11.054688 6.628906 -10.9375 6.796875 -10.78125 C 6.960938 -10.632812 7.09375 -10.453125 7.1875 -10.234375 C 7.28125 -10.015625 7.320312 -9.765625 7.3125 -9.484375 Z M 7.3125 -9.484375 "/></g></g><g transform="translate(214.573108, 256.764636)"><g><path d="M 11.609375 -10.75 C 11.585938 -10.695312 11.5 -10.546875 11.34375 -10.296875 C 11.1875 -10.046875 10.988281 -9.726562 10.75 -9.34375 C 10.519531 -8.96875 10.253906 -8.535156 9.953125 -8.046875 C 9.648438 -7.554688 9.335938 -7.050781 9.015625 -6.53125 C 8.691406 -6.007812 8.367188 -5.488281 8.046875 -4.96875 C 7.734375 -4.445312 7.4375 -3.957031 7.15625 -3.5 C 6.882812 -3.050781 6.644531 -2.648438 6.4375 -2.296875 C 6.238281 -1.953125 6.09375 -1.691406 6 -1.515625 C 5.90625 -1.335938 5.769531 -1.0625 5.59375 -0.6875 C 5.414062 -0.320312 5.210938 0.0976562 4.984375 0.578125 C 4.753906 1.054688 4.507812 1.570312 4.25 2.125 C 3.988281 2.675781 3.726562 3.226562 3.46875 3.78125 C 3.207031 4.34375 2.957031 4.882812 2.71875 5.40625 C 2.476562 5.9375 2.265625 6.40625 2.078125 6.8125 C 1.890625 7.226562 1.734375 7.566406 1.609375 7.828125 C 1.484375 8.097656 1.410156 8.257812 1.390625 8.3125 C 1.316406 8.519531 1.242188 8.644531 1.171875 8.6875 C 1.109375 8.738281 1.015625 8.78125 0.890625 8.8125 C 0.828125 8.8125 0.78125 8.789062 0.75 8.75 C 0.71875 8.707031 0.6875 8.65625 0.65625 8.59375 C 0.632812 8.53125 0.609375 8.472656 0.578125 8.421875 C 0.554688 8.378906 0.523438 8.351562 0.484375 8.34375 C 0.367188 8.320312 0.304688 8.296875 0.296875 8.265625 C 0.285156 8.242188 0.257812 8.1875 0.21875 8.09375 C 0.1875 8.0625 0.15625 8.039062 0.125 8.03125 C 0.101562 8.03125 0.078125 8.03125 0.046875 8.03125 C 0.0234375 8.03125 0.0078125 8.023438 0 8.015625 C -0.0195312 8.003906 -0.03125 7.976562 -0.03125 7.9375 C -0.0078125 7.789062 0.00390625 7.640625 0.015625 7.484375 C 0.0351562 7.335938 0.0546875 7.203125 0.078125 7.078125 C 0.109375 6.984375 0.195312 6.78125 0.34375 6.46875 C 0.5 6.164062 0.691406 5.789062 0.921875 5.34375 C 1.148438 4.90625 1.40625 4.414062 1.6875 3.875 C 1.976562 3.332031 2.269531 2.78125 2.5625 2.21875 C 2.851562 1.664062 3.140625 1.113281 3.421875 0.5625 C 3.710938 0.0195312 3.972656 -0.472656 4.203125 -0.921875 C 4.085938 -1.171875 3.929688 -1.488281 3.734375 -1.875 C 3.546875 -2.269531 3.335938 -2.707031 3.109375 -3.1875 C 2.878906 -3.664062 2.632812 -4.171875 2.375 -4.703125 C 2.113281 -5.242188 1.859375 -5.773438 1.609375 -6.296875 C 1.367188 -6.828125 1.132812 -7.335938 0.90625 -7.828125 C 0.675781 -8.316406 0.472656 -8.757812 0.296875 -9.15625 C 0.128906 -9.550781 0 -9.875 -0.09375 -10.125 C -0.1875 -10.382812 -0.234375 -10.546875 -0.234375 -10.609375 C -0.222656 -10.710938 -0.203125 -10.785156 -0.171875 -10.828125 C -0.140625 -10.867188 -0.09375 -10.890625 -0.03125 -10.890625 C 0.0195312 -10.890625 0.078125 -10.875 0.140625 -10.84375 C 0.210938 -10.820312 0.285156 -10.796875 0.359375 -10.765625 C 0.460938 -10.722656 0.5625 -10.679688 0.65625 -10.640625 C 0.75 -10.609375 0.820312 -10.625 0.875 -10.6875 C 0.894531 -10.757812 0.96875 -10.796875 1.09375 -10.796875 C 1.21875 -10.804688 1.316406 -10.789062 1.390625 -10.75 C 1.421875 -10.71875 1.445312 -10.707031 1.46875 -10.71875 C 1.488281 -10.726562 1.507812 -10.742188 1.53125 -10.765625 C 1.550781 -10.796875 1.578125 -10.828125 1.609375 -10.859375 C 1.640625 -10.890625 1.679688 -10.910156 1.734375 -10.921875 C 1.828125 -10.941406 1.910156 -10.925781 1.984375 -10.875 C 2.066406 -10.820312 2.144531 -10.707031 2.21875 -10.53125 C 2.257812 -10.40625 2.347656 -10.175781 2.484375 -9.84375 C 2.617188 -9.519531 2.78125 -9.140625 2.96875 -8.703125 C 3.15625 -8.273438 3.363281 -7.8125 3.59375 -7.3125 C 3.820312 -6.820312 4.050781 -6.335938 4.28125 -5.859375 C 4.507812 -5.378906 4.726562 -4.925781 4.9375 -4.5 C 5.144531 -4.082031 5.328125 -3.734375 5.484375 -3.453125 C 5.722656 -3.890625 5.976562 -4.359375 6.25 -4.859375 C 6.53125 -5.359375 6.8125 -5.851562 7.09375 -6.34375 C 7.382812 -6.84375 7.671875 -7.328125 7.953125 -7.796875 C 8.234375 -8.273438 8.5 -8.71875 8.75 -9.125 C 9 -9.53125 9.21875 -9.882812 9.40625 -10.1875 C 9.601562 -10.488281 9.765625 -10.71875 9.890625 -10.875 C 9.960938 -10.96875 10 -11.023438 10 -11.046875 C 10 -11.078125 10.03125 -11.101562 10.09375 -11.125 C 10.144531 -11.144531 10.191406 -11.160156 10.234375 -11.171875 C 10.273438 -11.191406 10.335938 -11.195312 10.421875 -11.1875 C 10.503906 -11.164062 10.566406 -11.15625 10.609375 -11.15625 C 10.648438 -11.15625 10.6875 -11.128906 10.71875 -11.078125 C 10.738281 -11.046875 10.765625 -11.035156 10.796875 -11.046875 C 10.828125 -11.054688 10.867188 -11.070312 10.921875 -11.09375 C 10.972656 -11.113281 11.023438 -11.132812 11.078125 -11.15625 C 11.128906 -11.175781 11.179688 -11.1875 11.234375 -11.1875 C 11.296875 -11.175781 11.359375 -11.160156 11.421875 -11.140625 C 11.484375 -11.128906 11.535156 -11.101562 11.578125 -11.0625 C 11.628906 -11.03125 11.660156 -10.988281 11.671875 -10.9375 C 11.679688 -10.882812 11.660156 -10.820312 11.609375 -10.75 Z M 11.609375 -10.75 "/></g></g></g></svg>